{
.appVersion = FontCreator15.0.0.3024;
.formatVersion = 3;
axes = (
{
name = Weight;
tag = wght;
},
{
name = "Dots Style";
tag = DSTY;
}
);
customParameters = (
{
name = fsType;
value = (
8
);
},
{
name = "Use Typo Metrics";
value = 1;
},
{
name = "Variable Font Origin";
value = m004;
}
);
date = "2024-04-26 18:30:00";
familyName = AradBetaVF;
featurePrefixes = (
{
automatic = 1;
code = "languagesystem DFLT dflt;
languagesystem latn dflt; # Latin default
languagesystem latn AZE;  # Latin Azerbaijani
languagesystem latn TRK;  # Latin Turkish
languagesystem arab dflt; # Arabic default
languagesystem arab FAR;  # Arabic Persian
languagesystem arab KUR;  # Arabic Kurdish
languagesystem arab URD;  # Arabic Urdu
";
name = Languagesystems;
},
{
code = "
#
# Global glyph class definitions
#

@group-dotless-3 = [peh-arab.init peh-arab.medi farsiyeh-arab.init farsiyeh-arab.medi uE028 uE029];
@group-dotless-4 = [peh-arab.init.1 peh-arab.medi.1 farsiyeh-arab.init.1 farsiyeh-arab.medi.1 uE046 uE062];
@CG_4 = [alefhamzabelow-arab alefhamzabelow-arab.fina peh-arab.init peh-arab.medi peh-arab.init.1 peh-arab.medi.1 reh-arab reh-arab.fina zain-arab zain-arab.fina jeh-arab jeh-arab.fina farsiyeh-arab.init farsiyeh-arab.medi farsiyeh-arab.init.1 farsiyeh-arab.medi.1 farsiyeh-arab.init.2 farsiyeh-arab.medi.2 uE028 uE029 uE046 uE062 uE080 uE081 uE082 uE083 uE084 uE085 uE086 uE087 uE088 uE089];

glyphs = (
{
glyphname = .notdef;
layers = (
{
anchors = (
{
name = "top-arab";
pos = (650,1400);
}
);
layerId = m004;
shapes = (
{
closed = 1;
nodes = (
(1150,0,l),
(150,0,l),
(150,1400,l),
(1150,1400,l)
);
},
{
closed = 1;
nodes = (
(250,1300,l),
(250,100,l),
(1050,100,l),
(1050,1300,l)
);
}
);
width = 1300;
},
{
anchors = (
{
name = "top-arab";
pos = (650,1400);
}
);
associatedMasterId = m004;
attr = {
coordinates = (
800,
1
);
};
layerId = m005;
name = ExtraBold;
shapes = (
{
closed = 1;
nodes = (
(1200,0,l),
(100,0,l),
(100,1400,l),
(1200,1400,l)
);
},
{
closed = 1;
nodes = (
(350,1150,l),
(350,250,l),
(950,250,l),
(950,1150,l)
);
}
);
width = 1300;
},
{
anchors = (
{
name = "top-arab";
pos = (650,1400);
}
);
associatedMasterId = m004;
attr = {
coordinates = (
1000,
1
);
};
layerId = m006;
name = ExtraBlack;
shapes = (
{
closed = 1;
nodes = (
(1228.571,0,l),
(71.429,0,l),
(71.429,1400,l),
(1228.571,1400,l)
);
},
{
closed = 1;
nodes = (
(407.143,1064.286,l),
(407.143,335.714,l),
(892.857,335.714,l),
(892.857,1064.286,l)
);
}
);
width = 1300;
}
);
},
{
glyphname = "rialsign-arab.isol";
layers = (
{
layerId = m004;
shapes = (
{
closed = 1;
nodes = (
(2539.719,-477,l),
(2571.771,-471,l),
(2763.19,-435.371,o),
(3019.353,-173.57,o),
(3019.353,6.712,qs),
(3019.438,632.085,l),
(3078,632.085,l),
(3077.915,4.556,l),
(3077.915,-199.126,o),
(2788.303,-492.25,o),
(2571.771,-531,qs),
(2548.719,-535,l)
);
},
{
closed = 1;
nodes = (
(1738.444,-519,l),
(1738.444,-434,l),
(2246.615,-434,l),
(2246.615,-519,l)
);
},
{
closed = 1;
nodes = (
(1315,1453,l),
(1889.562,1513,l),
(1889.843,328.758,l),
(1889.843,217.102,o),
(2046.417,60,o),
(2157.948,60,qs),
(2326.654,60,l),
(2438.209,60,o),
(2595.412,217.176,o),
(2595.412,328.758,qs),
(2595.412,631.765,l),
(2653.974,631.765,l),
(2653.974,325.948,l),
(2653.974,190.716,o),
(2462.412,0,o),
(2326.654,0,qs),
(2157.948,0,l),
(2021.082,0,o),
(1831.281,190.645,o),
(1831.281,325.948,qs),
(1831.008,1451.392,l),
(1373.528,1404.002,l),
(1372.729,44.08,l),
(1373.591,-137.632,o),
(1230.21,-394.341,o),
(990.727,-530.88,o),
(852.699,-540.923,qs),
(697.928,-550.923,l),
(478.901,-560.923,o),
(260.763,-395.239,o),
(157,-132.923,o),
(157,14.914,qs),
(157,162.077,o),
(235.881,390.922,o),
(266.118,468.188,q),
(322.68,443.188,l),
(295.119,381.742,o),
(216,155.077,o),
(215.562,17.79,qs),
(216,-177.923,o),
(424.855,-509.433,o),
(697.928,-490.923,qs),
(852.699,-480.913,l),
(976.702,-470.913,o),
(1186.114,-352.392,o),
(1312.719,-128.903,o),
(1312.719,47.097,qs)
);
}
);
width = 3249;
},
{
associatedMasterId = m004;
attr = {
coordinates = (
800,
1
);
};
layerId = m005;
name = ExtraBold;
shapes = (
{
closed = 1;
nodes = (
(2805,-220,l),
(2960.784,-186,l),
(3070.722,-164.167,o),
(3213.51,14.851,o),
(3213.51,116.686,qs),
(3213.51,816.275,l),
(3531.941,816.275,l),
(3531.941,94.333,l),
(3531.941,-138.558,o),
(3259.691,-474.213,o),
(3017.784,-526,qs),
(2880,-555,l)
);
},
{
closed = 1;
nodes = (
(1900.53,-511,l),
(1900.482,-250,l),
(2591.409,-250,l),
(2591.458,-511,l)
);
},
{
closed = 1;
nodes = (
(1195,1473,l),
(2132.431,1564,l),
(2132.647,451.373,l),
(2132.647,404.994,o),
(2197.8,340,o),
(2244.216,340,qs),
(2460.804,340,l),
(2506.635,340,o),
(2572.176,405.144,o),
(2572.176,451.373,qs),
(2572.176,816.471,l),
(2890.608,816.471,l),
(2890.608,409.216,l),
(2891,246,o),
(2657.391,0,o),
(2460.804,0,qs),
(2244.216,0,l),
(2048.744,0,o),
(1814.216,246.319,o),
(1814.216,409.216,qs),
(1814.009,1259.726,l),
(1512.79,1231.146,l),
(1513,80,l),
(1511.603,-73.214,o),
(1363.609,-345.923,o),
(1084.008,-529.056,o),
(892.414,-539.056,qs),
(773.922,-548.056,l),
(559.625,-558.056,o),
(270.409,-366.083,o),
(110,-64.685,o),
(110,64.493,qs),
(110.905,240.766,o),
(162.094,505.811,o),
(220,667.473,q),
(512.431,549.473,l),
(484.086,462.448,o),
(427.811,234.779,o),
(428.431,107.63,qs),
(429.871,-33.888,o),
(572.732,-225.056,o),
(773.922,-208.056,qs),
(892.412,-199.056,l),
(992,-192.056,o),
(1116.233,-113.299,o),
(1195.505,16.989,o),
(1195.505,116.437,qs)
);
}
);
width = 3651;
},
{
associatedMasterId = m004;
attr = {
coordinates = (
1000,
1
);
};
layerId = m006;
name = ExtraBlack;
shapes = (
{
closed = 1;
nodes = (
(2956.589,-73.143,l),
(3183.077,-23.143,l),
(3246.455,-9.193,o),
(3324.457,122.52,o),
(3324.457,179.528,qs),
(3324.408,921.526,l),
(3791.336,921.526,l),
(3791.385,145.635,l),
(3791.385,-103.948,o),
(3529.055,-463.905,o),
(3272.649,-523.143,qs),
(3069.303,-566.429,l)
);
},
{
closed = 1;
nodes = (
(1993.151,-506.429,l),
(1993.075,-144.857,l),
(2788.434,-144.857,l),
(2788.511,-506.429,l)
);
},
{
closed = 1;
nodes = (
(1126.429,1484.429,l),
(2271.214,1593.143,l),
(2271.392,521.438,l),
(2271.392,512.361,o),
(2284.304,500,o),
(2293.512,500,qs),
(2537.461,500,l),
(2545.736,500,o),
(2558.899,512.554,o),
(2558.899,521.438,qs),
(2558.899,922.017,l),
(3025.827,922.017,l),
(3025.827,456.797,l),
(3026.444,277.591,o),
(2768.808,0,o),
(2537.461,0,qs),
(2293.512,0,l),
(2064.551,0,o),
(1804.464,278.132,o),
(1804.464,456.797,qs),
(1804.295,1150.203,l),
(1592.368,1132.372,l),
(1593.155,100.526,l),
(1590.467,-36.404,o),
(1439.837,-318.256,o),
(1137.311,-528.014,o),
(915.108,-537.99,q),
(817.346,-546.419,l),
(605.753,-556.419,o),
(275.922,-349.422,o),
(83.143,-25.692,o),
(83.143,92.823,qs),
(84.565,285.731,o),
(119.93,571.462,o),
(193.647,781.35,q),
(620.861,610.207,l),
(592.068,508.565,o),
(548.846,280.323,o),
(550.071,158.967,qs),
(552.083,48.418,o),
(657.234,-62.555,o),
(817.346,-46.419,qs),
(915.105,-37.996,l),
(1000.742,-32.71,o),
(1076.301,23.326,o),
(1128.526,100.356,o),
(1128.526,156.059,qs)
);
}
);
width = 3881;
}
);
unicode = 65020;
},
{
glyphname = "percentsign-arab";
layers = (
{
layerId = m004;
shapes = (
{
closed = 1;
nodes = (
(254.157,-11.242,l),
(1018.229,1220.281,l),
(971.941,1246.444,l),
(207.869,14.856,l)
);
},
{
closed = 1;
nodes = (
(230.294,1145.922,cs),
(197.327,1145.922,o),
(171.34,1119.869,o),
(171.34,1086.902,cs),
(171.34,1054,o),
(197.327,1027.948,o),
(230.294,1027.948,cs),
(263.131,1027.948,o),
(289.248,1054.065,o),
(289.248,1086.902,cs),
(289.248,1119.869,o),
(263.261,1145.922,o)
);
},
{
closed = 1;
nodes = (
(995.869,207.255,cs),
(962.902,207.255,o),
(936.915,181.203,o),
(936.915,148.235,cs),
(936.915,115.268,o),
(962.902,89.281,o),
(995.869,89.281,cs),
(1028.771,89.281,o),
(1054.824,115.333,o),
(1054.824,148.235,cs),
(1054.824,181.203,o),
(1028.837,207.255,o)
);
}
);
width = 1226;
},
{
associatedMasterId = m004;
attr = {
coordinates = (
800,
1
);
};
layerId = m005;
name = ExtraBold;
shapes = (
{
closed = 1;
nodes = (
(424.353,-28.627,l),
(1091.431,1350.216,l),
(873.118,1448.667,l),
(206.039,68.843,l)
);
},
{
closed = 1;
nodes = (
(304.412,1340.824,cs),
(201.902,1340.824,o),
(120.098,1258.039,o),
(120.098,1155.529,cs),
(120.098,1054,o),
(201.902,971.216,o),
(304.412,971.216,cs),
(404.961,971.216,o),
(488.725,1054.98,o),
(488.725,1155.529,cs),
(488.725,1258.039,o),
(406.922,1340.824,o)
);
},
{
closed = 1;
nodes = (
(994.039,448.824,cs),
(891.529,448.824,o),
(809.725,366.039,o),
(809.725,263.529,cs),
(809.725,161.02,o),
(891.529,79.216,o),
(994.039,79.216,cs),
(1095.569,79.216,o),
(1178.353,162,o),
(1178.353,263.529,cs),
(1178.353,366.039,o),
(1096.549,448.824,o)
);
}
);
width = 1298;
},
{
associatedMasterId = m004;
attr = {
coordinates = (
1000,
1
);
};
layerId = m006;
name = ExtraBlack;
shapes = (
{
closed = 1;
nodes = (
(521.608,-38.562,l),
(1133.261,1424.464,l),
(816.647,1564.222,l),
(204.993,99.693,l)
);
},
{
closed = 1;
nodes = (
(346.765,1452.196,cs),
(204.516,1452.196,o),
(90.817,1336.993,o),
(90.817,1194.745,cs),
(90.817,1054,o),
(204.516,938.797,o),
(346.765,938.797,cs),
(486.007,938.797,o),
(602.712,1055.503,o),
(602.712,1194.745,cs),
(602.712,1336.993,o),
(489.013,1452.196,o)
);
},
{
closed = 1;
nodes = (
(992.993,586.863,cs),
(850.745,586.863,o),
(737.046,471.66,o),
(737.046,329.412,cs),
(737.046,187.163,o),
(850.745,73.464,o),
(992.993,73.464,cs),
(1133.739,73.464,o),
(1248.941,188.667,o),
(1248.941,329.412,cs),
(1248.941,471.66,o),
(1135.242,586.863,o)
);
}
);
width = 1339;
}
);
unicode = 1642;
},
{
glyphname = "fivepointedstar-arab";
layers = (
{
layerId = m004;
shapes = (
{
closed = 1;
nodes = (
(554.366,767.052,l),
(171.34,767.052,l),
(480.974,539.81,l),
(361.32,175.915,l),
(673.954,401.092,l),
(986.588,175.915,l),
(867,539.81,l),
(1176.634,767.052,l),
(793.608,767.052,l),
(673.954,1130.948,l)
);
}
);
width = 1348;
},
{
associatedMasterId = m004;
attr = {
coordinates = (
800,
1
);
};
layerId = m005;
name = ExtraBold;
shapes = (
{
closed = 1;
nodes = (
(531.49,823.784,l),
(120.098,823.784,l),
(452.608,579.157,l),
(323.804,188.725,l),
(659.314,430.373,l),
(994.824,188.725,l),
(867,579.157,l),
(1199.51,823.784,l),
(788.118,823.784,l),
(659.314,1214.216,l)
);
}
);
width = 1319;
},
{
associatedMasterId = m004;
attr = {
coordinates = (
1000,
1
);
};
layerId = m006;
name = ExtraBlack;
shapes = (
{
closed = 1;
nodes = (
(518.418,856.203,l),
(90.817,856.203,l),
(436.399,601.641,l),
(302.366,196.046,l),
(650.948,447.105,l),
(999.529,196.046,l),
(867,601.641,l),
(1212.582,856.203,l),
(784.98,856.203,l),
(650.948,1261.797,l)
);
}
);
width = 1302;
}
);
unicode = 1645;
},
{
glyphname = arabiccomma;
layers = (
{
layerId = m004;
shapes = (
{
closed = 1;
nodes = (
(419.7,94.608,cs),
(419.7,164.183,o),
(338.719,210.882,o),
(256.758,145.458,c),
(256.758,359.712,l),
(255.824,461.484,o),
(333.837,542.974,o),
(410.674,558.059,cs),
(423.366,560.235,l),
(415.948,611.007,l),
(406.412,609.895,l),
(294.752,599.242,o),
(200.072,487.039,o),
(201.007,356.248,cs),
(201.007,103.954,l),
(201.007,44.118,o),
(249.406,-5,o),
(310.026,-5,cs),
(370.582,-5,o),
(419.7,33.837,o)
);
}
);
width = 623;
},
{
associatedMasterId = m004;
attr = {
coordinates = (
800,
1
);
};
layerId = m005;
name = ExtraBold;
shapes = (
{
closed = 1;
nodes = (
(560.49,219.118,cs),
(560.49,372.745,o),
(485.784,403.235,o),
(376.373,401.863,c),
(376.373,507.686,l),
(376.353,536.255,o),
(394.549,560.608,o),
(424.098,564.882,cs),
(561.49,586.529,l),
(531.216,813.098,l),
(433.176,796.431,l),
(252.275,766.627,o),
(120.078,609.588,o),
(120.098,425.725,cs),
(120.098,229.314,l),
(120.098,91.765,o),
(216.078,-5,o),
(335.392,-5,cs),
(453.725,-5,o),
(560.49,61.549,o)
);
}
);
width = 680;
},
{
associatedMasterId = m004;
attr = {
coordinates = (
1000,
1
);
};
layerId = m006;
name = ExtraBlack;
shapes = (
{
closed = 1;
nodes = (
(640.942,290.266,cs),
(640.942,491.923,o),
(569.821,513.151,o),
(444.723,548.38,c),
(444.723,592.243,l),
(445.227,578.981,o),
(429.242,570.684,o),
(431.769,568.782,c),
(640.418,601.555,l),
(597.083,928.579,l),
(448.47,903.023,l),
(228.002,862.276,o),
(74.368,679.616,o),
(73.864,465.427,cs),
(73.864,300.948,l),
(73.864,118.992,o),
(197.034,-5,o),
(349.887,-5,cs),
(501.236,-5,o),
(640.942,77.385,o)
);
}
);
width = 712;
}
);
unicode = 1548;
},
{
glyphname = arabicsemicolon;
layers = (
{
layerId = m004;
metricLeft = "base()";
metricRight = "base()";
shapes = (
{
pos = (0,299);
ref = arabiccomma;
},
{
closed = 1;
nodes = (
(372,0,l),
(252,0,l),
(252,100,l),
(372,100,l)
);
}
);
width = 622;
},
{
associatedMasterId = m004;
attr = {
coordinates = (
800,
1
);
};
layerId = m005;
metricLeft = "base()";
metricRight = "base()";
name = ExtraBold;
shapes = (
{
pos = (0,418);
ref = arabiccomma;
},
{
closed = 1;
nodes = (
(495.981,0,l),
(204.019,0,l),
(204.019,281.336,l),
(495.981,281.336,l)
);
}
);
width = 680;
},
{
associatedMasterId = m004;
attr = {
coordinates = (
1000,
1
);
};
layerId = m006;
metricLeft = "base()";
metricRight = "base()";
name = ExtraBlack;
shapes = (
{
pos = (0,487);
ref = arabiccomma;
},
{
closed = 1;
nodes = (
(567.117,0,l),
(176.89,0,l),
(176.89,384.957,l),
(567.117,384.957,l)
);
}
);
width = 712;
}
);
unicode = 1563;
},
{
glyphname = arabicquestionmark;
layers = (
{
layerId = m004;
shapes = (
{
closed = 1;
nodes = (
(614.683,396.65,l),
(614.683,500,o),
(569.09,634.55,o),
(479.274,739.85,o),
(371.397,829.55,o),
(271.581,929.975,o),
(205.988,1056.725,o),
(205.988,1146.425,qs),
(205.988,1241.975,o),
(261.124,1375.55,o),
(359.039,1453.55,o),
(493.077,1488.65,o),
(573.88,1488.65,qs),
(666.091,1488.65,o),
(841.956,1451.6,o),
(904.698,1416.5,q),
(923.71,1467.2,l),
(848.611,1514.975,o),
(654.683,1548.125,o),
(570.078,1548.125,qs),
(477.867,1548.125,o),
(322.915,1504.25,o),
(211.692,1410.65,o),
(148,1257.575,o),
(148,1146.425,qs),
(148,1049.9,o),
(214.544,919.25,o),
(314.359,813.95,o),
(419.385,724.25,o),
(509.201,623.825,o),
(555.744,491.225,o),
(555.744,396.65,q)
);
},
{
closed = 1;
nodes = (
(641.301,12.5,l),
(641.301,110,l),
(527.226,110,l),
(527.226,12.5,l)
);
}
);
width = 1089;
},
{
associatedMasterId = m004;
attr = {
coordinates = (
800,
1
);
};
layerId = m005;
name = ExtraBold;
shapes = (
{
closed = 1;
nodes = (
(769.017,470.75,l),
(769.017,551.675,o),
(725.289,667.7,o),
(646.387,771.05,o),
(566.534,850.025,o),
(487.633,929,o),
(436.299,999.2,o),
(436.299,1053.8,qs),
(436.299,1115.225,o),
(480.978,1183.475,o),
(553.226,1215.65,o),
(640.683,1224.425,o),
(683.461,1224.425,qs),
(762.363,1224.425,o),
(893.989,1188.577,o),
(937.091,1169.893,q),
(1000.97,1453.55,l),
(906.858,1506.2,o),
(693.918,1548.125,o),
(589.349,1548.125,qs),
(491.435,1548.125,o),
(341.236,1502.3,o),
(214.803,1398.95,o),
(134,1229.3,o),
(134,1104.5,qs),
(134,1007.975,o),
(168.223,875.375,o),
(237.618,757.4,o),
(321.273,681.35,o),
(404.928,604.325,o),
(461.966,522.425,o),
(461.966,470.75,q)
);
},
{
closed = 1;
nodes = (
(781.376,12.5,l),
(781.376,312.8,l),
(451.509,312.8,l),
(451.509,12.5,l)
);
}
);
width = 1135;
},
{
associatedMasterId = m004;
attr = {
coordinates = (
1000,
1
);
};
layerId = m006;
name = ExtraBlack;
shapes = (
{
closed = 1;
nodes = (
(857.209,513.093,l),
(857.209,581.204,o),
(814.545,686.643,o),
(741.88,788.879,o),
(678.042,861.725,o),
(611.09,928.443,o),
(567.905,966.329,o),
(567.905,1000.871,qs),
(567.905,1042.796,o),
(606.609,1073.718,o),
(664.19,1079.707,o),
(725.03,1073.439,o),
(746.079,1073.439,qs),
(817.376,1073.439,o),
(923.722,1038.279,o),
(955.602,1028.975,q),
(1045.119,1445.75,l),
(940.142,1501.186,o),
(716.338,1548.125,o),
(600.362,1548.125,qs),
(499.188,1548.125,o),
(351.706,1501.186,o),
(216.581,1392.264,o),
(126,1213.143,o),
(126,1080.543,qs),
(126,984.018,o),
(141.753,850.304,o),
(193.766,725.086,o),
(265.209,656.836,o),
(345.344,593.182,o),
(408.378,540.254,o),
(408.378,513.093,q)
);
},
{
closed = 1;
nodes = (
(861.418,12.5,l),
(861.418,428.686,l),
(408.242,428.686,l),
(408.242,12.5,l)
);
}
);
width = 1161;
}
);
unicode = 1567;
},
{
glyphname = "decimalseparator-arab";
layers = (
{
layerId = m004;
shapes = (
{
closed = 1;
nodes = (
(47.458,-402.092,l),
(393.072,359.725,l),
(345.68,380.431,l),
(0,-380.386,l)
);
}
);
width = 564;
},
{
associatedMasterId = m004;
attr = {
coordinates = (
800,
1
);
};
layerId = m005;
name = ExtraBold;
shapes = (
{
closed = 1;
nodes = (
(193.863,-431.373,l),
(576.078,411.882,l),
(383.196,498.471,l),
(0,-343.784,l)
);
}
);
width = 696;
},
{
associatedMasterId = m004;
attr = {
coordinates = (
1000,
1
);
};
layerId = m006;
name = ExtraBlack;
shapes = (
{
closed = 1;
nodes = (
(277.523,-448.105,l),
(680.654,441.686,l),
(404.634,565.922,l),
(0,-322.869,l)
);
}
);
width = 772;
}
);
unicode = 1643;
},
{
glyphname = "thousandsseparator-arab";
layers = (
{
layerId = m004;
shapes = (
{
closed = 1;
nodes = (
(120.83,-208.105,l),
(143.863,-195.359,l),
(229.301,-148.641,o),
(279.02,-53.268,o),
(279.02,67.105,cs),
(279.02,239.941,l),
(227.516,239.941,l),
(227.516,67.105,l),
(227.516,-31.928,o),
(188.869,-112.078,o),
(119.307,-150.229,cs),
(96.275,-162.974,l)
);
}
);
width = 450;
},
{
associatedMasterId = m004;
attr = {
coordinates = (
800,
1
);
};
layerId = m005;
name = ExtraBold;
shapes = (
{
closed = 1;
nodes = (
(146.451,-321.569,l),
(239.941,-270.392,l),
(345.51,-213.608,o),
(405.294,-99.02,o),
(405.294,40.569,cs),
(405.294,281.118,l),
(192.745,281.118,l),
(192.745,40.569,l),
(192.745,11.078,o),
(187.039,-57.176,o),
(137.608,-83.431,cs),
(44.118,-134.608,l)
);
}
);
width = 525;
},
{
associatedMasterId = m004;
attr = {
coordinates = (
1000,
1
);
};
layerId = m006;
name = ExtraBlack;
shapes = (
{
closed = 1;
nodes = (
(161.092,-386.405,l),
(294.843,-313.268,l),
(411.915,-250.732,o),
(477.451,-125.163,o),
(477.451,25.405,cs),
(477.451,304.647,l),
(172.876,304.647,l),
(172.876,25.405,l),
(172.876,35.654,o),
(185.993,-25.804,o),
(148.065,-45.261,cs),
(14.314,-118.399,l)
);
}
);
width = 568;
}
);
unicode = 1644;
},
{
glyphname = "symboldotaccentmod-arab";
layers = (
{
associatedMasterId = m004;
attr = {
coordinates = (
100,
3
);
};
layerId = m000;
name = "Thin Dots3";
shapes = (
{
closed = 1;
nodes = (
(0,-42,c),
(22.627,-19.373,o),
(67.109,25.109,o),
(89.095,47.095,c),
(64.668,71.524,o),
(20.185,116.006,o),
(0,136.191,c),
(-21.989,114.197,o),
(-66.471,69.725,o),
(-89.095,47.095,c),
(-66.789,24.789,o),
(-22.307,-19.693,o)
);
}
);
},
{
associatedMasterId = m004;
attr = {
coordinates = (
100,
2
);
};
layerId = m001;
name = "Thin Dots2";
shapes = (
{
closed = 1;
nodes = (
(65.73,0,c),
(65.995,41,o),
(65.995,61,o),
(65.73,101.13,c),
(9.995,101,o),
(-10.005,101,o),
(-65.699,101.13,c),
(-66.005,61,o),
(-66.005,41,o),
(-65.699,0,c),
(-10.005,0,o),
(9.995,0,o)
);
}
);
},
{
associatedMasterId = m004;
attr = {
coordinates = (
800,
3
);
};
layerId = m002;
name = "ExtraBold Dots3";
shapes = (
{
closed = 1;
nodes = (
(0,-77,c),
(53.968,-23.032,o),
(160.061,83.061,o),
(212.5,135.5,c),
(154.238,193.763,o),
(48.144,299.856,o),
(0,348,c),
(-52.445,295.543,o),
(-158.538,189.474,o),
(-212.5,135.5,c),
(-159.296,82.296,o),
(-53.204,-23.796,o)
);
}
);
},
{
associatedMasterId = m004;
attr = {
coordinates = (
800,
2
);
};
layerId = m003;
name = "ExtraBold Dots2";
shapes = (
{
closed = 1;
nodes = (
(165.56,0,c),
(166.147,112.571,o),
(166.147,162.606,o),
(165.56,273,c),
(22.134,272.675,o),
(-22.157,272.675,o),
(-165.491,273,c),
(-166.17,162.606,o),
(-166.17,112.571,o),
(-165.491,0,c),
(-22.157,0,o),
(22.134,0,o)
);
}
);
},
{
layerId = m004;
shapes = (
{
closed = 1;
nodes = (
(65.73,0,c),
(65.995,41,o),
(65.995,61,o),
(65.73,101.13,c),
(9.995,101,o),
(-10.005,101,o),
(-65.699,101.13,c),
(-66.005,61,o),
(-66.005,41,o),
(-65.699,0,c),
(-10.005,0,o),
(9.995,0,o)
);
}
);
},
{
associatedMasterId = m004;
attr = {
coordinates = (
800,
1
);
};
layerId = m005;
name = ExtraBold;
shapes = (
{
closed = 1;
nodes = (
(165.56,0,c),
(166.147,112.571,o),
(166.147,162.606,o),
(165.56,273,c),
(22.134,272.675,o),
(-22.157,272.675,o),
(-165.491,273,c),
(-166.17,162.606,o),
(-166.17,112.571,o),
(-165.491,0,c),
(-22.157,0,o),
(22.134,0,o)
);
}
);
},
{
associatedMasterId = m004;
attr = {
coordinates = (
1000,
1
);
};
layerId = m006;
name = ExtraBlack;
shapes = (
{
closed = 1;
nodes = (
(222.605,0,c),
(223.376,153.469,o),
(223.376,220.666,o),
(222.605,371.212,c),
(29.07,370.775,o),
(-29.1,370.775,o),
(-222.516,371.212,c),
(-223.406,220.666,o),
(-223.406,153.469,o),
(-222.516,0,c),
(-29.1,0,o),
(29.07,0,o)
);
}
);
},
{
associatedMasterId = m004;
attr = {
coordinates = (
1000,
2
);
};
layerId = m007;
name = "ExtraBlack Dots2";
shapes = (
{
closed = 1;
nodes = (
(222.605,0,c),
(223.376,153.469,o),
(223.376,220.666,o),
(222.605,371.212,c),
(29.07,370.775,o),
(-29.1,370.775,o),
(-222.516,371.212,c),
(-223.406,220.666,o),
(-223.406,153.469,o),
(-222.516,0,c),
(-29.1,0,o),
(29.07,0,o)
);
}
);
},
{
associatedMasterId = m004;
attr = {
coordinates = (
1000,
3
);
};
layerId = m008;
name = "ExtraBlack Dots3";
shapes = (
{
closed = 1;
nodes = (
(0,-80,c),
(63.492,-16.508,o),
(188.307,108.307,o),
(250,170,c),
(181.456,238.545,o),
(56.64,363.36,o),
(0,420,c),
(-61.7,358.286,o),
(-186.515,233.499,o),
(-250,170,c),
(-187.407,107.408,o),
(-62.593,-17.407,o)
);
}
);
}
);
unicode = 64434;
},
{
glyphname = "symboldotbelowmod-arab";
layers = (
{
associatedMasterId = m004;
attr = {
coordinates = (
100,
3
);
};
layerId = m000;
name = "Thin Dots3";
shapes = (
{
closed = 1;
nodes = (
(0,-136.191,c),
(22.627,-113.564,o),
(67.109,-69.082,o),
(89.095,-47.095,c),
(64.668,-22.667,o),
(20.185,21.815,o),
(0,42,c),
(-21.989,20.006,o),
(-66.471,-24.466,o),
(-89.095,-47.095,c),
(-66.789,-69.402,o),
(-22.307,-113.884,o)
);
}
);
},
{
associatedMasterId = m004;
attr = {
coordinates = (
100,
2
);
};
layerId = m001;
name = "Thin Dots2";
shapes = (
{
closed = 1;
nodes = (
(65.73,-101.13,c),
(65.995,-60.13,o),
(65.995,-40.13,o),
(65.73,0,c),
(9.995,-0.13,o),
(-10.005,-0.13,o),
(-65.699,0,c),
(-66.005,-40.13,o),
(-66.005,-60.13,o),
(-65.699,-101.13,c),
(-10.005,-101.13,o),
(9.995,-101.13,o)
);
}
);
},
{
associatedMasterId = m004;
attr = {
coordinates = (
800,
3
);
};
layerId = m002;
name = "ExtraBold Dots3";
shapes = (
{
closed = 1;
nodes = (
(0,-348,c),
(53.968,-294.032,o),
(160.061,-187.939,o),
(212.5,-135.5,c),
(154.238,-77.237,o),
(48.144,28.856,o),
(0,77,c),
(-52.445,24.543,o),
(-158.538,-81.526,o),
(-212.5,-135.5,c),
(-159.296,-188.704,o),
(-53.204,-294.796,o)
);
}
);
},
{
associatedMasterId = m004;
attr = {
coordinates = (
800,
2
);
};
layerId = m003;
name = "ExtraBold Dots2";
shapes = (
{
closed = 1;
nodes = (
(165.56,-273,c),
(166.147,-160.429,o),
(166.147,-110.394,o),
(165.56,0,c),
(22.134,-0.325,o),
(-22.157,-0.325,o),
(-165.491,0,c),
(-166.17,-110.394,o),
(-166.17,-160.429,o),
(-165.491,-273,c),
(-22.157,-273,o),
(22.134,-273,o)
);
}
);
},
{
layerId = m004;
shapes = (
{
closed = 1;
nodes = (
(65.73,-101.13,c),
(65.995,-60.13,o),
(65.995,-40.13,o),
(65.73,0,c),
(9.995,-0.13,o),
(-10.005,-0.13,o),
(-65.699,0,c),
(-66.005,-40.13,o),
(-66.005,-60.13,o),
(-65.699,-101.13,c),
(-10.005,-101.13,o),
(9.995,-101.13,o)
);
}
);
},
{
associatedMasterId = m004;
attr = {
coordinates = (
800,
1
);
};
layerId = m005;
name = ExtraBold;
shapes = (
{
closed = 1;
nodes = (
(165.525,-266,c),
(166.147,-160.429,o),
(166.147,-110.394,o),
(165.56,0,c),
(22.134,-0.325,o),
(-22.157,-0.325,o),
(-165.491,0,c),
(-166.17,-110.394,o),
(-166.17,-160.429,o),
(-165.525,-266,c),
(-22.191,-266,o),
(22.1,-266,o)
);
}
);
},
{
associatedMasterId = m004;
attr = {
coordinates = (
1000,
1
);
};
layerId = m006;
name = ExtraBlack;
shapes = (
{
closed = 1;
nodes = (
(222.605,-371.212,c),
(223.376,-217.743,o),
(223.376,-150.545,o),
(222.605,0,c),
(29.07,-0.436,o),
(-29.1,-0.436,o),
(-222.516,0,c),
(-223.406,-150.545,o),
(-223.406,-217.743,o),
(-222.516,-371.212,c),
(-29.1,-371.212,o),
(29.07,-371.212,o)
);
}
);
},
{
associatedMasterId = m004;
attr = {
coordinates = (
1000,
3
);
};
layerId = m008;
name = "ExtraBlack Dots3";
shapes = (
{
closed = 1;
nodes = (
(0,-420,c),
(63.492,-356.508,o),
(188.307,-231.693,o),
(250,-170,c),
(181.456,-101.455,o),
(56.64,23.36,o),
(0,80,c),
(-61.7,18.286,o),
(-186.515,-106.501,o),
(-250,-170,c),
(-187.407,-232.592,o),
(-62.593,-357.407,o)
);
}
);
},
{
associatedMasterId = m004;
attr = {
coordinates = (
1000,
2
);
};
layerId = m007;
name = "ExtraBlack Dots2";
shapes = (
{
closed = 1;
nodes = (
(222.605,-371.212,c),
(223.376,-217.743,o),
(223.376,-150.545,o),
(222.605,0,c),
(29.07,-0.436,o),
(-29.1,-0.436,o),
(-222.516,0,c),
(-223.406,-150.545,o),
(-223.406,-217.743,o),
(-222.516,-371.212,c),
(-29.1,-371.212,o),
(29.07,-371.212,o)
);
}
);
}
);
unicode = 64435;
},
{
glyphname = "symboltwodotsabovemod-arab";
layers = (
{
associatedMasterId = m004;
attr = {
coordinates = (
100,
3
);
};
layerId = m000;
name = "Thin Dots3";
shapes = (
{
closed = 1;
nodes = (
(-161,-42,c),
(-138.373,-19.373,o),
(-93.891,25.109,o),
(-71.905,47.095,c),
(-96.332,71.524,o),
(-140.815,116.006,o),
(-161,136.191,c),
(-182.989,114.197,o),
(-227.471,69.725,o),
(-250.095,47.095,c),
(-227.789,24.789,o),
(-183.307,-19.693,o)
);
},
{
closed = 1;
nodes = (
(161,-42,c),
(183.627,-19.373,o),
(228.109,25.109,o),
(250.095,47.095,c),
(225.668,71.524,o),
(181.185,116.006,o),
(161,136.191,c),
(139.011,114.197,o),
(94.529,69.725,o),
(71.905,47.095,c),
(94.211,24.789,o),
(138.693,-19.693,o)
);
}
);
},
{
associatedMasterId = m004;
attr = {
coordinates = (
100,
2
);
};
layerId = m001;
name = "Thin Dots2";
shapes = (
{
closed = 1;
nodes = (
(10.115,-0.5,c),
(10.628,29.906,o),
(10.628,34.739,o),
(10.115,84.5,c),
(-97.671,84.404,o),
(-136.349,84.404,o),
(-254.056,84.5,c),
(-254.648,34.739,o),
(-254.648,29.906,o),
(-254.056,-0.5,c),
(-136.349,-0.5,o),
(-97.671,-0.5,o)
);
},
{
closed = 1;
nodes = (
(254.115,-0.5,c),
(254.628,29.906,o),
(254.628,34.739,o),
(254.115,84.5,c),
(136.329,84.404,o),
(97.651,84.404,o),
(-10.056,84.5,c),
(-10.648,34.739,o),
(-10.648,29.906,o),
(-10.056,-0.5,c),
(97.651,-0.5,o),
(136.329,-0.5,o)
);
}
);
},
{
associatedMasterId = m004;
attr = {
coordinates = (
800,
3
);
};
layerId = m002;
name = "ExtraBold Dots3";
shapes = (
{
closed = 1;
nodes = (
(-180,-67,c),
(-129.206,-16.206,o),
(-29.354,83.646,o),
(20,133,c),
(-34.835,187.836,o),
(-134.688,287.688,o),
(-180,333,c),
(-229.36,283.629,o),
(-329.212,183.799,o),
(-380,133,c),
(-329.926,82.926,o),
(-230.074,-16.926,o)
);
},
{
closed = 1;
nodes = (
(180,-67,c),
(230.794,-16.206,o),
(330.646,83.646,o),
(380,133,c),
(325.165,187.836,o),
(225.312,287.688,o),
(180,333,c),
(130.64,283.629,o),
(30.788,183.799,o),
(-20,133,c),
(30.074,82.926,o),
(129.926,-16.926,o)
);
}
);
},
{
associatedMasterId = m004;
attr = {
coordinates = (
800,
2
);
};
layerId = m003;
name = "ExtraBold Dots2";
shapes = (
{
closed = 1;
nodes = (
(0,0,c),
(20.563,99.733,o),
(20.563,148.384,o),
(-0.114,261,c),
(-174.89,260.684,o),
(-217.36,260.684,o),
(-325.464,261,c),
(-326,148.384,o),
(-326,99.733,o),
(-325.35,0,c),
(-217.246,0,o),
(-174.776,0,o)
);
},
{
closed = 1;
nodes = (
(325.578,0,c),
(326.141,99.733,o),
(326.141,148.384,o),
(325.464,261,c),
(217.11,260.684,o),
(174.64,260.684,o),
(-0.114,261,c),
(-20,148.384,o),
(-20,99.733,o),
(0,0,c),
(174.754,0,o),
(217.224,0,o)
);
}
);
},
{
layerId = m004;
shapes = (
{
closed = 1;
nodes = (
(-86.265,0,c),
(-86,41,o),
(-86,61,o),
(-86.265,101.13,c),
(-142,101,o),
(-162,101,o),
(-217.694,101.13,c),
(-218,61,o),
(-218,41,o),
(-217.694,0,c),
(-162,0,o),
(-142,0,o)
);
},
{
closed = 1;
nodes = (
(217.73,0.435,c),
(217.995,41.435,o),
(217.995,61.435,o),
(217.73,101.565,c),
(161.995,101.435,o),
(141.995,101.435,o),
(86.301,101.565,c),
(85.995,61.435,o),
(85.995,41.435,o),
(86.301,0.435,c),
(141.995,0.435,o),
(161.995,0.435,o)
);
}
);
},
{
associatedMasterId = m004;
attr = {
coordinates = (
800,
1
);
};
layerId = m005;
name = ExtraBold;
shapes = (
{
closed = 1;
nodes = (
(-51.254,0,c),
(-50.729,99.733,o),
(-50.729,148.384,o),
(-51.36,271,c),
(-157.167,270.684,o),
(-196.76,270.684,o),
(-325.51,271,c),
(-326.01,148.384,o),
(-326.01,99.733,o),
(-325.404,0,c),
(-196.654,0,o),
(-157.061,0,o)
);
},
{
closed = 1;
nodes = (
(325.441,0,c),
(325.966,99.733,o),
(325.966,148.384,o),
(325.335,271,c),
(196.433,270.684,o),
(156.864,270.684,o),
(51.185,271,c),
(50.685,148.384,o),
(50.685,99.733,o),
(51.291,0,c),
(156.971,0,o),
(196.539,0,o)
);
}
);
},
{
associatedMasterId = m004;
attr = {
coordinates = (
1000,
1
);
};
layerId = m006;
name = ExtraBlack;
shapes = (
{
closed = 1;
nodes = (
(0,0,c),
(32.134,140.582,o),
(32.134,216.757,o),
(0,362,c),
(-210,362,o),
(-263,362,o),
(-366,362,c),
(-366,217,o),
(-366,141,o),
(-366,0,c),
(-262,0,o),
(-209,0,o)
);
},
{
closed = 1;
nodes = (
(366,0,c),
(366,141,o),
(366,217,o),
(366,362,c),
(263,362,o),
(210,362,o),
(0,362,c),
(-32,216.757,o),
(-32,140.582,o),
(0,0,c),
(211,0,o),
(264,0,o)
);
}
);
},
{
associatedMasterId = m004;
attr = {
coordinates = (
1000,
3
);
};
layerId = m008;
name = "ExtraBlack Dots3";
shapes = (
{
closed = 1;
nodes = (
(-190.857,-65.412,c),
(-128,-2.555,o),
(-4.433,121.012,o),
(56.643,182.088,c),
(-11.215,249.948,o),
(-134.784,373.515,o),
(-190.857,429.588,c),
(-251.94,368.491,o),
(-375.507,244.952,o),
(-438.357,182.088,c),
(-376.39,120.122,o),
(-252.824,-3.445,o)
);
},
{
closed = 1;
nodes = (
(190.857,-65.412,c),
(253.714,-2.555,o),
(377.281,121.012,o),
(438.357,182.088,c),
(370.499,249.948,o),
(246.93,373.515,o),
(190.857,429.588,c),
(129.774,368.491,o),
(6.207,244.952,o),
(-56.643,182.088,c),
(5.324,120.122,o),
(128.891,-3.445,o)
);
}
);
},
{
associatedMasterId = m004;
attr = {
coordinates = (
1000,
2
);
};
layerId = m007;
name = "ExtraBlack Dots2";
shapes = (
{
closed = 1;
nodes = (
(0,0,c),
(32.134,140.582,o),
(32.134,216.757,o),
(0,362,c),
(-210,362,o),
(-263,362,o),
(-366,362,c),
(-366,217,o),
(-366,141,o),
(-366,0,c),
(-262,0,o),
(-209,0,o)
);
},
{
closed = 1;
nodes = (
(366,0,c),
(366,141,o),
(366,217,o),
(366,362,c),
(263,362,o),
(210,362,o),
(0,362,c),
(-32,216.757,o),
(-32,140.582,o),
(0,0,c),
(211,0,o),
(264,0,o)
);
}
);
},
{
associatedMasterId = m004;
attr = {
coordinates = (
801,
1
);
};
layerId = m009;
name = "801";
shapes = (
{
closed = 1;
nodes = (
(0,0,c),
(20.563,99.733,o),
(20.563,148.384,o),
(-0.114,261,c),
(-174.89,260.684,o),
(-217.36,260.684,o),
(-325.464,261,c),
(-326,148.384,o),
(-326,99.733,o),
(-325.35,0,c),
(-217.246,0,o),
(-174.776,0,o)
);
},
{
closed = 1;
nodes = (
(325.578,0,c),
(326.141,99.733,o),
(326.141,148.384,o),
(325.464,261,c),
(217.11,260.684,o),
(174.64,260.684,o),
(-0.114,261,c),
(-20,148.384,o),
(-20,99.733,o),
(0,0,c),
(174.754,0,o),
(217.224,0,o)
);
}
);
}
);
unicode = 64436;
},
{
glyphname = "symboltwodotsbelowmod-arab";
layers = (
{
associatedMasterId = m004;
attr = {
coordinates = (
100,
3
);
};
layerId = m000;
name = "Thin Dots3";
shapes = (
{
closed = 1;
nodes = (
(-161,-136.191,c),
(-138.373,-113.564,o),
(-93.891,-69.082,o),
(-71.905,-47.095,c),
(-96.332,-22.667,o),
(-140.815,21.815,o),
(-161,42,c),
(-182.989,20.006,o),
(-227.471,-24.466,o),
(-250.095,-47.095,c),
(-227.789,-69.402,o),
(-183.307,-113.884,o)
);
},
{
closed = 1;
nodes = (
(161,-136.191,c),
(183.627,-113.564,o),
(228.109,-69.082,o),
(250.095,-47.095,c),
(225.668,-22.667,o),
(181.185,21.815,o),
(161,42,c),
(139.011,20.006,o),
(94.529,-24.466,o),
(71.905,-47.095,c),
(94.211,-69.402,o),
(138.693,-113.884,o)
);
}
);
},
{
associatedMasterId = m004;
attr = {
coordinates = (
100,
2
);
};
layerId = m001;
name = "Thin Dots2";
shapes = (
{
closed = 1;
nodes = (
(10.115,-85,c),
(10.628,-34.594,o),
(10.628,-29.761,o),
(10.115,0,c),
(-97.671,-0.096,o),
(-136.349,-0.096,o),
(-254.056,0,c),
(-254.648,-29.761,o),
(-254.648,-34.594,o),
(-254.056,-85,c),
(-136.349,-85,o),
(-97.671,-85,o)
);
},
{
closed = 1;
nodes = (
(254.115,-85,c),
(254.628,-34.594,o),
(254.628,-29.761,o),
(254.115,0,c),
(136.329,-0.096,o),
(97.651,-0.096,o),
(-10.056,0,c),
(-10.648,-29.761,o),
(-10.648,-34.594,o),
(-10.056,-85,c),
(97.651,-85,o),
(136.329,-85,o)
);
}
);
},
{
associatedMasterId = m004;
attr = {
coordinates = (
800,
3
);
};
layerId = m002;
name = "ExtraBold Dots3";
shapes = (
{
closed = 1;
nodes = (
(-180,-333,c),
(-129.206,-282.206,o),
(-29.354,-182.354,o),
(20,-133,c),
(-34.835,-78.164,o),
(-134.688,21.688,o),
(-180,67,c),
(-229.36,17.629,o),
(-329.212,-82.201,o),
(-380,-133,c),
(-329.926,-183.074,o),
(-230.074,-282.926,o)
);
},
{
closed = 1;
nodes = (
(180,-333,c),
(230.794,-282.206,o),
(330.646,-182.354,o),
(380,-133,c),
(325.165,-78.164,o),
(225.312,21.688,o),
(180,67,c),
(130.64,17.629,o),
(30.788,-82.201,o),
(-20,-133,c),
(30.074,-183.074,o),
(129.926,-282.926,o)
);
}
);
},
{
associatedMasterId = m004;
attr = {
coordinates = (
800,
2
);
};
layerId = m003;
name = "ExtraBold Dots2";
shapes = (
{
closed = 1;
nodes = (
(-0.114,-261,c),
(20.401,-166.267,o),
(20.401,-117.616,o),
(-0.163,0,c),
(-174.938,-0.316,o),
(-217.409,-0.316,o),
(-325.512,0,c),
(-326.163,-117.616,o),
(-326.163,-166.267,o),
(-325.464,-261,c),
(-217.36,-261,o),
(-174.89,-261,o)
);
},
{
closed = 1;
nodes = (
(325.464,-261,c),
(325.978,-166.267,o),
(325.978,-117.616,o),
(325.415,0,c),
(217.062,-0.316,o),
(174.591,-0.316,o),
(-0.163,0,c),
(-20.163,-117.616,o),
(-20.163,-166.267,o),
(-0.114,-261,c),
(174.64,-261,o),
(217.11,-261,o)
);
}
);
},
{
layerId = m004;
shapes = (
{
closed = 1;
nodes = (
(-86.268,-101.565,c),
(-86.003,-60.565,o),
(-86.003,-40.565,o),
(-86.268,-0.435,c),
(-142.003,-0.565,o),
(-162.003,-0.565,o),
(-217.696,-0.435,c),
(-218.003,-40.565,o),
(-218.003,-60.565,o),
(-217.696,-101.565,c),
(-162.003,-101.565,o),
(-142.003,-101.565,o)
);
},
{
closed = 1;
nodes = (
(217.727,-101.13,c),
(217.992,-60.13,o),
(217.992,-40.13,o),
(217.727,0,c),
(161.992,-0.13,o),
(141.992,-0.13,o),
(86.299,0,c),
(85.992,-40.13,o),
(85.992,-60.13,o),
(86.299,-101.13,c),
(141.992,-101.13,o),
(161.992,-101.13,o)
);
}
);
},
{
associatedMasterId = m004;
attr = {
coordinates = (
800,
1
);
};
layerId = m005;
name = ExtraBold;
shapes = (
{
closed = 1;
nodes = (
(-51.283,-271.322,c),
(-50.728,-148.53,o),
(-50.728,-99.937,o),
(-51.253,-0.322,c),
(-157.002,-0.322,o),
(-196.574,-0.322,o),
(-325.405,-0.322,c),
(-326.011,-99.937,o),
(-326.011,-148.53,o),
(-325.435,-271.322,c),
(-196.605,-271.007,o),
(-157.033,-271.007,o)
);
},
{
closed = 1;
nodes = (
(325.413,-271.322,c),
(325.968,-148.53,o),
(325.968,-99.937,o),
(325.444,-0.322,c),
(196.541,-0.322,o),
(156.972,-0.322,o),
(51.292,-0.322,c),
(50.686,-99.937,o),
(50.686,-148.53,o),
(51.261,-271.322,c),
(148.286,-271.032,o),
(193.945,-271,o)
);
}
);
},
{
associatedMasterId = m004;
attr = {
coordinates = (
1000,
1
);
};
layerId = m006;
name = ExtraBlack;
shapes = (
{
closed = 1;
nodes = (
(0,-362,c),
(32.134,-221.418,o),
(32.134,-145.243,o),
(0,0,c),
(-210,0,o),
(-263,0,o),
(-366,0,c),
(-366,-145,o),
(-366,-221,o),
(-366,-362,c),
(-262,-362,o),
(-209,-362,o)
);
},
{
closed = 1;
nodes = (
(366,-362,c),
(366,-221,o),
(366,-145,o),
(366,0,c),
(263,0,o),
(210,0,o),
(0,0,c),
(-32,-145.243,o),
(-32,-221.418,o),
(0,-362,c),
(211,-362,o),
(264,-362,o)
);
}
);
},
{
associatedMasterId = m004;
attr = {
coordinates = (
1000,
3
);
};
layerId = m008;
name = "ExtraBlack Dots3";
shapes = (
{
closed = 1;
nodes = (
(-190.857,-429.588,c),
(-128,-366.731,o),
(-4.433,-243.164,o),
(56.643,-182.088,c),
(-11.215,-114.229,o),
(-134.784,9.338,o),
(-190.857,65.412,c),
(-251.94,4.315,o),
(-375.507,-119.224,o),
(-438.357,-182.088,c),
(-376.39,-244.055,o),
(-252.824,-367.622,o)
);
},
{
closed = 1;
nodes = (
(190.857,-429.588,c),
(253.714,-366.731,o),
(377.281,-243.164,o),
(438.357,-182.088,c),
(370.499,-114.229,o),
(246.93,9.338,o),
(190.857,65.412,c),
(129.774,4.315,o),
(6.207,-119.224,o),
(-56.643,-182.088,c),
(5.324,-244.055,o),
(128.891,-367.622,o)
);
}
);
},
{
associatedMasterId = m004;
attr = {
coordinates = (
1000,
2
);
};
layerId = m007;
name = "ExtraBlack Dots2";
shapes = (
{
closed = 1;
nodes = (
(0,-362,c),
(32.134,-221.418,o),
(32.134,-145.243,o),
(0,0,c),
(-210,0,o),
(-263,0,o),
(-366,0,c),
(-366,-145,o),
(-366,-221,o),
(-366,-362,c),
(-262,-362,o),
(-209,-362,o)
);
},
{
closed = 1;
nodes = (
(366,-362,c),
(366,-221,o),
(366,-145,o),
(366,0,c),
(263,0,o),
(210,0,o),
(0,0,c),
(-32,-145.243,o),
(-32,-221.418,o),
(0,-362,c),
(211,-362,o),
(264,-362,o)
);
}
);
},
{
associatedMasterId = m004;
attr = {
coordinates = (
801,
1
);
};
layerId = m009;
name = "801";
shapes = (
{
closed = 1;
nodes = (
(-0.114,-261,c),
(20.401,-166.267,o),
(20.401,-117.616,o),
(-0.163,0,c),
(-174.938,-0.316,o),
(-217.409,-0.316,o),
(-325.512,0,c),
(-326.163,-117.616,o),
(-326.163,-166.267,o),
(-325.464,-261,c),
(-217.36,-261,o),
(-174.89,-261,o)
);
},
{
closed = 1;
nodes = (
(325.464,-261,c),
(325.978,-166.267,o),
(325.978,-117.616,o),
(325.415,0,c),
(217.062,-0.316,o),
(174.591,-0.316,o),
(-0.163,0,c),
(-20.163,-117.616,o),
(-20.163,-166.267,o),
(-0.114,-261,c),
(174.64,-261,o),
(217.11,-261,o)
);
}
);
}
);
unicode = 64437;
},
{
glyphname = "symbolthreedotsabovemod-arab";
layers = (
{
associatedMasterId = m004;
attr = {
coordinates = (
100,
3
);
};
layerId = m000;
name = "Thin Dots3";
shapes = (
{
closed = 1;
nodes = (
(-161,-42,c),
(-138.373,-19.373,o),
(-93.891,25.109,o),
(-71.905,47.095,c),
(-96.332,71.524,o),
(-140.815,116.006,o),
(-161,136.191,c),
(-182.989,114.197,o),
(-227.471,69.725,o),
(-250.095,47.095,c),
(-227.789,24.789,o),
(-183.307,-19.693,o)
);
},
{
closed = 1;
nodes = (
(161,-42,c),
(183.627,-19.373,o),
(228.109,25.109,o),
(250.095,47.095,c),
(225.668,71.524,o),
(181.185,116.006,o),
(161,136.191,c),
(139.011,114.197,o),
(94.529,69.725,o),
(71.905,47.095,c),
(94.211,24.789,o),
(138.693,-19.693,o)
);
},
{
closed = 1;
nodes = (
(0,233.809,c),
(22.627,256.436,o),
(67.109,300.918,o),
(89.095,322.905,c),
(64.668,347.333,o),
(20.185,391.815,o),
(0,412,c),
(-21.989,390.006,o),
(-66.471,345.534,o),
(-89.095,322.905,c),
(-66.789,300.598,o),
(-22.307,256.116,o)
);
}
);
},
{
associatedMasterId = m004;
attr = {
coordinates = (
800,
3
);
};
layerId = m002;
name = "ExtraBold Dots3";
shapes = (
{
closed = 1;
nodes = (
(-180,-67,c),
(-131.746,-18.746,o),
(-36.887,76.113,o),
(10,123,c),
(-42.093,175.094,o),
(-136.954,269.954,o),
(-180,313,c),
(-226.892,266.097,o),
(-321.751,171.259,o),
(-370,123,c),
(-322.43,75.43,o),
(-227.57,-19.43,o)
);
},
{
closed = 1;
nodes = (
(180,-67,c),
(228.254,-18.746,o),
(323.113,76.113,o),
(370,123,c),
(317.907,175.094,o),
(223.046,269.954,o),
(180,313,c),
(133.108,266.097,o),
(38.249,171.259,o),
(-10,123,c),
(37.57,75.43,o),
(132.43,-19.43,o)
);
},
{
closed = 1;
nodes = (
(0,277,c),
(44.444,321.444,o),
(131.815,408.815,o),
(175,452,c),
(127.019,499.982,o),
(39.648,587.352,o),
(0,627,c),
(-43.19,583.8,o),
(-130.56,496.449,o),
(-175,452,c),
(-131.185,408.185,o),
(-43.815,320.815,o)
);
}
);
},
{
associatedMasterId = m004;
attr = {
coordinates = (
100,
2
);
};
layerId = m001;
name = "Thin Dots2";
shapes = (
{
closed = 1;
nodes = (
(10.115,-0.5,c),
(10.628,29.906,o),
(10.628,34.739,o),
(10.115,84.5,c),
(-97.671,84.404,o),
(-136.349,84.404,o),
(-254.056,84.5,c),
(-254.648,34.739,o),
(-254.648,29.906,o),
(-254.056,-0.5,c),
(-136.349,-0.5,o),
(-97.671,-0.5,o)
);
},
{
closed = 1;
nodes = (
(254.115,-0.5,c),
(254.628,29.906,o),
(254.628,34.739,o),
(254.115,84.5,c),
(136.329,84.404,o),
(97.651,84.404,o),
(-10.056,84.5,c),
(-10.648,34.739,o),
(-10.648,29.906,o),
(-10.056,-0.5,c),
(97.651,-0.5,o),
(136.329,-0.5,o)
);
},
{
closed = 1;
nodes = (
(65.73,286.435,c),
(65.995,327.435,o),
(65.995,347.435,o),
(65.73,387.565,c),
(9.995,387.435,o),
(-10.005,387.435,o),
(-65.699,387.565,c),
(-66.005,347.435,o),
(-66.005,327.435,o),
(-65.699,286.435,c),
(-10.005,286.435,o),
(9.995,286.435,o)
);
}
);
},
{
associatedMasterId = m004;
attr = {
coordinates = (
800,
2
);
};
layerId = m003;
name = "ExtraBold Dots2";
shapes = (
{
closed = 1;
nodes = (
(0,0,c),
(20.635,102.977,o),
(20.635,153.209,o),
(0.633,261,c),
(-168.436,261,o),
(-216.367,261,o),
(-324.633,261,c),
(-326,153.209,o),
(-326,102.977,o),
(-325.266,0,c),
(-217,0.326,o),
(-169.069,0.326,o)
);
},
{
closed = 1;
nodes = (
(326,0,c),
(326.635,102.977,o),
(326.635,153.209,o),
(326.633,261,c),
(217.633,261,o),
(169.702,261,o),
(1.367,261,c),
(-20,153.209,o),
(-20,102.977,o),
(0.734,0,c),
(169.069,0.326,o),
(217,0.326,o)
);
},
{
closed = 1;
nodes = (
(134.9,376,c),
(135.423,475.733,o),
(135.423,524.384,o),
(134.9,622,c),
(19.763,621.684,o),
(-19.743,621.684,o),
(-134.254,622,c),
(-134.859,524.384,o),
(-134.859,475.733,o),
(-134.254,376,c),
(-19.743,376,o),
(19.763,376,o)
);
}
);
},
{
layerId = m004;
shapes = (
{
closed = 1;
nodes = (
(-86.265,0,c),
(-86,41,o),
(-86,61,o),
(-86.265,101.13,c),
(-142,101,o),
(-162,101,o),
(-217.694,101.13,c),
(-218,61,o),
(-218,41,o),
(-217.694,0,c),
(-162,0,o),
(-142,0,o)
);
},
{
closed = 1;
nodes = (
(217.73,0.435,c),
(217.995,41.435,o),
(217.995,61.435,o),
(217.73,101.565,c),
(161.995,101.435,o),
(141.995,101.435,o),
(86.301,101.565,c),
(85.995,61.435,o),
(85.995,41.435,o),
(86.301,0.435,c),
(141.995,0.435,o),
(161.995,0.435,o)
);
},
{
closed = 1;
nodes = (
(65.73,286.435,c),
(65.995,327.435,o),
(65.995,347.435,o),
(65.73,387.565,c),
(9.995,387.435,o),
(-10.005,387.435,o),
(-65.699,387.565,c),
(-66.005,347.435,o),
(-66.005,327.435,o),
(-65.699,286.435,c),
(-10.005,286.435,o),
(9.995,286.435,o)
);
}
);
},
{
associatedMasterId = m004;
attr = {
coordinates = (
800,
1
);
};
layerId = m005;
name = ExtraBold;
shapes = (
{
closed = 1;
nodes = (
(-51.253,0,c),
(-50.728,99.733,o),
(-50.728,148.384,o),
(-51.283,271,c),
(-157.033,270.684,o),
(-196.605,270.684,o),
(-325.435,271,c),
(-326.011,148.384,o),
(-326.011,99.733,o),
(-325.405,0,c),
(-196.574,0,o),
(-157.002,0,o)
);
},
{
closed = 1;
nodes = (
(325.444,0,c),
(325.968,99.733,o),
(325.968,148.384,o),
(325.413,271,c),
(196.511,270.684,o),
(156.942,270.684,o),
(51.261,271,c),
(50.686,148.384,o),
(50.686,99.733,o),
(51.292,0,c),
(156.972,0,o),
(196.541,0,o)
);
},
{
closed = 1;
nodes = (
(134.9,376,c),
(135.423,475.733,o),
(135.423,524.384,o),
(134.9,622,c),
(19.763,621.684,o),
(-19.743,621.684,o),
(-134.254,622,c),
(-134.859,524.384,o),
(-134.859,475.733,o),
(-134.254,376,c),
(-19.743,376,o),
(19.763,376,o)
);
}
);
},
{
associatedMasterId = m004;
attr = {
coordinates = (
1000,
1
);
};
layerId = m006;
name = ExtraBlack;
shapes = (
{
closed = 1;
nodes = (
(0,0,c),
(32.134,140.582,o),
(32.134,216.757,o),
(0,362,c),
(-210,362,o),
(-263,362,o),
(-366,362,c),
(-366,217,o),
(-366,141,o),
(-366,0,c),
(-262,0,o),
(-209,0,o)
);
},
{
closed = 1;
nodes = (
(366,0,c),
(366,141,o),
(366,217,o),
(366,362,c),
(263,362,o),
(210,362,o),
(0,362,c),
(-32,216.757,o),
(-32,140.582,o),
(0,0,c),
(211,0,o),
(264,0,o)
);
},
{
closed = 1;
nodes = (
(174.425,427.18,c),
(175.097,560.475,o),
(175.097,625.497,o),
(174.425,755.963,c),
(25.345,755.541,o),
(-25.307,755.541,o),
(-173.428,755.963,c),
(-174.204,625.497,o),
(-174.204,560.475,o),
(-173.428,427.18,c),
(-25.307,427.18,o),
(25.345,427.18,o)
);
}
);
},
{
associatedMasterId = m004;
attr = {
coordinates = (
1000,
3
);
};
layerId = m008;
name = "ExtraBlack Dots3";
shapes = (
{
closed = 1;
nodes = (
(-190.857,-81.286,c),
(-127.959,-18.388,o),
(-4.313,105.259,o),
(56.803,166.374,c),
(-11.1,234.278,o),
(-134.748,357.924,o),
(-190.857,414.034,c),
(-251.98,352.898,o),
(-375.626,229.279,o),
(-438.517,166.374,c),
(-376.51,104.367,o),
(-252.864,-19.279,o)
);
},
{
closed = 1;
nodes = (
(190.857,-81.286,c),
(253.755,-18.388,o),
(377.402,105.259,o),
(438.517,166.374,c),
(370.615,234.278,o),
(246.967,357.924,o),
(190.857,414.034,c),
(129.735,352.898,o),
(6.088,229.279,o),
(-56.803,166.374,c),
(5.204,104.367,o),
(128.851,-19.279,o)
);
},
{
closed = 1;
nodes = (
(0,301.681,c),
(56.911,358.592,o),
(168.79,470.47,o),
(224.088,525.769,c),
(162.649,587.21,o),
(50.769,699.088,o),
(0,749.857,c),
(-55.305,694.54,o),
(-167.183,582.686,o),
(-224.088,525.769,c),
(-167.983,469.664,o),
(-56.105,357.786,o)
);
}
);
},
{
associatedMasterId = m004;
attr = {
coordinates = (
1000,
2
);
};
layerId = m007;
name = "ExtraBlack Dots2";
shapes = (
{
closed = 1;
nodes = (
(0,0,c),
(32.134,140.582,o),
(32.134,216.757,o),
(0,362,c),
(-210,362,o),
(-263,362,o),
(-366,362,c),
(-366,217,o),
(-366,141,o),
(-366,0,c),
(-262,0,o),
(-209,0,o)
);
},
{
closed = 1;
nodes = (
(366,0,c),
(366,141,o),
(366,217,o),
(366,362,c),
(263,362,o),
(210,362,o),
(0,362,c),
(-32,216.757,o),
(-32,140.582,o),
(0,0,c),
(211,0,o),
(264,0,o)
);
},
{
closed = 1;
nodes = (
(174.425,427.18,c),
(175.097,560.475,o),
(175.097,625.497,o),
(174.425,755.963,c),
(25.345,755.541,o),
(-25.307,755.541,o),
(-173.428,755.963,c),
(-174.204,625.497,o),
(-174.204,560.475,o),
(-173.428,427.18,c),
(-25.307,427.18,o),
(25.345,427.18,o)
);
}
);
},
{
associatedMasterId = m004;
attr = {
coordinates = (
801,
1
);
};
layerId = m009;
name = "801";
shapes = (
{
closed = 1;
nodes = (
(0,0,c),
(20.635,102.977,o),
(20.635,153.209,o),
(0.633,261,c),
(-168.436,261,o),
(-216.367,261,o),
(-324.633,261,c),
(-326,153.209,o),
(-326,102.977,o),
(-325.266,0,c),
(-217,0.326,o),
(-169.069,0.326,o)
);
},
{
closed = 1;
nodes = (
(326,0,c),
(326.635,102.977,o),
(326.635,153.209,o),
(326.633,261,c),
(217.633,261,o),
(169.702,261,o),
(1.367,261,c),
(-20,153.209,o),
(-20,102.977,o),
(0.734,0,c),
(169.069,0.326,o),
(217,0.326,o)
);
},
{
closed = 1;
nodes = (
(135.097,376.256,c),
(135.622,476.157,o),
(135.622,524.889,o),
(135.097,622.67,c),
(19.791,622.354,o),
(-19.77,622.354,o),
(-134.45,622.67,c),
(-135.056,524.889,o),
(-135.056,476.157,o),
(-134.45,376.256,c),
(-19.77,376.256,o),
(19.791,376.256,o)
);
}
);
}
);
unicode = 64438;
},
{
glyphname = "symbolthreedotspointingdownwardsbelowmod-arab";
layers = (
{
associatedMasterId = m004;
attr = {
coordinates = (
100,
3
);
};
layerId = m000;
name = "Thin Dots3";
shapes = (
{
closed = 1;
nodes = (
(-161,-136.191,c),
(-138.373,-113.564,o),
(-93.891,-69.082,o),
(-71.905,-47.095,c),
(-96.332,-22.667,o),
(-140.815,21.815,o),
(-161,42,c),
(-182.989,20.006,o),
(-227.471,-24.466,o),
(-250.095,-47.095,c),
(-227.789,-69.402,o),
(-183.307,-113.884,o)
);
},
{
closed = 1;
nodes = (
(161,-136.191,c),
(183.627,-113.564,o),
(228.109,-69.082,o),
(250.095,-47.095,c),
(225.668,-22.667,o),
(181.185,21.815,o),
(161,42,c),
(139.011,20.006,o),
(94.529,-24.466,o),
(71.905,-47.095,c),
(94.211,-69.402,o),
(138.693,-113.884,o)
);
},
{
closed = 1;
nodes = (
(0,-418.191,c),
(22.627,-395.564,o),
(67.109,-351.082,o),
(89.095,-329.095,c),
(64.668,-304.667,o),
(20.185,-260.185,o),
(0,-240,c),
(-21.989,-261.994,o),
(-66.471,-306.466,o),
(-89.095,-329.095,c),
(-66.789,-351.402,o),
(-22.307,-395.884,o)
);
}
);
},
{
associatedMasterId = m004;
attr = {
coordinates = (
100,
2
);
};
layerId = m001;
name = "Thin Dots2";
shapes = (
{
closed = 1;
nodes = (
(10.115,-85,c),
(10.628,-34.594,o),
(10.628,-29.761,o),
(10.115,0,c),
(-97.671,-0.096,o),
(-136.349,-0.096,o),
(-254.056,0,c),
(-254.648,-29.761,o),
(-254.648,-34.594,o),
(-254.056,-85,c),
(-136.349,-85,o),
(-97.671,-85,o)
);
},
{
closed = 1;
nodes = (
(254.115,-85,c),
(254.628,-34.594,o),
(254.628,-29.761,o),
(254.115,0,c),
(136.329,-0.096,o),
(97.651,-0.096,o),
(-10.056,0,c),
(-10.648,-29.761,o),
(-10.648,-34.594,o),
(-10.056,-85,c),
(97.651,-85,o),
(136.329,-85,o)
);
},
{
closed = 1;
nodes = (
(65.73,-393.13,c),
(65.995,-352.13,o),
(65.995,-332.13,o),
(65.73,-292,c),
(9.995,-292.13,o),
(-10.005,-292.13,o),
(-65.699,-292,c),
(-66.005,-332.13,o),
(-66.005,-352.13,o),
(-65.699,-393.13,c),
(-10.005,-393.13,o),
(9.995,-393.13,o)
);
}
);
},
{
associatedMasterId = m004;
attr = {
coordinates = (
800,
3
);
};
layerId = m002;
name = "ExtraBold Dots3";
shapes = (
{
closed = 1;
nodes = (
(-180,-313,c),
(-131.746,-264.746,o),
(-36.887,-169.887,o),
(10,-123,c),
(-42.093,-70.906,o),
(-136.954,23.954,o),
(-180,67,c),
(-226.892,20.097,o),
(-321.751,-74.741,o),
(-370,-123,c),
(-322.43,-170.57,o),
(-227.57,-265.43,o)
);
},
{
closed = 1;
nodes = (
(180,-313,c),
(228.254,-264.746,o),
(323.113,-169.887,o),
(370,-123,c),
(317.907,-70.906,o),
(223.046,23.954,o),
(180,67,c),
(133.108,20.097,o),
(38.249,-74.741,o),
(-10,-123,c),
(37.57,-170.57,o),
(132.43,-265.43,o)
);
},
{
closed = 1;
nodes = (
(0,-627,c),
(44.444,-582.556,o),
(131.815,-495.185,o),
(175,-452,c),
(127.019,-404.018,o),
(39.648,-316.648,o),
(0,-277,c),
(-43.19,-320.2,o),
(-130.56,-407.551,o),
(-175,-452,c),
(-131.185,-495.815,o),
(-43.815,-583.185,o)
);
}
);
},
{
associatedMasterId = m004;
attr = {
coordinates = (
800,
2
);
};
layerId = m003;
name = "ExtraBold Dots2";
shapes = (
{
closed = 1;
nodes = (
(0.633,-261,c),
(20.635,-153.209,o),
(20.635,-102.977,o),
(0,0,c),
(-169.069,-0.326,o),
(-217,-0.326,o),
(-325.266,0,c),
(-326,-102.977,o),
(-326,-153.209,o),
(-324.633,-261,c),
(-216.367,-261,o),
(-168.436,-261,o)
);
},
{
closed = 1;
nodes = (
(326.633,-261,c),
(326.635,-153.209,o),
(326.635,-102.977,o),
(326,0,c),
(216.734,-0.326,o),
(168.803,-0.326,o),
(0.734,0,c),
(-20,-102.977,o),
(-20,-153.209,o),
(1.367,-261,c),
(169.436,-261,o),
(217.367,-261,o)
);
},
{
closed = 1;
nodes = (
(134.9,-622,c),
(135.423,-524.384,o),
(135.423,-475.733,o),
(134.9,-376,c),
(19.763,-376,o),
(-19.743,-376,o),
(-134.254,-376,c),
(-134.859,-475.733,o),
(-134.859,-524.384,o),
(-134.254,-622,c),
(-19.743,-621.684,o),
(19.763,-621.684,o)
);
}
);
},
{
layerId = m004;
shapes = (
{
closed = 1;
nodes = (
(-86.268,-101.565,c),
(-86.003,-60.565,o),
(-86.003,-40.565,o),
(-86.268,-0.435,c),
(-142.003,-0.565,o),
(-162.003,-0.565,o),
(-217.696,-0.435,c),
(-218.003,-40.565,o),
(-218.003,-60.565,o),
(-217.696,-101.565,c),
(-162.003,-101.565,o),
(-142.003,-101.565,o)
);
},
{
closed = 1;
nodes = (
(217.727,-101.13,c),
(217.992,-60.13,o),
(217.992,-40.13,o),
(217.727,0,c),
(161.992,-0.13,o),
(141.992,-0.13,o),
(86.299,0,c),
(85.992,-40.13,o),
(85.992,-60.13,o),
(86.299,-101.13,c),
(141.992,-101.13,o),
(161.992,-101.13,o)
);
},
{
closed = 1;
nodes = (
(65.73,-393.13,c),
(65.995,-352.13,o),
(65.995,-332.13,o),
(65.73,-292,c),
(9.995,-292.13,o),
(-10.005,-292.13,o),
(-65.699,-292,c),
(-66.005,-332.13,o),
(-66.005,-352.13,o),
(-65.699,-393.13,c),
(-10.005,-393.13,o),
(9.995,-393.13,o)
);
}
);
},
{
associatedMasterId = m004;
attr = {
coordinates = (
800,
1
);
};
layerId = m005;
name = ExtraBold;
shapes = (
{
closed = 1;
nodes = (
(-51.283,-271.316,c),
(-50.728,-148.527,o),
(-50.728,-99.933,o),
(-51.253,-0.316,c),
(-157.002,-0.316,o),
(-196.574,-0.316,o),
(-325.405,-0.316,c),
(-326.011,-99.933,o),
(-326.011,-148.527,o),
(-325.435,-271.316,c),
(-196.605,-271,o),
(-157.033,-271,o)
);
},
{
closed = 1;
nodes = (
(325.413,-271.316,c),
(325.968,-148.527,o),
(325.968,-99.933,o),
(325.444,-0.316,c),
(196.541,-0.316,o),
(156.972,-0.316,o),
(51.292,-0.316,c),
(50.686,-99.933,o),
(50.686,-148.527,o),
(51.261,-271.316,c),
(156.942,-271,o),
(196.511,-271,o)
);
},
{
closed = 1;
nodes = (
(134.9,-622,c),
(135.423,-524.384,o),
(135.423,-475.733,o),
(134.9,-376,c),
(19.763,-376,o),
(-19.743,-376,o),
(-134.254,-376,c),
(-134.859,-475.733,o),
(-134.859,-524.384,o),
(-134.254,-622,c),
(-19.743,-621.684,o),
(19.763,-621.684,o)
);
}
);
},
{
associatedMasterId = m004;
attr = {
coordinates = (
1000,
1
);
};
layerId = m006;
name = ExtraBlack;
shapes = (
{
closed = 1;
nodes = (
(0,-362,c),
(32.134,-221.418,o),
(32.134,-145.243,o),
(0,0,c),
(-210,0,o),
(-263,0,o),
(-366,0,c),
(-366,-145,o),
(-366,-221,o),
(-366,-362,c),
(-262,-362,o),
(-209,-362,o)
);
},
{
closed = 1;
nodes = (
(366,-362,c),
(366,-221,o),
(366,-145,o),
(366,0,c),
(263,0,o),
(210,0,o),
(0,0,c),
(-32,-145.243,o),
(-32,-221.418,o),
(0,-362,c),
(211,-362,o),
(264,-362,o)
);
},
{
closed = 1;
nodes = (
(174.425,-752.783,c),
(175.097,-622.814,o),
(175.097,-557.792,o),
(174.425,-424,c),
(25.345,-423.926,o),
(-25.307,-423.926,o),
(-173.428,-424,c),
(-174.204,-557.792,o),
(-174.204,-622.814,o),
(-173.428,-752.783,c),
(-25.307,-752.287,o),
(25.345,-752.287,o)
);
}
);
},
{
associatedMasterId = m004;
attr = {
coordinates = (
1000,
3
);
};
layerId = m008;
name = "ExtraBlack Dots3";
shapes = (
{
closed = 1;
nodes = (
(-190.857,-414.034,c),
(-127.959,-351.136,o),
(-4.313,-227.489,o),
(56.803,-166.374,c),
(-11.1,-98.47,o),
(-134.748,25.176,o),
(-190.857,81.286,c),
(-251.98,20.149,o),
(-375.626,-103.469,o),
(-438.517,-166.374,c),
(-376.51,-228.381,o),
(-252.864,-352.027,o)
);
},
{
closed = 1;
nodes = (
(190.857,-414.034,c),
(253.755,-351.136,o),
(377.402,-227.489,o),
(438.517,-166.374,c),
(370.615,-98.47,o),
(246.967,25.176,o),
(190.857,81.286,c),
(129.735,20.149,o),
(6.088,-103.469,o),
(-56.803,-166.374,c),
(5.204,-228.381,o),
(128.851,-352.027,o)
);
},
{
closed = 1;
nodes = (
(0,-746.319,c),
(56.911,-689.408,o),
(168.79,-577.53,o),
(224.088,-522.231,c),
(162.649,-460.79,o),
(50.769,-348.912,o),
(0,-298.143,c),
(-55.305,-353.46,o),
(-167.183,-465.314,o),
(-224.088,-522.231,c),
(-167.983,-578.336,o),
(-56.105,-690.214,o)
);
}
);
},
{
associatedMasterId = m004;
attr = {
coordinates = (
1000,
2
);
};
layerId = m007;
name = "ExtraBlack Dots2";
shapes = (
{
closed = 1;
nodes = (
(174.425,-752.783,c),
(175.097,-622.814,o),
(175.097,-557.792,o),
(174.425,-424,c),
(25.345,-423.926,o),
(-25.307,-423.926,o),
(-173.428,-424,c),
(-174.204,-557.792,o),
(-174.204,-622.814,o),
(-173.428,-752.783,c),
(-25.307,-752.287,o),
(25.345,-752.287,o)
);
},
{
closed = 1;
nodes = (
(0,-362,c),
(32.134,-221.418,o),
(32.134,-145.243,o),
(0,0,c),
(-210,0,o),
(-263,0,o),
(-366,0,c),
(-366,-145,o),
(-366,-221,o),
(-366,-362,c),
(-262,-362,o),
(-209,-362,o)
);
},
{
closed = 1;
nodes = (
(366,-362,c),
(366,-221,o),
(366,-145,o),
(366,0,c),
(263,0,o),
(210,0,o),
(0,0,c),
(-32,-145.243,o),
(-32,-221.418,o),
(0,-362,c),
(211,-362,o),
(264,-362,o)
);
}
);
},
{
associatedMasterId = m004;
attr = {
coordinates = (
801,
1
);
};
layerId = m009;
name = "801";
shapes = (
{
closed = 1;
nodes = (
(0.633,-261,c),
(20.635,-153.209,o),
(20.635,-102.977,o),
(0,0,c),
(-169.069,-0.326,o),
(-217,-0.326,o),
(-325.266,0,c),
(-326,-102.977,o),
(-326,-153.209,o),
(-324.633,-261,c),
(-216.367,-261,o),
(-168.436,-261,o)
);
},
{
closed = 1;
nodes = (
(326.633,-261,c),
(326.635,-153.209,o),
(326.635,-102.977,o),
(326,0,c),
(216.734,-0.326,o),
(168.803,-0.326,o),
(0.734,0,c),
(-20,-102.977,o),
(-20,-153.209,o),
(1.367,-261,c),
(169.436,-261,o),
(217.367,-261,o)
);
},
{
closed = 1;
nodes = (
(135.097,-622.654,c),
(135.622,-524.876,o),
(135.622,-476.144,o),
(135.097,-376.24,c),
(19.791,-376.24,o),
(-19.77,-376.24,o),
(-134.45,-376.24,c),
(-135.056,-476.144,o),
(-135.056,-524.876,o),
(-134.45,-622.654,c),
(-19.77,-622.337,o),
(19.791,-622.337,o)
);
}
);
}
);
unicode = 64441;
},
{
glyphname = uniE000;
layers = (
{
associatedMasterId = m004;
attr = {
coordinates = (
100,
3
);
};
layerId = m000;
name = "Thin Dots3";
shapes = (
{
closed = 1;
nodes = (
(-124.395,-122.789,c),
(-108.395,-95.076,o),
(-76.941,-40.597,o),
(-61.395,-13.67,c),
(-91.313,3.604,o),
(-145.792,35.057,o),
(-170.514,49.33,c),
(-186.061,22.395,o),
(-217.517,-32.074,o),
(-233.514,-59.789,c),
(-206.194,-75.562,o),
(-151.715,-107.016,o)
);
},
{
closed = 1;
nodes = (
(175.633,-45.449,c),
(191.633,-17.737,o),
(223.087,36.742,o),
(238.633,63.67,c),
(208.715,80.943,o),
(154.236,112.397,o),
(129.514,126.67,c),
(113.967,99.734,o),
(82.511,45.265,o),
(66.514,17.551,c),
(93.834,1.777,o),
(148.313,-29.676,o)
);
},
{
closed = 1;
nodes = (
(80.106,-294.51,c),
(96.106,-266.797,o),
(127.56,-212.319,o),
(143.106,-185.391,c),
(113.188,-168.118,o),
(58.709,-136.664,o),
(33.987,-122.391,c),
(18.44,-149.327,o),
(-13.016,-203.796,o),
(-29.013,-231.51,c),
(-1.693,-247.284,o),
(52.786,-278.737,o)
);
}
);
},
{
associatedMasterId = m004;
attr = {
coordinates = (
100,
2
);
};
layerId = m001;
name = "Thin Dots2";
shapes = (
{
closed = 1;
nodes = (
(10.115,-85,c),
(10.628,-34.594,o),
(10.628,-29.761,o),
(10.115,0,c),
(-97.671,-0.096,o),
(-136.349,-0.096,o),
(-254.056,0,c),
(-254.648,-29.761,o),
(-254.648,-34.594,o),
(-254.056,-85,c),
(-136.349,-85,o),
(-97.671,-85,o)
);
},
{
closed = 1;
nodes = (
(254.115,-85,c),
(254.628,-34.594,o),
(254.628,-29.761,o),
(254.115,0,c),
(136.329,-0.096,o),
(97.651,-0.096,o),
(-10.056,0,c),
(-10.648,-29.761,o),
(-10.648,-34.594,o),
(-10.056,-85,c),
(97.651,-85,o),
(136.329,-85,o)
);
},
{
closed = 1;
nodes = (
(65.73,-313.13,c),
(65.995,-272.13,o),
(65.995,-252.13,o),
(65.73,-212,c),
(9.995,-212.13,o),
(-10.005,-212.13,o),
(-65.699,-212,c),
(-66.005,-252.13,o),
(-66.005,-272.13,o),
(-65.699,-313.13,c),
(-10.005,-313.13,o),
(9.995,-313.13,o)
);
}
);
},
{
associatedMasterId = m004;
attr = {
coordinates = (
800,
3
);
};
layerId = m002;
name = "ExtraBold Dots3";
shapes = (
{
closed = 1;
nodes = (
(-130.116,-263.587,c),
(-104.738,-219.632,o),
(-54.85,-133.222,o),
(-30.191,-90.512,c),
(-77.644,-63.115,o),
(-164.054,-13.226,o),
(-203.266,9.413,c),
(-227.926,-33.31,o),
(-277.818,-119.704,o),
(-303.191,-163.662,c),
(-259.858,-188.681,o),
(-173.449,-238.569,o)
);
},
{
closed = 1;
nodes = (
(159.884,-185.587,c),
(185.262,-141.632,o),
(235.15,-55.222,o),
(259.809,-12.512,c),
(212.356,14.885,o),
(125.946,64.774,o),
(86.734,87.413,c),
(62.074,44.69,o),
(12.182,-41.704,o),
(-13.191,-85.662,c),
(30.142,-110.681,o),
(116.551,-160.569,o)
);
},
{
closed = 1;
nodes = (
(60.597,-382.587,c),
(83,-343.784,o),
(127.041,-267.503,o),
(148.809,-229.8,c),
(106.918,-205.613,o),
(30.637,-161.573,o),
(-3.979,-141.587,c),
(-25.748,-179.302,o),
(-69.792,-255.57,o),
(-92.191,-294.375,c),
(-53.937,-316.461,o),
(22.343,-360.502,o)
);
}
);
},
{
associatedMasterId = m004;
attr = {
coordinates = (
800,
2
);
};
layerId = m003;
name = "ExtraBold Dots2";
shapes = (
{
closed = 1;
nodes = (
(3.698,-156,c),
(4.101,-96.161,o),
(4.101,-61.354,o),
(3.698,0,c),
(-110.84,0,o),
(-141.176,0,o),
(-225.652,0,c),
(-226.116,-61.354,o),
(-226.116,-96.161,o),
(-225.652,-156,c),
(-141.176,-155.774,o),
(-110.84,-155.774,o)
);
},
{
closed = 1;
nodes = (
(225.698,-156,c),
(226.101,-96.161,o),
(226.101,-61.354,o),
(225.698,0,c),
(141.16,0,o),
(110.824,0,o),
(-3.652,0,c),
(-4.116,-61.354,o),
(-4.116,-96.161,o),
(-3.652,-156,c),
(110.824,-155.774,o),
(141.16,-155.774,o)
);
},
{
closed = 1;
nodes = (
(99.698,-374,c),
(100.101,-311.303,o),
(100.101,-280.056,o),
(99.698,-216,c),
(15.16,-216,o),
(-15.176,-216,o),
(-99.652,-216,c),
(-100.116,-280.056,o),
(-100.116,-311.303,o),
(-99.652,-374,c),
(-15.176,-373.797,o),
(15.16,-373.797,o)
);
}
);
},
{
layerId = m004;
shapes = (
{
closed = 1;
nodes = (
(-86.268,-101.565,c),
(-86.003,-60.565,o),
(-86.003,-40.565,o),
(-86.268,-0.435,c),
(-142.003,-0.565,o),
(-162.003,-0.565,o),
(-217.696,-0.435,c),
(-218.003,-40.565,o),
(-218.003,-60.565,o),
(-217.696,-101.565,c),
(-162.003,-101.565,o),
(-142.003,-101.565,o)
);
},
{
closed = 1;
nodes = (
(217.727,-101.13,c),
(217.992,-60.13,o),
(217.992,-40.13,o),
(217.727,0,c),
(161.992,-0.13,o),
(141.992,-0.13,o),
(86.299,0,c),
(85.992,-40.13,o),
(85.992,-60.13,o),
(86.299,-101.13,c),
(141.992,-101.13,o),
(161.992,-101.13,o)
);
},
{
closed = 1;
nodes = (
(65.73,-313.13,c),
(65.995,-272.13,o),
(65.995,-252.13,o),
(65.73,-212,c),
(9.995,-212.13,o),
(-10.005,-212.13,o),
(-65.699,-212,c),
(-66.005,-252.13,o),
(-66.005,-272.13,o),
(-65.699,-313.13,c),
(-10.005,-313.13,o),
(9.995,-313.13,o)
);
}
);
},
{
associatedMasterId = m004;
attr = {
coordinates = (
800,
1
);
};
layerId = m005;
name = ExtraBold;
shapes = (
{
closed = 1;
nodes = (
(-26.302,-176,c),
(-25.899,-106.161,o),
(-25.899,-71.354,o),
(-26.302,0,c),
(-110.84,0,o),
(-141.176,0,o),
(-225.652,0,c),
(-226.116,-71.354,o),
(-226.116,-106.161,o),
(-225.652,-176,c),
(-141.176,-175.774,o),
(-110.84,-175.774,o)
);
},
{
closed = 1;
nodes = (
(225.698,-176,c),
(226.101,-106.161,o),
(226.101,-71.354,o),
(225.698,0,c),
(141.16,0,o),
(110.824,0,o),
(26.348,0,c),
(25.884,-71.354,o),
(25.884,-106.161,o),
(26.348,-176,c),
(110.824,-175.774,o),
(141.16,-175.774,o)
);
},
{
closed = 1;
nodes = (
(99.698,-374,c),
(100.101,-311.303,o),
(100.101,-280.056,o),
(99.698,-216,c),
(15.16,-216,o),
(-15.176,-216,o),
(-99.652,-216,c),
(-100.116,-280.056,o),
(-100.116,-311.303,o),
(-99.652,-374,c),
(-15.176,-373.797,o),
(15.16,-373.797,o)
);
}
);
},
{
associatedMasterId = m004;
attr = {
coordinates = (
1000,
1
);
};
layerId = m006;
name = ExtraBlack;
shapes = (
{
closed = 1;
nodes = (
(0.031,-196.571,c),
(0.37,-131.342,o),
(0.37,-79.407,o),
(0.031,0,c),
(-118.365,0.055,o),
(-143.934,0.055,o),
(-209.421,0,c),
(-209.812,-79.407,o),
(-209.812,-131.342,o),
(-209.421,-196.571,c),
(-143.934,-196.216,o),
(-118.365,-196.216,o)
);
},
{
closed = 1;
nodes = (
(209.46,-196.571,c),
(209.799,-131.342,o),
(209.799,-79.407,o),
(209.46,0,c),
(143.921,0.055,o),
(118.352,0.055,o),
(0.008,0,c),
(-0.384,-79.407,o),
(-0.384,-131.342,o),
(0.008,-196.571,c),
(118.352,-196.216,o),
(143.921,-196.216,o)
);
},
{
closed = 1;
nodes = (
(119.109,-408.783,c),
(119.59,-333.688,o),
(119.59,-296.014,o),
(119.109,-218.286,c),
(18.112,-218.212,o),
(-18.13,-218.212,o),
(-119.053,-218.286,c),
(-119.608,-296.014,o),
(-119.608,-333.688,o),
(-119.053,-408.783,c),
(-18.13,-408.464,o),
(18.112,-408.464,o)
);
}
);
},
{
associatedMasterId = m004;
attr = {
coordinates = (
1000,
3
);
};
layerId = m008;
name = "ExtraBlack Dots3";
shapes = (
{
closed = 1;
nodes = (
(-140.84,-288.397,c),
(-115.277,-244.12,o),
(-65.023,-157.077,o),
(-40.183,-114.054,c),
(-87.984,-86.456,o),
(-175.027,-36.202,o),
(-214.526,-13.397,c),
(-239.366,-56.433,o),
(-289.625,-143.46,o),
(-315.183,-187.74,c),
(-271.533,-212.942,o),
(-184.491,-263.196,o)
);
},
{
closed = 1;
nodes = (
(143.429,-210.02,c),
(168.993,-165.743,o),
(219.247,-78.7,o),
(244.086,-35.677,c),
(196.286,-8.079,o),
(109.242,42.175,o),
(69.743,64.98,c),
(44.903,21.944,o),
(-5.355,-65.083,o),
(-30.914,-109.363,c),
(12.737,-134.565,o),
(99.779,-184.819,o)
);
},
{
closed = 1;
nodes = (
(48.73,-427.557,c),
(74.294,-383.279,o),
(124.548,-296.237,o),
(149.387,-253.214,c),
(101.587,-225.615,o),
(14.543,-175.362,o),
(-24.956,-152.557,c),
(-49.796,-195.592,o),
(-100.054,-282.619,o),
(-125.613,-326.9,c),
(-81.962,-352.101,o),
(5.08,-402.355,o)
);
}
);
},
{
associatedMasterId = m004;
attr = {
coordinates = (
1000,
2
);
};
layerId = m007;
name = "ExtraBlack Dots2";
shapes = (
{
closed = 1;
nodes = (
(0.031,-196.571,c),
(0.37,-131.342,o),
(0.37,-79.407,o),
(0.031,0,c),
(-118.365,0.055,o),
(-143.934,0.055,o),
(-209.421,0,c),
(-209.812,-79.407,o),
(-209.812,-131.342,o),
(-209.421,-196.571,c),
(-143.934,-196.216,o),
(-118.365,-196.216,o)
);
},
{
closed = 1;
nodes = (
(209.46,-196.571,c),
(209.799,-131.342,o),
(209.799,-79.407,o),
(209.46,0,c),
(143.921,0.055,o),
(118.352,0.055,o),
(0.008,0,c),
(-0.384,-79.407,o),
(-0.384,-131.342,o),
(0.008,-196.571,c),
(118.352,-196.216,o),
(143.921,-196.216,o)
);
},
{
closed = 1;
nodes = (
(119.109,-408.783,c),
(119.59,-333.688,o),
(119.59,-296.014,o),
(119.109,-218.286,c),
(18.112,-218.212,o),
(-18.13,-218.212,o),
(-119.053,-218.286,c),
(-119.608,-296.014,o),
(-119.608,-333.688,o),
(-119.053,-408.783,c),
(-18.13,-408.464,o),
(18.112,-408.464,o)
);
}
);
},
{
associatedMasterId = m004;
attr = {
coordinates = (
801,
1
);
};
layerId = m009;
name = "801";
shapes = (
{
closed = 1;
nodes = (
(3.698,-156,c),
(4.101,-96.161,o),
(4.101,-61.354,o),
(3.698,0,c),
(-110.84,0,o),
(-141.176,0,o),
(-225.652,0,c),
(-226.116,-61.354,o),
(-226.116,-96.161,o),
(-225.652,-156,c),
(-141.176,-155.774,o),
(-110.84,-155.774,o)
);
},
{
closed = 1;
nodes = (
(225.698,-156,c),
(226.101,-96.161,o),
(226.101,-61.354,o),
(225.698,0,c),
(141.16,0,o),
(110.824,0,o),
(-3.652,0,c),
(-4.116,-61.354,o),
(-4.116,-96.161,o),
(-3.652,-156,c),
(110.824,-155.774,o),
(141.16,-155.774,o)
);
},
{
closed = 1;
nodes = (
(99.698,-374,c),
(100.101,-311.303,o),
(100.101,-280.056,o),
(99.698,-216,c),
(15.16,-216,o),
(-15.176,-216,o),
(-99.652,-216,c),
(-100.116,-280.056,o),
(-100.116,-311.303,o),
(-99.652,-374,c),
(-15.176,-373.797,o),
(15.16,-373.797,o)
);
}
);
}
);
unicode = 57344;
},
{
glyphname = "hamza-arab";
layers = (
{
anchors = (
{
name = "top-arab";
pos = (560,752);
},
{
name = "bottom-arab";
pos = (0,0);
}
);
layerId = m004;
shapes = (
{
closed = 1;
nodes = (
(215,41.641,l),
(234.948,-10.784,l),
(908.699,247.634,l),
(888.752,300.059,l),
(562.346,175.366,l),
(404.876,173.216,o),
(311.386,303.641,o),
(311.386,437.954,cs),
(311.386,570.399,o),
(405.614,714.516,o),
(559.144,715.693,cs),
(666.941,716.869,o),
(738.549,670.719,o),
(776.052,641.477,c),
(789.784,701.987,l),
(761.327,723.314,o),
(681.02,772.163,o),
(560.255,772.163,cs),
(372.268,772.163,o),
(254.915,598.895,o),
(254.915,437.954,cs),
(254.915,303.765,o),
(333.712,174.922,o),
(467.333,138.092,c)
);
}
);
width = 1063;
},
{
anchors = (
{
name = "top-arab";
pos = (567,984);
},
{
name = "bottom-arab";
pos = (500,0);
}
);
associatedMasterId = m004;
attr = {
coordinates = (
800,
1
);
};
layerId = m005;
name = ExtraBold;
shapes = (
{
closed = 1;
nodes = (
(120.588,246.608,l),
(223.804,-21.765,l),
(978.078,270.51,l),
(874.863,538.882,l),
(598.784,432.49,l),
(490.725,442.235,o),
(460.373,508.608,o),
(460.373,563.314,cs),
(460.373,617.98,o),
(487.804,679.745,o),
(550.745,697.392,cs),
(613.706,715.039,o),
(679.824,680.784,o),
(738.373,634.157,c),
(846.353,897.804,l),
(811.49,923.706,o),
(712.882,984.451,o),
(567.412,984.451,cs),
(323.608,984.451,o),
(173.314,765.431,o),
(173.314,563.314,cs),
(173.314,468.471,o),
(207.275,369.824,o),
(279.588,307.373,c)
);
}
);
width = 1097;
},
{
anchors = (
{
name = "top-arab";
pos = (571,1117);
},
{
name = "bottom-arab";
pos = (786,0);
}
);
associatedMasterId = m004;
attr = {
coordinates = (
1000,
1
);
};
layerId = m006;
name = ExtraBlack;
shapes = (
{
closed = 1;
nodes = (
(66.639,363.732,l),
(217.436,-28.039,l),
(1017.724,283.582,l),
(866.926,675.353,l),
(619.606,579.418,l),
(539.782,575.961,o),
(525.508,615.732,o),
(525.508,634.948,cs),
(525.508,655.17,o),
(526.769,672.876,o),
(545.946,686.935,cs),
(583.286,713.993,o),
(646.266,696.536,o),
(716.841,659.974,c),
(878.678,1009.699,l),
(840.155,1038.216,o),
(731.09,1105.758,o),
(571.501,1105.758,cs),
(295.802,1105.758,o),
(126.684,860.595,o),
(126.684,634.948,cs),
(126.684,562.588,o),
(135.024,481.196,o),
(172.305,404.105,c)
);
}
);
width = 1116;
}
);
unicode = (1569,65152);
},
{
glyphname = uni0627_alt.short;
layers = (
{
anchors = (
{
name = "top-arab";
pos = (250,1279);
},
{
name = "bottom-arab";
pos = (250,0);
}
);
layerId = m004;
shapes = (
{
closed = 1;
nodes = (
(221,1279,l),
(221.281,0,l),
(279.843,0,l),
(279.562,1279,l)
);
}
);
width = 501;
},
{
anchors = (
{
name = "top-arab";
pos = (315,1364);
},
{
name = "bottom-arab";
pos = (315,0);
}
);
associatedMasterId = m004;
attr = {
coordinates = (
800,
1
);
};
layerId = m005;
name = ExtraBold;
shapes = (
{
closed = 1;
nodes = (
(156,1364,l),
(156.216,0,l),
(474.647,0,l),
(474.431,1364,l)
);
}
);
width = 631;
},
{
anchors = (
{
name = "top-arab";
pos = (352,1413);
},
{
name = "bottom-arab";
pos = (352,0);
}
);
associatedMasterId = m004;
attr = {
coordinates = (
1000,
1
);
};
layerId = m006;
name = ExtraBlack;
shapes = (
{
closed = 1;
nodes = (
(118.857,1412.571,l),
(119.035,0,l),
(585.964,0,l),
(585.785,1412.571,l)
);
}
);
width = 705;
}
);
},
{
glyphname = "alef-arab.fina.short";
layers = (
{
anchors = (
{
name = "top-arab";
pos = (250,1279);
},
{
name = "bottom-arab";
pos = (250,0);
}
);
layerId = m004;
shapes = (
{
closed = 1;
nodes = (
(621.739,0,l),
(621.739,60,l),
(547.948,60,l),
(399.157,60,o),
(279.843,179.967,o),
(279.843,328.758,cs),
(279.562,1279,l),
(221,1279,l),
(221.281,325.948,l),
(221.281,146.268,o),
(364.739,0,o),
(547.948,0,cs)
);
}
);
width = 622;
},
{
anchors = (
{
name = "top-arab";
pos = (315,1364);
},
{
name = "bottom-arab";
pos = (315,0);
}
);
associatedMasterId = m004;
attr = {
coordinates = (
800,
1
);
};
layerId = m005;
name = ExtraBold;
shapes = (
{
closed = 1;
nodes = (
(663.078,0,l),
(663.078,340,l),
(586.216,340,l),
(524.353,340,o),
(474.647,389.51,o),
(474.647,451.373,cs),
(474.216,1364,l),
(155.784,1364,l),
(156.216,409.216,l),
(156.216,192.02,o),
(316.078,0,o),
(586.216,0,cs)
);
}
);
width = 663;
},
{
anchors = (
{
name = "top-arab";
pos = (352,1413);
},
{
name = "bottom-arab";
pos = (352,0);
}
);
associatedMasterId = m004;
attr = {
coordinates = (
1000,
1
);
};
layerId = m006;
name = ExtraBlack;
shapes = (
{
closed = 1;
nodes = (
(686.701,0,l),
(686.701,500,l),
(608.083,500,l),
(595.894,500,o),
(585.964,509.248,o),
(585.964,521.438,cs),
(585.446,1412.571,l),
(118.518,1412.571,l),
(119.035,456.797,l),
(119.035,218.163,o),
(288.273,0,o),
(608.083,0,cs)
);
}
);
width = 686;
}
);
},
{
glyphname = "alef-arab";
layers = (
{
anchors = (
{
name = "top-arab";
pos = (250,1483);
},
{
name = "bottom-arab";
pos = (250,0);
}
);
layerId = m004;
shapes = (
{
closed = 1;
nodes = (
(221,1483,l),
(221.281,0,l),
(279.843,0,l),
(279.562,1483,l)
);
}
);
width = 501;
},
{
anchors = (
{
name = "top-arab";
pos = (315,1524);
},
{
name = "bottom-arab";
pos = (315,0);
}
);
associatedMasterId = m004;
attr = {
coordinates = (
800,
1
);
};
layerId = m005;
name = ExtraBold;
shapes = (
{
closed = 1;
nodes = (
(156,1524,l),
(156.216,0,l),
(474.647,0,l),
(474.431,1524,l)
);
}
);
width = 631;
},
{
anchors = (
{
name = "top-arab";
pos = (352,1547);
},
{
name = "bottom-arab";
pos = (352,0);
}
);
associatedMasterId = m004;
attr = {
coordinates = (
1000,
1
);
};
layerId = m006;
name = ExtraBlack;
shapes = (
{
closed = 1;
nodes = (
(118.857,1547.429,l),
(119.035,0,l),
(585.964,0,l),
(585.785,1547.429,l)
);
}
);
width = 705;
}
);
unicode = (1575,65165);
},
{
glyphname = "alef-arab.fina";
layers = (
{
anchors = (
{
name = "top-arab";
pos = (250,1483);
},
{
name = "bottom-arab";
pos = (250,0);
}
);
layerId = m004;
shapes = (
{
closed = 1;
nodes = (
(621.739,0,l),
(621.739,60,l),
(547.948,60,l),
(399.157,60,o),
(279.843,179.967,o),
(279.843,328.758,cs),
(279.562,1483,l),
(221,1483,l),
(221.281,325.948,l),
(221.281,146.268,o),
(364.739,0,o),
(547.948,0,cs)
);
}
);
width = 622;
},
{
anchors = (
{
name = "top-arab";
pos = (315,1524);
},
{
name = "bottom-arab";
pos = (315,0);
}
);
associatedMasterId = m004;
attr = {
coordinates = (
800,
1
);
};
layerId = m005;
name = ExtraBold;
shapes = (
{
closed = 1;
nodes = (
(663.078,0,l),
(663.078,340,l),
(586.216,340,l),
(524.353,340,o),
(474.647,389.51,o),
(474.647,451.373,cs),
(474.431,1524,l),
(156,1524,l),
(156.216,409.216,l),
(156.216,192.02,o),
(316.078,0,o),
(586.216,0,cs)
);
}
);
width = 663;
},
{
anchors = (
{
name = "top-arab";
pos = (352,1547);
},
{
name = "bottom-arab";
pos = (352,0);
}
);
associatedMasterId = m004;
attr = {
coordinates = (
1000,
1
);
};
layerId = m006;
name = ExtraBlack;
shapes = (
{
closed = 1;
nodes = (
(686.701,0,l),
(686.701,500,l),
(608.083,500,l),
(595.894,500,o),
(585.964,509.248,o),
(585.964,521.438,cs),
(585.785,1547.429,l),
(118.857,1547.429,l),
(119.035,456.797,l),
(119.035,218.163,o),
(288.273,0,o),
(608.083,0,cs)
);
}
);
width = 686;
}
);
unicode = 65166;
},
{
glyphname = arabictatweelmod;
layers = (
{
anchors = (
{
name = "top-arab";
pos = (200,252);
},
{
name = "bottom-arab";
pos = (200,0);
}
);
layerId = m004;
shapes = (
{
closed = 1;
nodes = (
(0.294,60,l),
(-80.098,54.314,o),
(-80.098,5.621,o),
(0.294,0,c),
(400,0,l),
(400,60,l)
);
}
);
width = 400;
},
{
anchors = (
{
name = "top-arab";
pos = (200,416);
},
{
name = "bottom-arab";
pos = (200,0);
}
);
associatedMasterId = m004;
attr = {
coordinates = (
800,
1
);
};
layerId = m005;
name = ExtraBold;
shapes = (
{
closed = 1;
nodes = (
(0,340,l),
(-85.882,254.706,o),
(-85.882,84.314,o),
(0,0,c),
(400,0,l),
(400,340,l)
);
}
);
width = 400;
},
{
anchors = (
{
name = "top-arab";
pos = (200,510);
},
{
name = "bottom-arab";
pos = (200,0);
}
);
associatedMasterId = m004;
attr = {
coordinates = (
1000,
1
);
};
layerId = m006;
name = ExtraBlack;
shapes = (
{
closed = 1;
nodes = (
(-0.168,500,l),
(-89.188,369.216,o),
(-89.188,129.281,o),
(-0.168,0,c),
(400,0,l),
(400,500,l)
);
}
);
width = 400;
}
);
unicode = (1600,57525);
},
{
glyphname = "dotlessbeh-arab.fina";
layers = (
{
anchors = (
{
name = "top-arab";
pos = (928,433);
},
{
name = "bottom-arab";
pos = (928,0);
}
);
layerId = m004;
shapes = (
{
closed = 1;
nodes = (
(508.802,60,l),
(330.076,60,o),
(192.043,230.967,o),
(241.043,431.758,cs),
(291.988,624,l),
(234.481,641.765,l),
(183.481,443.948,l),
(122.481,196.614,o),
(297.749,0,o),
(508.802,0,cs),
(1317.31,0,l),
(1454.265,0,o),
(1568.977,83.712,o),
(1615.349,203.098,c),
(1661.722,83.712,o),
(1776.434,0,o),
(1913.389,0,cs),
(1985.676,0,l),
(1985.676,60,l),
(1913.389,60,l),
(1764.598,60,o),
(1644.631,179.967,o),
(1644.631,328.758,cs),
(1644.774,632,l),
(1586.212,632,l),
(1586.068,328.758,l),
(1586.068,179.967,o),
(1466.036,60,o),
(1317.31,60,cs)
);
}
);
width = 1986;
},
{
anchors = (
{
name = "top-arab";
pos = (948,616);
},
{
name = "bottom-arab";
pos = (948,0);
}
);
associatedMasterId = m004;
attr = {
coordinates = (
800,
1
);
};
layerId = m005;
name = ExtraBold;
shapes = (
{
closed = 1;
nodes = (
(583.168,340,l),
(452.286,340,o),
(425.796,461.51,o),
(454.796,565.373,cs),
(517.011,772.551,l),
(198.039,861.246,l),
(140.563,627.216,l),
(58.563,282.216,o),
(270.583,0,o),
(578.367,0,cs),
(1306.118,0,l),
(1428.431,0,o),
(1511.118,51.686,o),
(1576.706,134.471,c),
(1642.294,51.686,o),
(1724.98,0,o),
(1847.294,0,cs),
(1921.608,0,l),
(1921.608,340,l),
(1847.294,340,l),
(1786.412,340,o),
(1735.922,389.51,o),
(1735.922,451.373,cs),
(1735.216,816,l),
(1416.784,816,l),
(1417.49,451.373,l),
(1417.49,389.51,o),
(1367,340,o),
(1306.118,340,cs)
);
}
);
width = 1922;
},
{
anchors = (
{
name = "top-arab";
pos = (959,721);
},
{
name = "bottom-arab";
pos = (959,0);
}
);
associatedMasterId = m004;
attr = {
coordinates = (
1000,
1
);
};
layerId = m006;
name = ExtraBlack;
shapes = (
{
closed = 1;
nodes = (
(625.663,500,l),
(522.12,500,o),
(559.368,593.248,o),
(576.94,641.724,c),
(645.595,857.437,l),
(177.215,986.664,l),
(116.039,731.94,l),
(22.039,331.131,o),
(255.059,0,o),
(618.119,0,cs),
(1299.722,0,l),
(1413.67,0,o),
(1478.055,33.386,o),
(1554.624,95.255,c),
(1631.192,33.386,o),
(1695.578,0,o),
(1809.526,0,cs),
(1884.997,0,l),
(1884.997,500,l),
(1809.526,500,l),
(1798.877,500,o),
(1788.088,509.248,o),
(1788.088,521.438,cs),
(1786.896,921.143,l),
(1319.968,921.143,l),
(1321.16,521.438,l),
(1321.16,509.248,o),
(1310.408,500,o),
(1299.722,500,cs)
);
}
);
width = 1885;
}
);
},
{
glyphname = "uighurkazakhkirghizalefmaksura-arab.init";
layers = (
{
anchors = (
{
name = "top-arab";
pos = (266,632);
},
{
name = "bottom-arab";
pos = (168,0);
}
);
layerId = m004;
shapes = (
{
closed = 1;
nodes = (
(0.294,60,l),
(-80.098,54.314,o),
(-80.098,5.621,o),
(0.294,0,c),
(168,0,l),
(349.052,0,o),
(495.32,145.614,o),
(495.32,325.948,cs),
(495.32,631.765,l),
(436.758,631.765,l),
(436.758,328.758,l),
(436.758,179.967,o),
(316.725,60,o),
(168,60,cs)
);
}
);
width = 666;
},
{
anchors = (
{
name = "top-arab";
pos = (453,816);
},
{
name = "bottom-arab";
pos = (185,0);
}
);
associatedMasterId = m004;
attr = {
coordinates = (
800,
1
);
};
layerId = m005;
name = ExtraBold;
shapes = (
{
closed = 1;
nodes = (
(0,340,l),
(-85.882,254.706,o),
(-85.882,84.314,o),
(0,0,c),
(184.706,0,l),
(422.49,0,o),
(614.51,182.216,o),
(614.51,409.216,cs),
(614.51,816.471,l),
(296.078,816.471,l),
(296.078,451.373,l),
(296.078,389.51,o),
(245.588,340,o),
(184.706,340,cs)
);
}
);
width = 735;
},
{
anchors = (
{
name = "top-arab";
pos = (560,921);
},
{
name = "bottom-arab";
pos = (195,0);
}
);
associatedMasterId = m004;
attr = {
coordinates = (
1000,
1
);
};
layerId = m006;
name = ExtraBlack;
shapes = (
{
closed = 1;
nodes = (
(-0.168,500,l),
(-89.188,369.216,o),
(-89.188,129.281,o),
(-0.168,0,c),
(194.252,0,l),
(464.455,0,o),
(682.618,203.131,o),
(682.618,456.797,cs),
(682.618,922.017,l),
(215.69,922.017,l),
(215.69,521.438,l),
(215.69,509.248,o),
(204.938,500,o),
(194.252,500,cs)
);
}
);
width = 775;
}
);
unicode = 64488;
},
{
glyphname = "uighurkazakhkirghizalefmaksura-arab.medi";
layers = (
{
anchors = (
{
name = "top-arab";
pos = (266,632);
},
{
name = "bottom-arab";
pos = (168,0);
}
);
layerId = m004;
shapes = (
{
closed = 1;
nodes = (
(0.294,60,l),
(-80.098,54.314,o),
(-80.098,5.621,o),
(0.294,0,c),
(167.941,0,l),
(304.895,0,o),
(419.608,83.712,o),
(465.98,203.098,c),
(512.353,83.712,o),
(627.065,0,o),
(764.02,0,cs),
(836.307,0,l),
(836.307,60,l),
(764.02,60,l),
(615.294,60,o),
(495.261,179.967,o),
(495.261,328.758,cs),
(495.281,632,l),
(436.719,632,l),
(436.699,328.758,l),
(436.699,179.967,o),
(316.667,60,o),
(167.941,60,cs)
);
}
);
width = 836;
},
{
anchors = (
{
name = "top-arab";
pos = (453,816);
},
{
name = "bottom-arab";
pos = (185,0);
}
);
associatedMasterId = m004;
attr = {
coordinates = (
800,
1
);
};
layerId = m005;
name = ExtraBold;
shapes = (
{
closed = 1;
nodes = (
(0,340,l),
(-85.882,254.706,o),
(-85.882,84.314,o),
(0,0,c),
(184.706,0,l),
(307.02,0,o),
(389.706,51.686,o),
(455.294,134.471,c),
(520.882,51.686,o),
(603.569,0,o),
(725.882,0,cs),
(800.196,0,l),
(800.196,340,l),
(725.882,340,l),
(665,340,o),
(614.51,389.51,o),
(614.51,451.373,cs),
(614.216,816,l),
(295.784,816,l),
(296.078,451.373,l),
(296.078,389.51,o),
(245.588,340,o),
(184.706,340,cs)
);
}
);
width = 800;
},
{
anchors = (
{
name = "top-arab";
pos = (560,921);
},
{
name = "bottom-arab";
pos = (195,0);
}
);
associatedMasterId = m004;
attr = {
coordinates = (
1000,
1
);
};
layerId = m006;
name = ExtraBlack;
shapes = (
{
closed = 1;
nodes = (
(-0.168,500,l),
(-89.188,369.216,o),
(-89.188,129.281,o),
(-0.168,0,c),
(194.286,0,l),
(308.233,0,o),
(372.619,33.386,o),
(449.188,95.255,c),
(525.756,33.386,o),
(590.142,0,o),
(704.09,0,cs),
(779.561,0,l),
(779.561,500,l),
(704.09,500,l),
(693.403,500,o),
(682.652,509.248,o),
(682.652,521.438,cs),
(682.178,921.143,l),
(215.25,921.143,l),
(215.724,521.438,l),
(215.724,509.248,o),
(204.972,500,o),
(194.286,500,cs)
);
}
);
width = 780;
}
);
unicode = 64489;
},
{
glyphname = uniE002;
layers = (
{
layerId = m004;
shapes = (
{
closed = 1;
nodes = (
(0.294,60,l),
(-80.098,54.314,o),
(-80.098,5.621,o),
(0.294,0,c),
(142.124,0,l),
(323.176,0,o),
(469.444,145.614,o),
(469.444,325.948,cs),
(469.444,631.765,l),
(410.882,631.765,l),
(410.882,328.758,l),
(410.882,179.967,o),
(290.85,60,o),
(142.124,60,cs)
);
}
);
width = 640;
},
{
associatedMasterId = m004;
attr = {
coordinates = (
800,
1
);
};
layerId = m005;
name = ExtraBold;
shapes = (
{
closed = 1;
nodes = (
(0,340,l),
(-85.882,254.706,o),
(-85.882,84.314,o),
(0,0,c),
(187.451,0,l),
(425.235,0,o),
(617.255,182.216,o),
(617.255,409.216,cs),
(617.255,816.471,l),
(298.824,816.471,l),
(298.824,451.373,l),
(298.824,389.51,o),
(248.333,340,o),
(187.451,340,cs)
);
}
);
width = 737;
},
{
associatedMasterId = m004;
attr = {
coordinates = (
1000,
1
);
};
layerId = m006;
name = ExtraBlack;
shapes = (
{
closed = 1;
nodes = (
(-0.168,500,l),
(-89.188,369.216,o),
(-89.188,129.281,o),
(-0.168,0,c),
(213.352,0,l),
(483.555,0,o),
(701.718,203.131,o),
(701.718,456.797,cs),
(701.718,922.017,l),
(234.79,922.017,l),
(234.79,521.438,l),
(234.79,509.248,o),
(224.038,500,o),
(213.352,500,cs)
);
}
);
width = 793;
}
);
unicode = 57346;
},
{
glyphname = uniE003;
layers = (
{
layerId = m004;
shapes = (
{
closed = 1;
nodes = (
(0.294,60,l),
(-80.098,54.314,o),
(-80.098,5.621,o),
(0.294,0,c),
(162.124,0,l),
(299.078,0,o),
(413.791,83.712,o),
(460.163,203.098,c),
(506.536,83.712,o),
(621.248,0,o),
(758.203,0,cs),
(830.49,0,l),
(830.49,60,l),
(758.203,60,l),
(609.477,60,o),
(489.444,179.967,o),
(489.444,328.758,cs),
(489.281,632,l),
(430.719,632,l),
(430.882,328.758,l),
(430.882,179.967,o),
(310.85,60,o),
(162.124,60,cs)
);
}
);
width = 830;
},
{
associatedMasterId = m004;
attr = {
coordinates = (
800,
1
);
};
layerId = m005;
name = ExtraBold;
shapes = (
{
closed = 1;
nodes = (
(0,340,l),
(-85.882,254.706,o),
(-85.882,84.314,o),
(0,0,c),
(187.451,0,l),
(309.765,0,o),
(392.451,51.686,o),
(458.039,134.471,c),
(523.627,51.686,o),
(606.314,0,o),
(728.627,0,cs),
(802.941,0,l),
(802.941,340,l),
(728.627,340,l),
(667.745,340,o),
(617.255,389.51,o),
(617.255,451.373,cs),
(617.216,816,l),
(298.784,816,l),
(298.824,451.373,l),
(298.824,389.51,o),
(248.333,340,o),
(187.451,340,cs)
);
}
);
width = 803;
},
{
associatedMasterId = m004;
attr = {
coordinates = (
1000,
1
);
};
layerId = m006;
name = ExtraBlack;
shapes = (
{
closed = 1;
nodes = (
(-0.168,500,l),
(-89.188,369.216,o),
(-89.188,129.281,o),
(-0.168,0,c),
(201.923,0,l),
(315.871,0,o),
(380.257,33.386,o),
(456.825,95.255,c),
(533.394,33.386,o),
(597.78,0,o),
(711.727,0,cs),
(787.199,0,l),
(787.199,500,l),
(711.727,500,l),
(701.041,500,o),
(690.289,509.248,o),
(690.289,521.438,cs),
(690.321,921.143,l),
(223.393,921.143,l),
(223.361,521.438,l),
(223.361,509.248,o),
(212.61,500,o),
(201.923,500,cs)
);
}
);
width = 788;
}
);
unicode = 57347;
},
{
glyphname = uniE006;
layers = (
{
layerId = m004;
shapes = (
{
closed = 1;
nodes = (
(0.294,60,l),
(-80.098,54.314,o),
(-80.098,5.621,o),
(0.294,0,c),
(300.163,0,l),
(481.216,0,o),
(627.484,145.614,o),
(627.484,325.948,cs),
(627.484,631.765,l),
(568.922,631.765,l),
(568.922,328.758,l),
(568.922,179.967,o),
(448.889,60,o),
(300.163,60,cs)
);
}
);
width = 798;
},
{
associatedMasterId = m004;
attr = {
coordinates = (
800,
1
);
};
layerId = m005;
name = ExtraBold;
shapes = (
{
closed = 1;
nodes = (
(0,340,l),
(-85.882,254.706,o),
(-85.882,84.314,o),
(0,0,c),
(358.039,0,l),
(595.824,0,o),
(787.843,182.216,o),
(787.843,409.216,cs),
(787.843,816.471,l),
(469.412,816.471,l),
(469.412,451.373,l),
(469.412,389.51,o),
(418.922,340,o),
(358.039,340,cs)
);
}
);
width = 908;
},
{
associatedMasterId = m004;
attr = {
coordinates = (
1000,
1
);
};
layerId = m006;
name = ExtraBlack;
shapes = (
{
closed = 1;
nodes = (
(-0.168,500,l),
(-89.188,369.216,o),
(-89.188,129.281,o),
(-0.168,0,c),
(391.111,0,l),
(661.314,0,o),
(879.477,203.131,o),
(879.477,456.797,cs),
(879.477,922.017,l),
(412.549,922.017,l),
(412.549,521.438,l),
(412.549,509.248,o),
(401.797,500,o),
(391.111,500,cs)
);
}
);
width = 971;
}
);
unicode = 57350;
},
{
glyphname = uniE007;
layers = (
{
layerId = m004;
shapes = (
{
closed = 1;
nodes = (
(0.294,60,l),
(-80.098,54.314,o),
(-80.098,5.621,o),
(0.294,0,c),
(400.294,0,l),
(537.248,0,o),
(651.961,83.712,o),
(698.333,203.098,c),
(744.706,83.712,o),
(859.418,0,o),
(996.373,0,cs),
(1068.66,0,l),
(1068.66,60,l),
(996.373,60,l),
(847.647,60,o),
(727.614,179.967,o),
(727.614,328.758,cs),
(727.281,632,l),
(668.719,632,l),
(669.052,328.758,l),
(669.052,179.967,o),
(549.02,60,o),
(400.294,60,cs)
);
}
);
width = 1069;
},
{
associatedMasterId = m004;
attr = {
coordinates = (
800,
1
);
};
layerId = m005;
name = ExtraBold;
shapes = (
{
closed = 1;
nodes = (
(0,340,l),
(-85.882,254.706,o),
(-85.882,84.314,o),
(0,0,c),
(400,0,l),
(522.314,0,o),
(605,51.686,o),
(670.588,134.471,c),
(736.176,51.686,o),
(818.863,0,o),
(941.176,0,cs),
(1015.49,0,l),
(1015.49,340,l),
(941.176,340,l),
(880.294,340,o),
(829.804,389.51,o),
(829.804,451.373,cs),
(830.216,816,l),
(511.784,816,l),
(511.373,451.373,l),
(511.373,389.51,o),
(460.882,340,o),
(400,340,cs)
);
}
);
width = 1015;
},
{
associatedMasterId = m004;
attr = {
coordinates = (
1000,
1
);
};
layerId = m006;
name = ExtraBlack;
shapes = (
{
closed = 1;
nodes = (
(-0.168,500,l),
(-89.188,369.216,o),
(-89.188,129.281,o),
(-0.168,0,c),
(399.832,0,l),
(513.78,0,o),
(578.165,33.386,o),
(654.734,95.255,c),
(731.303,33.386,o),
(795.688,0,o),
(909.636,0,cs),
(985.107,0,l),
(985.107,500,l),
(909.636,500,l),
(898.95,500,o),
(888.198,509.248,o),
(888.198,521.438,cs),
(889.035,921.143,l),
(422.107,921.143,l),
(421.27,521.438,l),
(421.27,509.248,o),
(410.518,500,o),
(399.832,500,cs)
);
}
);
width = 984;
}
);
unicode = 57351;
},
{
glyphname = "hah-arab";
layers = (
{
anchors = (
{
name = "top-arab";
pos = (694,957);
},
{
name = "bottom-arab";
pos = (800,-721);
}
);
layerId = m004;
shapes = (
{
closed = 1;
nodes = (
(1289.415,513.614,c),
(459.513,157.268,l),
(303.834,87.876,o),
(161,-81.392,o),
(161,-267.268,cs),
(161,-510.061,o),
(379.996,-720.065,o),
(602.722,-721,cs),
(1237,-721,l),
(1237,-661.065,l),
(602.722,-661.065,l),
(402.06,-661.065,o),
(217.73,-464.522,o),
(219.349,-266.733,cs),
(220.618,-111.682,o),
(345.333,42.898,o),
(481.115,103.752,cs),
(1356.428,482.634,l),
(1359.147,538.418,l),
(1329.147,538.418,o),
(899.245,799.327,o),
(694.396,916.366,cs),
(539.559,1004.693,o),
(351.964,931.732,o),
(279.808,731.444,cs),
(271.043,708.784,l),
(325.906,687.007,l),
(334.67,709.667,l),
(395.272,882.471,o),
(547.755,933.824,o),
(667.598,865.046,cs),
(830.239,771.098,o),
(1100.651,569.484,o)
);
}
);
width = 1486;
},
{
anchors = (
{
name = "top-arab";
pos = (747,1110);
},
{
name = "bottom-arab";
pos = (748,-684);
}
);
associatedMasterId = m004;
attr = {
coordinates = (
800,
1
);
};
layerId = m005;
name = ExtraBold;
shapes = (
{
closed = 1;
nodes = (
(1118.61,593.098,c),
(576.159,442.765,l),
(236.884,341.02,o),
(93.727,65.216,o),
(108.433,-162.49,cs),
(127.041,-469.725,o),
(332.473,-683.98,o),
(713.237,-684,cs),
(1280,-684,l),
(1280,-364.98,l),
(713.237,-364.98,l),
(553.884,-364.98,o),
(457.767,-276.706,o),
(441.041,-198.333,cs),
(415.824,-80.172,o),
(450.316,46.529,o),
(690.178,145,cs),
(1379.806,408.392,l),
(1392.59,755.157,l),
(1392.59,755.157,o),
(984.061,1006.784,o),
(767.316,1096.373,cs),
(544.767,1189.275,o),
(306.845,1088.863,o),
(204.492,856.549,cs),
(171.022,782.647,l),
(461.963,651.98,l),
(495.433,725.882,l),
(519,778,o),
(578.708,830.235,o),
(645.355,802.569,cs),
(712.002,774.902,o),
(885.139,667.137,o)
);
}
);
width = 1475;
},
{
anchors = (
{
name = "top-arab";
pos = (777,1197);
},
{
name = "bottom-arab";
pos = (718,-663);
}
);
associatedMasterId = m004;
attr = {
coordinates = (
1000,
1
);
};
layerId = m006;
name = ExtraBlack;
shapes = (
{
closed = 1;
nodes = (
(1021.007,638.517,c),
(642.813,565.906,l),
(198.628,485.673,o),
(55.286,148.992,o),
(78.395,-102.617,cs),
(107.636,-446.677,o),
(305.316,-663.36,o),
(776.389,-662.857,cs),
(1304.571,-662.857,l),
(1304.571,-195.789,l),
(776.389,-195.789,l),
(640.641,-195.789,o),
(578.93,-184.382,o),
(567.722,-159.248,cs),
(527.371,-62.167,o),
(510.306,58.604,o),
(809.643,168.57,cs),
(1393.164,365.968,l),
(1411.7,879.007,l),
(1408.843,879.007,o),
(1032.527,1125.331,o),
(808.984,1199.233,cs),
(548,1290,o),
(281.063,1178.652,o),
(161.455,928.037,cs),
(113.867,824.854,l),
(539.71,631.965,l),
(587.298,735.148,l),
(593,748,o),
(603,770,o),
(632.644,766.867,cs),
(669,763,o),
(761.99,722.939,o)
);
}
);
width = 1469;
}
);
unicode = (1581,65185);
},
{
glyphname = "hah-arab.fina";
layers = (
{
anchors = (
{
name = "top-arab";
pos = (694,957);
},
{
name = "bottom-arab";
pos = (800,-721);
}
);
layerId = m004;
shapes = (
{
closed = 1;
nodes = (
(1137.46,387.853,l),
(1356.428,482.634,l),
(1359.147,538.418,l),
(1329.147,538.418,o),
(899.245,799.327,o),
(694.396,916.366,cs),
(539.559,1004.693,o),
(351.964,931.732,o),
(279.808,731.444,cs),
(271.043,708.784,l),
(325.906,687.007,l),
(334.67,709.667,l),
(395.272,882.471,o),
(547.755,933.824,o),
(667.598,865.046,cs),
(830.239,771.098,o),
(1100.651,569.484,o),
(1289.415,513.614,c),
(459.513,157.268,l),
(303.834,87.876,o),
(161,-81.392,o),
(161,-267.268,cs),
(161,-510.061,o),
(379.996,-720.065,o),
(602.722,-721,cs),
(1237,-721,l),
(1237,-661.065,l),
(602.722,-661.065,l),
(402.06,-661.065,o),
(217.73,-464.522,o),
(219.349,-266.733,cs),
(220.618,-111.682,o),
(345.333,42.898,o),
(481.115,103.752,cs),
(1085.607,365.408,l),
(1119.065,191,l),
(1150.065,33,o),
(1306.065,0,o),
(1382.765,0,cs),
(1518.065,0,l),
(1518.065,60,l),
(1382.765,60,l),
(1320.229,60,o),
(1198.065,79,o),
(1172.065,210,cs)
);
}
);
width = 1518;
},
{
anchors = (
{
name = "top-arab";
pos = (747,1110);
},
{
name = "bottom-arab";
pos = (748,-684);
}
);
associatedMasterId = m004;
attr = {
coordinates = (
800,
1
);
};
layerId = m005;
name = ExtraBold;
shapes = (
{
closed = 1;
nodes = (
(1281.194,364.341,l),
(1379.806,408.392,l),
(1392.59,755.157,l),
(1392.59,755.157,o),
(984.061,1006.784,o),
(767.316,1096.373,cs),
(544.767,1189.275,o),
(306.845,1088.863,o),
(204.492,856.549,cs),
(171.022,782.647,l),
(461.963,651.98,l),
(495.433,725.882,l),
(517.453,777.941,o),
(578.708,830.235,o),
(645.355,802.569,cs),
(712.002,774.902,o),
(885.139,667.137,o),
(1118.61,593.098,c),
(576.159,442.765,l),
(236.884,341.02,o),
(93.727,65.216,o),
(108.433,-162.49,cs),
(127.041,-469.725,o),
(332.473,-683.98,o),
(713.237,-684,cs),
(1280,-684,l),
(1280,-364.98,l),
(713.237,-364.98,l),
(553.884,-364.98,o),
(457.767,-276.706,o),
(441.041,-198.333,cs),
(415.824,-80.172,o),
(450.316,46.529,o),
(690.178,145,cs),
(1028.175,275.549,l),
(1056.731,158.627,l),
(1085.182,39.608,o),
(1204,0,o),
(1344.49,0,cs),
(1519.857,0,l),
(1519.857,340,l),
(1354.49,340,l),
(1330.451,340,o),
(1289.28,342.333,o),
(1285.516,352.804,cs)
);
}
);
width = 1520;
},
{
anchors = (
{
name = "top-arab";
pos = (777,1197);
},
{
name = "bottom-arab";
pos = (718,-663);
}
);
associatedMasterId = m004;
attr = {
coordinates = (
1000,
1
);
};
layerId = m006;
name = ExtraBlack;
shapes = (
{
closed = 1;
nodes = (
(1363.327,350.906,l),
(1393.164,365.968,l),
(1411.7,879.007,l),
(1408.843,879.007,o),
(1032.527,1125.331,o),
(808.984,1199.233,cs),
(548,1290,o),
(281.063,1178.652,o),
(161.455,928.037,cs),
(113.867,824.854,l),
(539.71,631.965,l),
(587.298,735.148,l),
(593.271,748.21,o),
(603.395,770.042,o),
(632.644,766.867,cs),
(668.92,762.93,o),
(761.99,722.939,o),
(1021.007,638.517,c),
(642.813,565.906,l),
(198.628,485.673,o),
(55.286,148.992,o),
(78.395,-102.617,cs),
(107.636,-446.677,o),
(305.316,-663.36,o),
(776.389,-662.857,cs),
(1304.571,-662.857,l),
(1304.571,-195.789,l),
(776.389,-195.789,l),
(640.641,-195.789,o),
(578,-183,o),
(567.722,-159.248,cs),
(527.371,-62.167,o),
(510.306,78.604,o),
(809.643,168.57,cs),
(995.357,224.201,l),
(1021.112,140.129,l),
(1048.106,43.384,o),
(1145.677,0,o),
(1322.619,0,cs),
(1520.881,0,l),
(1520.881,500,l),
(1338.333,500,l),
(1336.292,500,o),
(1341.403,492.81,o),
(1350.344,434.406,cs)
);
}
);
width = 1521;
}
);
unicode = 65186;
},
{
glyphname = "hah-arab.init";
layers = (
{
anchors = (
{
name = "top-arab";
pos = (649,833);
},
{
name = "bottom-arab";
pos = (649,40);
}
);
layerId = m004;
shapes = (
{
closed = 1;
nodes = (
(0.294,60,l),
(-80.098,54.314,o),
(-80.098,5.621,o),
(0.294,0,c),
(237.902,0,l),
(735.922,0,o),
(1281.856,389.497,o),
(1317.902,394.216,c),
(1314.922,445.778,l),
(1274.922,445.778,o),
(853.843,676.163,o),
(648.928,793.203,cs),
(494.092,881.464,o),
(306.562,808.569,o),
(234.34,608.281,cs),
(225.967,586.405,l),
(280.83,564.627,l),
(289.268,586.503,l),
(349.804,759.307,o),
(502.288,810.66,o),
(622.131,741.882,cs),
(789.294,645.739,o),
(1127.686,469.732,o),
(1252.627,416.34,c),
(1109.791,344.078,o),
(642.425,60,o),
(237.902,60,cs)
);
}
);
width = 1427;
},
{
anchors = (
{
name = "top-arab";
pos = (682,1020);
},
{
name = "bottom-arab";
pos = (682,20);
}
);
associatedMasterId = m004;
attr = {
coordinates = (
800,
1
);
};
layerId = m005;
name = ExtraBold;
shapes = (
{
closed = 1;
nodes = (
(0.412,340,l),
(-85.471,254.706,o),
(-85.471,84.314,o),
(0.412,0,c),
(242.529,0,l),
(866.824,0,o),
(1291.843,388.451,o),
(1312.529,403.235,c),
(1305.824,674.667,l),
(1305.824,674.667,o),
(899.647,888.451,o),
(681.922,978.039,cs),
(459.373,1069.961,o),
(222.431,970.529,o),
(119.098,738.216,cs),
(81.51,656.078,l),
(372.451,525.412,l),
(411.02,607.549,l),
(445.059,683.608,o),
(499.314,709.902,o),
(559.961,684.235,cs),
(659.436,642.136,o),
(883.294,553.98,o),
(1019.412,495.098,c),
(868.863,449.176,o),
(514.373,340,o),
(242.529,340,cs)
);
}
);
width = 1395;
},
{
anchors = (
{
name = "top-arab";
pos = (701,1127);
},
{
name = "bottom-arab";
pos = (701,9);
}
);
associatedMasterId = m004;
attr = {
coordinates = (
1000,
1
);
};
layerId = m006;
name = ExtraBlack;
shapes = (
{
closed = 1;
nodes = (
(0.479,500,l),
(-88.541,369.216,o),
(-88.541,129.281,o),
(0.479,0,c),
(245.174,0,l),
(941.625,0,o),
(1297.55,387.853,o),
(1309.459,408.389,c),
(1300.625,805.46,l),
(1293.482,805.46,o),
(925.821,1009.758,o),
(700.775,1083.66,c),
(439.533,1177.673,o),
(174.357,1063.078,o),
(53.246,812.464,cs),
(-1.037,695.892,l),
(424.806,503.003,l),
(480.592,619.575,l),
(499.49,640.351,o),
(497.614,652.326,o),
(524.435,651.294,c),
(585.232,640.077,o),
(743.641,602.122,o),
(886.146,540.103,c),
(731.19,509.232,o),
(441.2,500,o),
(245.174,500,cs)
);
}
);
width = 1377;
}
);
unicode = 65187;
},
{
glyphname = "hah-arab.medi";
layers = (
{
anchors = (
{
name = "top-arab";
pos = (649,833);
},
{
name = "bottom-arab";
pos = (0,0);
}
);
layerId = m004;
shapes = (
{
closed = 1;
nodes = (
(1005.347,230.036,c),
(1183.013,78.203,l),
(1239.183,28.242,o),
(1313.817,0,o),
(1390.582,0,cs),
(1509,0,l),
(1509,60,l),
(1390.582,60,l),
(1328.111,60,o),
(1267.444,81.497,o),
(1219.928,120.882,cs),
(1058.398,257.291,l),
(1038.233,258.406,o),
(1013.047,243.568,o)
);
},
{
closed = 1;
nodes = (
(0.294,60,l),
(-80.098,54.314,o),
(-80.098,5.621,o),
(0.294,0,c),
(237.902,0,l),
(735.922,0,o),
(1281.856,389.497,o),
(1317.902,394.216,c),
(1314.922,445.778,l),
(1274.922,445.778,o),
(853.843,676.163,o),
(648.928,793.203,cs),
(494.092,881.464,o),
(306.562,808.569,o),
(234.34,608.281,cs),
(225.967,586.405,l),
(280.83,564.627,l),
(289.268,586.503,l),
(349.804,759.307,o),
(502.288,810.66,o),
(622.131,741.882,cs),
(789.294,645.739,o),
(1127.686,469.732,o),
(1252.627,416.34,c),
(1109.791,344.078,o),
(642.425,60,o),
(237.902,60,cs)
);
}
);
width = 1509;
},
{
anchors = (
{
name = "top-arab";
pos = (682,1020);
},
{
name = "bottom-arab";
pos = (682,0);
}
);
associatedMasterId = m004;
attr = {
coordinates = (
800,
1
);
};
layerId = m005;
name = ExtraBold;
shapes = (
{
closed = 1;
nodes = (
(1022.765,205.235,c),
(1053.196,123.039,l),
(1083.745,45.627,o),
(1181.255,0,o),
(1282.725,0,cs),
(1452.51,0,l),
(1452.51,340,l),
(1282.725,340,l),
(1269.667,340,o),
(1255.667,340.451,o),
(1242.922,343.235,c),
(1235.216,347.529,l),
(1158.207,343.119,o),
(1063.061,264.099,o)
);
},
{
closed = 1;
nodes = (
(0.412,340,l),
(-85.471,254.706,o),
(-85.471,84.314,o),
(0.412,0,c),
(242.529,0,l),
(866.824,0,o),
(1291.843,388.451,o),
(1312.529,403.235,c),
(1305.824,674.667,l),
(1305.824,674.667,o),
(899.647,888.451,o),
(681.922,978.039,cs),
(459.373,1069.961,o),
(222.431,970.529,o),
(119.098,738.216,cs),
(81.51,656.078,l),
(372.451,525.412,l),
(411.02,607.549,l),
(445.059,683.608,o),
(499.314,709.902,o),
(559.961,684.235,cs),
(659.436,642.136,o),
(883.294,553.98,o),
(1019.412,495.098,c),
(868.863,449.176,o),
(514.373,340,o),
(242.529,340,cs)
);
}
);
width = 1453;
},
{
anchors = (
{
name = "top-arab";
pos = (701,1127);
},
{
name = "bottom-arab";
pos = (1072,0);
}
);
associatedMasterId = m004;
attr = {
coordinates = (
1000,
1
);
};
layerId = m006;
name = ExtraBlack;
shapes = (
{
closed = 1;
nodes = (
(1022.718,211.064,c),
(959.015,168.66,l),
(994.923,55.562,o),
(1105.505,0,o),
(1221.093,0,cs),
(1420.23,0,l),
(1420.23,500,l),
(1221.093,500,l),
(1236.27,500,o),
(1248.937,488.425,o),
(1256.061,470.294,c),
(1206.255,470.094,l),
(1226.764,391.526,o),
(1091.641,275.832,o)
);
},
{
closed = 1;
nodes = (
(0.479,500,l),
(-88.541,369.216,o),
(-88.541,129.281,o),
(0.479,0,c),
(245.174,0,l),
(941.625,0,o),
(1297.55,387.853,o),
(1309.459,408.389,c),
(1300.625,805.46,l),
(1293.482,805.46,o),
(925.821,1009.758,o),
(700.775,1083.66,c),
(439.533,1177.673,o),
(174.357,1063.078,o),
(53.246,812.464,cs),
(-1.037,695.892,l),
(424.806,503.003,l),
(480.592,619.575,l),
(499.49,640.351,o),
(497.614,652.326,o),
(524.435,651.294,c),
(585.232,640.077,o),
(743.641,602.122,o),
(886.146,540.103,c),
(731.19,509.232,o),
(441.2,500,o),
(245.174,500,cs)
);
}
);
width = 1421;
}
);
unicode = 65188;
},
{
glyphname = "dal-arab";
layers = (
{
anchors = (
{
name = "top-arab";
pos = (480,844);
},
{
name = "bottom-arab";
pos = (491,0);
}
);
layerId = m004;
shapes = (
{
closed = 1;
nodes = (
(522.855,-5,cs),
(737.055,-6.977,o),
(994.536,174.19,o),
(857.614,355.353,c),
(480.15,897.863,l),
(433.444,862.556,l),
(810.843,320.111,l),
(912.549,187.039,o),
(700.705,53.562,o),
(522.855,53.562,cs),
(379.864,53.562,o),
(224.712,58.562,o),
(109,90.562,c),
(93,35,l),
(205.784,1.276,o),
(360.936,-3.506,o)
);
}
);
width = 1048;
},
{
anchors = (
{
name = "top-arab";
pos = (492,1075);
},
{
name = "bottom-arab";
pos = (480,0);
}
);
associatedMasterId = m004;
attr = {
coordinates = (
800,
1
);
};
layerId = m005;
name = ExtraBold;
shapes = (
{
closed = 1;
nodes = (
(515.078,-20,cs),
(936.216,-20,o),
(1139.039,387.843,o),
(947.216,641.294,cs),
(571.255,1133.941,l),
(318.667,940.333,l),
(693.647,448.667,l),
(733.235,397.588,o),
(684.824,298.431,o),
(515.078,298.431,cs),
(369.795,298.431,o),
(225.141,298.431,o),
(86,328.431,c),
(56,10,l),
(218.898,-22.476,o),
(372.94,-20,o)
);
}
);
width = 1114;
},
{
anchors = (
{
name = "top-arab";
pos = (499,1207);
},
{
name = "bottom-arab";
pos = (474,0);
}
);
associatedMasterId = m004;
attr = {
coordinates = (
1000,
1
);
};
layerId = m006;
name = ExtraBlack;
shapes = (
{
closed = 1;
nodes = (
(510.635,-28.571,cs),
(1050.022,-27.442,o),
(1221.613,509.931,o),
(998.416,804.689,cs),
(623.315,1268.843,l),
(253.079,984.778,l),
(665.678,473.127,l),
(669.77,467.902,o),
(675.749,438.357,o),
(510.635,438.357,cs),
(364.041,438.357,o),
(225,448,o),
(72.857,464.357,c),
(34.857,-4.286,l),
(226.391,-36.048,o),
(379.8,-29.425,o)
);
}
);
width = 1151;
}
);
unicode = (1583,65193);
},
{
glyphname = "dal-arab.fina";
layers = (
{
anchors = (
{
name = "top-arab";
pos = (547,841);
},
{
name = "bottom-arab";
pos = (511,0);
}
);
layerId = m004;
shapes = (
{
closed = 1;
nodes = (
(801.115,149.921,o),
(707.288,53.385,o),
(525.124,53.385,cs),
(377.555,53.385,o),
(215.643,62.332,o),
(106.755,91.564,c),
(92.712,34.823,l),
(189.855,5.806,o),
(346.085,-4.354,o),
(518.065,-5.177,cs),
(690.046,-6,o),
(847.185,106.614,o),
(881.596,163.398,c),
(889.007,151.065,l),
(941.379,57.935,o),
(1038.575,0,o),
(1146.686,0,cs),
(1215.379,0,l),
(1215.379,60,l),
(1146.686,60,l),
(1058.085,60,o),
(977.876,107.19,o),
(935.51,185.379,cs),
(548.399,896.536,l),
(496.19,868.582,l),
(856.626,208.194,l)
);
}
);
width = 1215;
},
{
anchors = (
{
name = "top-arab";
pos = (572,1050);
},
{
name = "bottom-arab";
pos = (490,0);
}
);
associatedMasterId = m004;
attr = {
coordinates = (
800,
1
);
};
layerId = m005;
name = ExtraBold;
shapes = (
{
closed = 1;
nodes = (
(683.196,334.157,o),
(594.706,308.431,o),
(520.176,308.431,cs),
(419.069,308.431,o),
(264.37,308.431,o),
(87,336.431,c),
(56,20,l),
(190.767,-10,o),
(377.042,-10,o),
(494.294,-10,cs),
(666.667,-10,o),
(809.98,73.961,o),
(873.118,143.765,c),
(874.098,141.98,l),
(935.686,57.02,o),
(1035.627,0,o),
(1159.294,0,cs),
(1229.686,0,l),
(1229.686,340,l),
(1159.294,340,l),
(1118.275,340,o),
(1091.137,347.843,o),
(1071.647,386.686,c),
(668.98,1128.039,l),
(389.843,974.725,l),
(716.02,377.235,l)
);
}
);
width = 1230;
},
{
anchors = (
{
name = "top-arab";
pos = (586,1169);
},
{
name = "bottom-arab";
pos = (478,0);
}
);
associatedMasterId = m004;
attr = {
coordinates = (
1000,
1
);
};
layerId = m006;
name = ExtraBlack;
shapes = (
{
closed = 1;
nodes = (
(621.814,459.435,o),
(530.373,454.172,o),
(517.349,454.172,cs),
(442.792,454.172,o),
(282,454,o),
(75.711,476.356,c),
(35.022,11.53,l),
(191.288,-19.032,o),
(394.732,-13.226,o),
(480.711,-12.756,cs),
(653.307,-12.286,o),
(788.721,55.302,o),
(868.273,132.546,c),
(865.579,136.789,l),
(932.433,56.497,o),
(1033.943,0,o),
(1166.499,0,cs),
(1237.862,0,l),
(1237.862,500,l),
(1166.499,500,l),
(1155.669,500,o),
(1148.858,503.359,o),
(1143.44,512.719,cs),
(737.884,1260.327,l),
(329.074,1035.379,l),
(635.673,473.83,l)
);
}
);
width = 1239;
}
);
unicode = 65194;
},
{
glyphname = "reh-arab";
layers = (
{
anchors = (
{
name = "top-arab";
pos = (521,532);
},
{
name = "bottom-arab";
pos = (247,-547);
}
);
layerId = m004;
shapes = (
{
closed = 1;
nodes = (
(550.281,632,l),
(491.719,632,l),
(491.634,-33.373,l),
(491.634,-280.51,o),
(321.19,-472.085,o),
(124.052,-501.085,cs),
(-35,-521,l),
(-31,-578.085,l),
(124.052,-561.085,l),
(348.451,-534.085,o),
(550.196,-314.863,o),
(550.196,-35.529,cs)
);
}
);
width = 721;
},
{
anchors = (
{
name = "top-arab";
pos = (580,796);
},
{
name = "bottom-arab";
pos = (251,-530);
}
);
associatedMasterId = m004;
attr = {
coordinates = (
800,
1
);
};
layerId = m005;
name = ExtraBold;
shapes = (
{
closed = 1;
nodes = (
(739.986,816,l),
(421.554,816,l),
(420.809,67.686,l),
(420.809,-93.373,o),
(291,-195,o),
(158.084,-215,cs),
(-43,-245.606,l),
(7.299,-570,l),
(215.084,-545,l),
(458.064,-514,o),
(739.241,-260.667,o),
(739.241,85.333,cs)
);
}
);
width = 858;
},
{
anchors = (
{
name = "top-arab";
pos = (614,947);
},
{
name = "bottom-arab";
pos = (253,-520);
}
);
associatedMasterId = m004;
attr = {
coordinates = (
1000,
1
);
};
layerId = m006;
name = ExtraBlack;
shapes = (
{
closed = 1;
nodes = (
(848.388,921.143,l),
(381.46,921.143,l),
(380.338,125.434,l),
(380.338,13.563,o),
(273.749,-36.666,o),
(177.53,-51.523,cs),
(-47.571,-88.239,l),
(29.185,-565.38,l),
(267.102,-535.809,l),
(520.7,-502.523,o),
(847.266,-229.697,o),
(847.266,154.398,cs)
);
}
);
width = 936;
}
);
unicode = (1585,65197);
},
{
glyphname = "reh-arab.fina";
layers = (
{
anchors = (
{
name = "top-arab";
pos = (521,532);
},
{
name = "bottom-arab";
pos = (247,-547);
}
);
layerId = m004;
shapes = (
{
closed = 1;
nodes = (
(550.281,632,l),
(491.719,632,l),
(491.634,-33.373,l),
(491.634,-280.51,o),
(321.19,-472.085,o),
(124.052,-501.085,cs),
(-35,-521,l),
(-31,-578.085,l),
(124.052,-561.085,l),
(348.451,-534.085,o),
(550.196,-314.863,o),
(550.196,-35.529,cs),
(550.226,200.635,l),
(611.861,81.402,o),
(735.196,0,o),
(877.582,0,cs),
(936.993,0,l),
(936.993,60,l),
(877.582,60,l),
(701.552,60,o),
(557.824,199.012,o),
(550.248,373.855,c)
);
}
);
width = 937;
},
{
anchors = (
{
name = "top-arab";
pos = (580,796);
},
{
name = "bottom-arab";
pos = (251,-530);
}
);
associatedMasterId = m004;
attr = {
coordinates = (
800,
1
);
};
layerId = m005;
name = ExtraBold;
shapes = (
{
closed = 1;
nodes = (
(739.986,816,l),
(421.554,816,l),
(420.809,67.686,l),
(420.809,-93.373,o),
(291,-195,o),
(158.084,-215,cs),
(-43,-245.606,l),
(7.299,-570,l),
(215.084,-545,l),
(456.483,-514.23,o),
(734.627,-264.859,o),
(739.19,78.325,cs),
(739.195,78.678,l),
(790.552,29.698,o),
(845.876,0,o),
(905.608,0,cs),
(976,0,l),
(976,340,l),
(905.608,340,l),
(822.862,340,o),
(742,399,o),
(739.702,478.246,c)
);
}
);
width = 976;
},
{
anchors = (
{
name = "top-arab";
pos = (614,947);
},
{
name = "bottom-arab";
pos = (253,-520);
}
);
associatedMasterId = m004;
attr = {
coordinates = (
1000,
1
);
};
layerId = m006;
name = ExtraBlack;
shapes = (
{
closed = 1;
nodes = (
(848.388,921.143,l),
(381.46,921.143,l),
(380.338,125.434,l),
(380.338,13.563,o),
(273.749,-36.666,o),
(177.53,-51.523,cs),
(-47.571,-88.239,l),
(29.185,-565.38,l),
(267.102,-535.809,l),
(518.216,-502.884,o),
(840.016,-236.285,o),
(847.186,143.385,c),
(847.177,8.988,l),
(892.661,0.153,o),
(909.121,0,o),
(921.623,0,cs),
(998.289,0,l),
(998.289,500,l),
(921.623,500,l),
(892.182,500,o),
(847.244,513.279,o),
(847.961,537.898,c)
);
}
);
width = 998;
}
);
unicode = 65198;
},
{
glyphname = "seen-arab";
layers = (
{
anchors = (
{
name = "top-arab";
pos = (1952,632);
},
{
name = "bottom-arab";
pos = (801,-551);
}
);
layerId = m004;
shapes = (
{
closed = 1;
nodes = (
(1335.157,632,l),
(1393.719,632,l),
(1393.575,328.758,l),
(1393.575,219.605,o),
(1537.898,60,o),
(1642.987,60,qs),
(1672.791,60,l),
(1783.795,60,o),
(1922.137,217.563,o),
(1922.137,328.758,qs),
(1922.281,632,l),
(1980.843,632,l),
(1980.699,328.758,l),
(1980.699,217.03,o),
(2118.901,60,o),
(2230.046,60,qs),
(2259.85,60,l),
(2370.898,60,o),
(2509.261,217.558,o),
(2509.261,328.758,qs),
(2509.261,631.765,l),
(2567.824,631.765,l),
(2567.824,327.32,l),
(2567.824,249.763,o),
(2498.278,98.807,o),
(2343.763,0,o),
(2259.85,0,qs),
(2230.046,0,l),
(2134.055,0,o),
(1985.745,105.754,o),
(1951.418,196.752,q),
(1917.721,107.456,o),
(1770.567,0,o),
(1672.791,0,qs),
(1642.987,0,l),
(1566.262,0,o),
(1431.372,86.253,o),
(1393.379,154.654,q),
(1392.729,44.003,l),
(1393.591,-137.709,o),
(1250.21,-394.418,o),
(1010.727,-530.958,o),
(872.699,-541,qs),
(697.928,-551,l),
(478.901,-561,o),
(260.763,-395.316,o),
(157,-133,o),
(157,14.837,qs),
(157,162,o),
(235.881,390.845,o),
(266.118,468.111,q),
(322.68,443.111,l),
(295.119,381.665,o),
(216,155,o),
(215.562,17.712,qs),
(216,-178,o),
(424.855,-509.51,o),
(697.928,-491,qs),
(872.699,-480.99,l),
(996.702,-470.99,o),
(1206.114,-352.469,o),
(1332.719,-128.98,o),
(1332.719,47.02,qs)
);
}
);
width = 2739;
},
{
anchors = (
{
name = "top-arab";
pos = (1940,816);
},
{
name = "bottom-arab";
pos = (852,-539);
}
);
associatedMasterId = m004;
attr = {
coordinates = (
800,
1
);
};
layerId = m005;
name = ExtraBold;
shapes = (
{
closed = 1;
nodes = (
(1215.245,816,l),
(1533.676,816,l),
(1533.411,448.917,l),
(1534.156,403.074,o),
(1589.249,340,o),
(1634.569,340,qs),
(1681.627,340,l),
(1726.412,340,o),
(1781.824,403.983,o),
(1781.824,451.373,qs),
(1782.324,816.941,l),
(2100.755,816.941,l),
(2100.255,451.373,l),
(2100.255,403.972,o),
(2155.663,340,o),
(2200.451,340,qs),
(2247.51,340,l),
(2292.954,340,o),
(2348.686,403.904,o),
(2348.686,451.373,qs),
(2348.686,816.471,l),
(2667.118,816.471,l),
(2667.118,429.804,l),
(2667.118,312.004,o),
(2556.132,114.892,o),
(2363.856,0,o),
(2247.51,0,qs),
(2200.451,0,l),
(2118.174,0,o),
(1990.207,73.713,o),
(1941.039,137.275,q),
(1887.685,69.008,o),
(1762.589,0,o),
(1681.627,0,qs),
(1634.569,0,l),
(1598.542,0,o),
(1545.743,16.11,o),
(1526.633,26.614,q),
(1526.435,24.914,l),
(1510.476,-99.912,o),
(1383.609,-345.866,o),
(1104.008,-529,o),
(912.414,-539,qs),
(773.922,-548,l),
(559.625,-558,o),
(270.409,-366.026,o),
(110,-64.629,o),
(110,64.549,qs),
(110.905,240.823,o),
(162.094,505.867,o),
(220,667.529,q),
(512.431,549.529,l),
(484.086,462.504,o),
(427.811,234.835,o),
(428.431,107.686,qs),
(429.871,-33.832,o),
(572.732,-218,o),
(773.922,-208,qs),
(912.412,-199,l),
(1012,-195,o),
(1136.233,-113.242,o),
(1215.505,17.045,o),
(1215.505,116.493,qs)
);
}
);
width = 2787;
},
{
anchors = (
{
name = "top-arab";
pos = (1933,921);
},
{
name = "bottom-arab";
pos = (881,-532);
}
);
associatedMasterId = m004;
attr = {
coordinates = (
1000,
1
);
};
layerId = m006;
name = ExtraBlack;
shapes = (
{
closed = 1;
nodes = (
(1146.724,921.143,l),
(1613.652,921.143,l),
(1613.318,517.579,l),
(1614.488,507.914,o),
(1618.592,500,o),
(1629.758,500,qs),
(1686.677,500,l),
(1693.622,500,o),
(1701.644,510.509,o),
(1701.644,521.438,qs),
(1702.348,922.622,l),
(2169.276,922.622,l),
(2168.572,521.438,l),
(2168.572,510.796,o),
(2176.67,500,o),
(2183.54,500,qs),
(2240.458,500,l),
(2248.415,500,o),
(2256.929,510.387,o),
(2256.929,521.438,qs),
(2256.929,922.017,l),
(2723.857,922.017,l),
(2723.857,488.366,l),
(2723.857,347.57,o),
(2589.191,124.084,o),
(2375.337,0,o),
(2240.458,0,qs),
(2183.54,0,l),
(2109.098,0,o),
(1992.756,55.403,o),
(1935.108,103.288,q),
(1870.521,47.037,o),
(1758.031,0,o),
(1686.677,0,qs),
(1629.758,0,l),
(1621.758,0,o),
(1607,4,o),
(1603,10,qs),
(1603,10,l),
(1577.267,-78.313,o),
(1459.837,-318.123,o),
(1157.311,-517.881,o),
(935.108,-537.857,qs),
(817.346,-546.286,l),
(605.753,-556.286,o),
(275.922,-349.29,o),
(83.143,-25.559,o),
(83.143,92.956,qs),
(84.565,285.864,o),
(119.93,571.594,o),
(193.647,781.483,q),
(620.861,610.34,l),
(592.068,508.698,o),
(548.846,280.455,o),
(550.071,159.1,qs),
(552.083,48.55,o),
(657.234,-61.423,o),
(817.346,-46.286,qs),
(935.105,-37.863,l),
(1021,-32,o),
(1096.301,23.459,o),
(1148.526,100.489,o),
(1148.526,156.192,qs)
);
}
);
width = 2814;
}
);
unicode = (1587,65201);
},
{
glyphname = "seen-arab.fina";
layers = (
{
anchors = (
{
name = "top-arab";
pos = (1952,632);
},
{
name = "bottom-arab";
pos = (801,-551);
}
);
layerId = m004;
shapes = (
{
closed = 1;
nodes = (
(1393.575,328.758,l),
(1393.575,218.786,o),
(1544.573,60,o),
(1642.987,60,qs),
(1672.791,60,l),
(1781.949,60,o),
(1922.137,215.299,o),
(1922.137,328.758,qs),
(1921.719,632,l),
(1980.281,632,l),
(1980.699,328.758,l),
(1980.699,215.114,o),
(2120.348,60,o),
(2230.046,60,qs),
(2259.85,60,l),
(2369.592,60,o),
(2509.261,215.109,o),
(2509.261,328.758,qs),
(2508.843,632,l),
(2567.405,632,l),
(2567.824,328.758,l),
(2567.824,217.165,o),
(2724.989,60,o),
(2836.582,60,qs),
(2911.68,60,l),
(2911.68,0,l),
(2836.582,0,l),
(2736.707,0,o),
(2575.67,110.772,o),
(2539.739,200.229,q),
(2507.048,109.755,o),
(2358.803,0,o),
(2259.85,0,qs),
(2230.046,0,l),
(2132.207,0,o),
(1984.979,107.567,o),
(1951.418,196.752,q),
(1917.857,107.567,o),
(1770.629,0,o),
(1672.791,0,qs),
(1642.987,0,l),
(1566.622,0,o),
(1432.184,84.507,o),
(1393.379,154.654,q),
(1392.729,44.08,l),
(1393.591,-137.632,o),
(1250.21,-394.341,o),
(1010.727,-530.88,o),
(872.699,-540.923,qs),
(697.928,-550.923,l),
(478.901,-560.923,o),
(260.763,-395.239,o),
(157,-132.923,o),
(157,14.914,qs),
(157,162.077,o),
(235.881,390.922,o),
(266.118,468.188,q),
(322.68,443.188,l),
(295.119,381.742,o),
(216,155.077,o),
(215.562,17.79,qs),
(216,-177.923,o),
(424.855,-509.433,o),
(697.928,-490.923,qs),
(872.699,-480.913,l),
(996.702,-470.913,o),
(1206.114,-352.392,o),
(1332.719,-128.903,o),
(1332.719,47.097,qs),
(1335.157,632.077,l),
(1393.719,632.077,l)
);
}
);
width = 2912;
},
{
anchors = (
{
name = "top-arab";
pos = (1941,816);
},
{
name = "bottom-arab";
pos = (852,-539);
}
);
associatedMasterId = m004;
attr = {
coordinates = (
800,
1
);
};
layerId = m005;
name = ExtraBold;
shapes = (
{
closed = 1;
nodes = (
(1533.411,446.416,l),
(1533,402,o),
(1589.33,340,o),
(1634.51,340,qs),
(1681.569,340,l),
(1726.314,340,o),
(1781.765,403.936,o),
(1781.765,451.373,qs),
(1781.892,816.941,l),
(2100.324,816.941,l),
(2100.196,451.373,l),
(2100.196,403.932,o),
(2155.635,340,o),
(2200.392,340,qs),
(2247.451,340,l),
(2292.868,340,o),
(2348.627,403.853,o),
(2348.627,451.373,qs),
(2348.755,816.941,l),
(2667.186,816.941,l),
(2667.059,451.373,l),
(2667.059,404.975,o),
(2732.034,340,o),
(2778.431,340,qs),
(2854.902,340,l),
(2854.902,0,l),
(2778.431,0,l),
(2689.364,0,o),
(2558.819,73.008,o),
(2511.784,133.431,q),
(2461.971,68.336,o),
(2335.036,0,o),
(2247.451,0,qs),
(2200.392,0,l),
(2118.738,0,o),
(1990.585,73.183,o),
(1940.98,137.275,q),
(1895.226,78.158,o),
(1768.775,0,o),
(1681.569,0,qs),
(1634.51,0,l),
(1601.396,0,o),
(1548.055,14.15,o),
(1526.574,25.609,qs),
(1526.547,25.794,l),
(1510.476,-99.912,o),
(1383.609,-345.866,o),
(1104.008,-529,o),
(912.414,-539,qs),
(773.922,-548,l),
(559.625,-558,o),
(270.409,-366.026,o),
(110,-64.629,o),
(110,64.549,qs),
(110.905,240.823,o),
(162.094,505.867,o),
(220,667.529,q),
(512.431,549.529,l),
(484.086,462.504,o),
(427.811,234.835,o),
(428.431,107.686,qs),
(429.871,-33.832,o),
(572.732,-218,o),
(773.922,-208,qs),
(912.412,-199,l),
(1012,-195,o),
(1136.233,-113.242,o),
(1215.505,17.045,o),
(1215.505,116.493,qs),
(1214.814,816,l),
(1533.245,816,l)
);
}
);
width = 2855;
},
{
anchors = (
{
name = "top-arab";
pos = (1935,921);
},
{
name = "bottom-arab";
pos = (881,-532);
}
);
associatedMasterId = m004;
attr = {
coordinates = (
1000,
1
);
};
layerId = m006;
name = ExtraBlack;
shapes = (
{
closed = 1;
nodes = (
(1613.318,513.649,l),
(1612.671,506.694,o),
(1614.906,500,o),
(1629.666,500,qs),
(1686.585,500,l),
(1694.523,500,o),
(1701.552,511.729,o),
(1701.552,521.438,qs),
(1701.991,922.622,l),
(2168.919,922.622,l),
(2168.48,521.438,l),
(2168.48,511.828,o),
(2175.799,500,o),
(2183.447,500,qs),
(2240.366,500,l),
(2249.026,500,o),
(2256.837,511.707,o),
(2256.837,521.438,qs),
(2257.276,922.622,l),
(2724.204,922.622,l),
(2723.765,521.438,l),
(2723.765,512.296,o),
(2736.06,500,o),
(2745.203,500,qs),
(2822.458,500,l),
(2822.458,0,l),
(2745.203,0,l),
(2662.31,0,o),
(2549.189,51.429,o),
(2495.81,95.261,q),
(2436.213,44.667,o),
(2321.455,0,o),
(2240.366,0,qs),
(2183.447,0,l),
(2111.041,0,o),
(1993.789,53.534,o),
(1935.016,103.288,q),
(1882.294,61.353,o),
(1767.715,0,o),
(1686.585,0,qs),
(1629.666,0,l),
(1621.268,0,o),
(1607,4,o),
(1603,10,qs),
(1603,10,l),
(1577.267,-78.357,o),
(1459.837,-318.167,o),
(1157.311,-517.925,o),
(935.108,-537.901,qs),
(817.346,-546.33,l),
(605.753,-556.33,o),
(275.922,-349.334,o),
(83.143,-25.603,o),
(83.143,92.912,qs),
(84.565,285.82,o),
(119.93,571.55,o),
(193.647,781.439,q),
(620.861,610.296,l),
(592.068,508.654,o),
(548.846,280.411,o),
(550.071,159.056,qs),
(552.083,48.506,o),
(657.234,-61.467,o),
(817.346,-46.33,qs),
(935.105,-37.907,l),
(1020.742,-32.335,o),
(1096.301,23.415,o),
(1148.526,100.445,o),
(1148.526,156.148,qs),
(1146.046,921.099,l),
(1612.974,921.099,l)
);
}
);
width = 2822;
}
);
unicode = 65202;
},
{
glyphname = "seen-arab.init";
layers = (
{
anchors = (
{
name = "top-arab";
pos = (940,632);
},
{
name = "bottom-arab";
pos = (940,0);
}
);
layerId = m004;
shapes = (
{
closed = 1;
nodes = (
(0.294,60,l),
(-80.098,54.314,o),
(-80.098,5.621,o),
(0.294,0,c),
(55.392,0,l),
(192.281,0,o),
(306.993,83.647,o),
(353.301,202.902,c),
(399.477,83.647,o),
(510.19,0,o),
(632.124,0,cs),
(661.928,0,l),
(795.49,0,o),
(896.987,80.974,o),
(940.556,196.752,c),
(984.124,80.974,o),
(1085.621,0,o),
(1219.183,0,cs),
(1248.987,0,l),
(1430.039,0,o),
(1556.961,146.268,o),
(1556.961,327.32,cs),
(1556.961,631.765,l),
(1498.399,631.765,l),
(1498.399,328.758,l),
(1498.399,179.967,o),
(1397.778,60,o),
(1248.987,60,cs),
(1219.183,60,l),
(1070.458,60,o),
(969.837,179.967,o),
(969.837,328.758,cs),
(969.843,632,l),
(911.281,632,l),
(911.275,328.758,l),
(911.275,179.967,o),
(809.719,60,o),
(661.928,60,cs),
(632.124,60,l),
(502.026,60,o),
(382.712,179.967,o),
(382.712,328.758,cs),
(382.719,632,l),
(324.157,632,l),
(324.15,328.758,l),
(324.15,179.967,o),
(204.183,60,o),
(55.392,60,cs)
);
}
);
width = 1728;
},
{
anchors = (
{
name = "top-arab";
pos = (943,816);
},
{
name = "bottom-arab";
pos = (944,0);
}
);
associatedMasterId = m004;
attr = {
coordinates = (
800,
1
);
};
layerId = m005;
name = ExtraBold;
shapes = (
{
closed = 1;
nodes = (
(0,340,l),
(-85.882,254.706,o),
(-85.882,84.314,o),
(0,0,c),
(106.471,0,l),
(227.804,0,o),
(310.49,50.706,o),
(375.098,131.529,c),
(437.745,50.706,o),
(516.431,0,o),
(637.451,0,cs),
(684.51,0,l),
(797.941,0,o),
(878.392,52.608,o),
(943.922,137.275,c),
(1009.451,52.608,o),
(1089.902,0,o),
(1203.333,0,cs),
(1250.392,0,l),
(1488.176,0,o),
(1670,192.02,o),
(1670,429.804,cs),
(1670,816.471,l),
(1351.569,816.471,l),
(1351.569,451.373,l),
(1351.569,389.51,o),
(1312.255,340,o),
(1250.392,340,cs),
(1203.333,340,l),
(1142.451,340,o),
(1103.137,389.51,o),
(1103.137,451.373,cs),
(1102.647,816,l),
(784.216,816,l),
(784.706,451.373,l),
(784.706,389.51,o),
(745.373,340,o),
(684.51,340,cs),
(637.451,340,l),
(575.98,340,o),
(536.275,389.51,o),
(536.275,451.373,cs),
(535.784,816,l),
(217.353,816,l),
(217.843,451.373,l),
(217.843,389.51,o),
(168.333,340,o),
(106.471,340,cs)
);
}
);
width = 1790;
},
{
anchors = (
{
name = "top-arab";
pos = (945,921);
},
{
name = "bottom-arab";
pos = (946,0);
}
);
associatedMasterId = m004;
attr = {
coordinates = (
1000,
1
);
};
layerId = m006;
name = ExtraBlack;
shapes = (
{
closed = 1;
nodes = (
(-0.168,500,l),
(-89.188,369.216,o),
(-89.188,129.281,o),
(-0.168,0,c),
(135.658,0,l),
(248.103,0,o),
(312.488,31.882,o),
(387.554,90.745,c),
(459.613,31.882,o),
(519.998,0,o),
(640.495,0,cs),
(697.414,0,l),
(799.342,0,o),
(867.767,36.399,o),
(945.845,103.288,c),
(1023.923,36.399,o),
(1092.348,0,o),
(1194.276,0,cs),
(1251.195,0,l),
(1521.398,0,o),
(1734.594,218.163,o),
(1734.594,488.366,cs),
(1734.594,922.017,l),
(1267.666,922.017,l),
(1267.666,521.438,l),
(1267.666,509.248,o),
(1263.385,500,o),
(1251.195,500,cs),
(1194.276,500,l),
(1183.59,500,o),
(1179.309,509.248,o),
(1179.309,521.438,cs),
(1178.535,921.143,l),
(711.607,921.143,l),
(712.381,521.438,l),
(712.381,509.248,o),
(708.603,500,o),
(697.414,500,cs),
(640.495,500,l),
(618.24,500,o),
(624.024,509.248,o),
(624.024,521.438,cs),
(623.25,921.143,l),
(156.322,921.143,l),
(157.096,521.438,l),
(157.096,509.248,o),
(147.848,500,o),
(135.658,500,cs)
);
}
);
width = 1825;
}
);
unicode = 65203;
},
{
glyphname = "seen-arab.medi";
layers = (
{
anchors = (
{
name = "top-arab";
pos = (940,632);
},
{
name = "bottom-arab";
pos = (940,0);
}
);
layerId = m004;
shapes = (
{
closed = 1;
nodes = (
(0.294,60,l),
(-80.098,54.314,o),
(-80.098,5.621,o),
(0.294,0,c),
(55.392,0,l),
(192.281,0,o),
(306.993,83.647,o),
(353.301,202.902,c),
(399.477,83.647,o),
(510.19,0,o),
(632.124,0,cs),
(661.928,0,l),
(795.49,0,o),
(896.987,80.974,o),
(940.556,196.752,c),
(984.124,80.974,o),
(1085.621,0,o),
(1219.183,0,cs),
(1248.987,0,l),
(1384.007,0,o),
(1486.307,82.712,o),
(1528.745,200.098,c),
(1575.987,82.712,o),
(1690.699,0,o),
(1825.719,0,cs),
(1900.817,0,l),
(1900.817,60,l),
(1825.719,60,l),
(1676.928,60,o),
(1556.961,179.967,o),
(1556.961,328.758,cs),
(1557.405,632,l),
(1498.843,632,l),
(1498.399,328.758,l),
(1498.399,179.967,o),
(1397.778,60,o),
(1248.987,60,cs),
(1219.183,60,l),
(1070.458,60,o),
(969.837,179.967,o),
(969.837,328.758,cs),
(970.281,632,l),
(911.719,632,l),
(911.275,328.758,l),
(911.275,179.967,o),
(809.719,60,o),
(661.928,60,cs),
(632.124,60,l),
(502.026,60,o),
(382.712,179.967,o),
(382.712,328.758,cs),
(383.157,632,l),
(324.595,632,l),
(324.15,328.758,l),
(324.15,179.967,o),
(204.183,60,o),
(55.392,60,cs)
);
}
);
width = 1901;
},
{
anchors = (
{
name = "top-arab";
pos = (944,816);
},
{
name = "bottom-arab";
pos = (944,0);
}
);
associatedMasterId = m004;
attr = {
coordinates = (
800,
1
);
};
layerId = m005;
name = ExtraBold;
shapes = (
{
closed = 1;
nodes = (
(0,340,l),
(-85.882,254.706,o),
(-85.882,84.314,o),
(0,0,c),
(106.471,0,l),
(227.804,0,o),
(310.49,50.706,o),
(375.098,131.529,c),
(437.745,50.706,o),
(516.431,0,o),
(637.451,0,cs),
(684.51,0,l),
(797.941,0,o),
(878.392,52.608,o),
(943.922,137.275,c),
(1009.451,52.608,o),
(1089.902,0,o),
(1203.333,0,cs),
(1250.392,0,l),
(1371.686,0,o),
(1450.196,50.686,o),
(1512.765,131.471,c),
(1577.392,50.686,o),
(1660.078,0,o),
(1781.373,0,cs),
(1857.843,0,l),
(1857.843,340,l),
(1781.373,340,l),
(1719.51,340,o),
(1670,389.51,o),
(1670,451.373,cs),
(1670.078,816,l),
(1351.647,816,l),
(1351.569,451.373,l),
(1351.569,389.51,o),
(1312.255,340,o),
(1250.392,340,cs),
(1203.333,340,l),
(1142.451,340,o),
(1103.137,389.51,o),
(1103.137,451.373,cs),
(1103.216,816,l),
(784.784,816,l),
(784.706,451.373,l),
(784.706,389.51,o),
(745.373,340,o),
(684.51,340,cs),
(637.451,340,l),
(575.98,340,o),
(536.275,389.51,o),
(536.275,451.373,cs),
(536.353,816,l),
(217.922,816,l),
(217.843,451.373,l),
(217.843,389.51,o),
(168.333,340,o),
(106.471,340,cs)
);
}
);
width = 1858;
},
{
anchors = (
{
name = "top-arab";
pos = (946,921);
},
{
name = "bottom-arab";
pos = (946,0);
}
);
associatedMasterId = m004;
attr = {
coordinates = (
1000,
1
);
};
layerId = m006;
name = ExtraBlack;
shapes = (
{
closed = 1;
nodes = (
(-0.168,500,l),
(-89.188,369.216,o),
(-89.188,129.281,o),
(-0.168,0,c),
(135.658,0,l),
(248.103,0,o),
(312.488,31.882,o),
(387.554,90.745,c),
(459.613,31.882,o),
(519.998,0,o),
(640.495,0,cs),
(697.414,0,l),
(799.342,0,o),
(867.767,36.399,o),
(945.845,103.288,c),
(1023.923,36.399,o),
(1092.348,0,o),
(1194.276,0,cs),
(1251.195,0,l),
(1364.646,0,o),
(1429.561,32.386,o),
(1503.633,92.255,c),
(1578.195,32.386,o),
(1642.581,0,o),
(1756.032,0,cs),
(1833.287,0,l),
(1833.287,500,l),
(1756.032,500,l),
(1743.842,500,o),
(1734.594,509.248,o),
(1734.594,521.438,cs),
(1734.463,921.143,l),
(1267.535,921.143,l),
(1267.666,521.438,l),
(1267.666,509.248,o),
(1263.385,500,o),
(1251.195,500,cs),
(1194.276,500,l),
(1183.59,500,o),
(1179.309,509.248,o),
(1179.309,521.438,cs),
(1179.178,921.143,l),
(712.25,921.143,l),
(712.381,521.438,l),
(712.381,509.248,o),
(708.603,500,o),
(697.414,500,cs),
(640.495,500,l),
(618.24,500,o),
(624.024,509.248,o),
(624.024,521.438,cs),
(623.894,921.143,l),
(156.965,921.143,l),
(157.096,521.438,l),
(157.096,509.248,o),
(147.848,500,o),
(135.658,500,cs)
);
}
);
width = 1833;
}
);
unicode = 65204;
},
{
glyphname = "sad-arab";
layers = (
{
anchors = (
{
name = "top-arab";
pos = (2228,802);
},
{
name = "bottom-arab";
pos = (801,-551);
}
);
layerId = m004;
shapes = (
{
closed = 1;
nodes = (
(1393.641,327.32,l),
(1393.641,222.096,o),
(1537.961,68.477,o),
(1642.301,62.026,q),
(1701.288,298.31,o),
(1996.394,813.538,o),
(2227.412,821.987,qs),
(2357.875,826.433,o),
(2541.542,711.548,o),
(2633.536,520.09,o),
(2633.536,410.993,qs),
(2633.536,301.16,o),
(2526.563,112.309,o),
(2338.101,0,o),
(2221.739,0,qs),
(1669.458,0,l),
(1582.586,0,o),
(1436.458,85.988,o),
(1392.922,158.3,q),
(1392.729,44.08,l),
(1393.591,-137.632,o),
(1250.21,-394.341,o),
(1010.727,-530.88,o),
(872.699,-540.923,qs),
(697.928,-550.923,l),
(478.901,-560.923,o),
(260.763,-395.239,o),
(157,-132.923,o),
(157,14.914,qs),
(157,162.077,o),
(235.881,390.922,o),
(266.118,468.188,q),
(322.68,443.188,l),
(295.119,381.742,o),
(216,155.077,o),
(215.562,17.79,qs),
(216,-177.923,o),
(424.855,-509.433,o),
(697.928,-490.923,qs),
(872.699,-480.913,l),
(996.702,-470.913,o),
(1206.114,-352.392,o),
(1332.719,-128.903,o),
(1332.719,47.097,qs),
(1333,632,l),
(1393.719,632.077,l)
);
},
{
closed = 1;
nodes = (
(1703,60,l),
(1728.83,139.961,o),
(1912.078,751.882,o),
(2230.137,763.425,cs),
(2461.68,771.902,o),
(2575.111,595.66,o),
(2575.111,410.993,cs),
(2575.111,222.614,o),
(2425.098,60,o),
(2221.876,60,cs)
);
}
);
width = 2791;
},
{
anchors = (
{
name = "top-arab";
pos = (2174,978);
},
{
name = "bottom-arab";
pos = (872,-539);
}
);
associatedMasterId = m004;
attr = {
coordinates = (
800,
1
);
};
layerId = m005;
name = ExtraBold;
shapes = (
{
closed = 1;
nodes = (
(1533,450,l),
(1533,405,o),
(1588.235,345.392,o),
(1633.235,340.392,q),
(1702.882,576.931,o),
(1995.047,1009.337,o),
(2233.902,1017.804,qs),
(2411.149,1024.26,o),
(2638.563,867.144,o),
(2739.765,632.419,o),
(2739.765,518.902,qs),
(2739.765,382.753,o),
(2606.408,143.752,o),
(2373.951,0,o),
(2232.804,0,qs),
(1770.588,0,l),
(1697,0,o),
(1570,48,o),
(1531,90,q),
(1531,79,l),
(1531.146,-74.057,o),
(1383.609,-345.923,o),
(1104.008,-529.056,o),
(912.414,-539.056,qs),
(773.922,-548.056,l),
(559.625,-558.056,o),
(270.409,-366.083,o),
(110,-64.685,o),
(110,64.493,qs),
(110.905,240.766,o),
(162.094,505.811,o),
(220,667.473,q),
(512.431,549.473,l),
(484.086,462.448,o),
(427.811,234.779,o),
(428.431,107.63,qs),
(429.871,-33.888,o),
(572.732,-218.056,o),
(773.922,-208.056,qs),
(912.412,-199.056,l),
(1012,-195.056,o),
(1136.233,-113.299,o),
(1215.505,16.989,o),
(1215.505,116.437,qs),
(1215.245,815.944,l),
(1533,816,l)
);
},
{
closed = 1;
nodes = (
(1914,340,l),
(1985.451,447.412,o),
(2108.957,688.345,o),
(2245.039,699.188,cs),
(2359.957,708.345,o),
(2421.667,626.902,o),
(2421.667,518.902,cs),
(2421.667,409.216,o),
(2327.471,340,o),
(2233.137,340,cs)
);
}
);
width = 2850;
},
{
anchors = (
{
name = "top-arab";
pos = (2143,1079);
},
{
name = "bottom-arab";
pos = (913,-532);
}
);
associatedMasterId = m004;
attr = {
coordinates = (
1000,
1
);
};
layerId = m006;
name = ExtraBlack;
shapes = (
{
closed = 1;
nodes = (
(1612.634,520.103,l),
(1612.634,509.517,o),
(1616.963,503.63,o),
(1628.055,499.458,q),
(1703.792,736.144,o),
(1994.278,1121.222,o),
(2237.611,1129.699,qs),
(2441.591,1137.304,o),
(2694.003,956.056,o),
(2800.467,696.607,o),
(2800.467,580.564,qs),
(2800.467,429.377,o),
(2652.033,161.719,o),
(2394.436,0,o),
(2239.127,0,qs),
(1828.377,0,l),
(1762.379,0,o),
(1646.31,26.293,o),
(1609.902,50.971,q),
(1610.012,48.954,l),
(1609.748,-37.728,o),
(1459.837,-318.256,o),
(1157.311,-518.014,o),
(935.108,-537.99,qs),
(817.346,-546.419,l),
(605.753,-556.419,o),
(275.922,-349.422,o),
(83.143,-25.692,o),
(83.143,92.823,qs),
(84.565,285.731,o),
(119.93,571.462,o),
(193.647,781.35,q),
(620.861,610.207,l),
(592.068,508.565,o),
(548.846,280.323,o),
(550.071,158.967,qs),
(552.083,48.418,o),
(657.234,-61.555,o),
(817.346,-46.419,qs),
(935.105,-37.996,l),
(1021,-32,o),
(1096.301,23.326,o),
(1148.526,100.356,o),
(1148.526,156.059,qs),
(1147.957,921.054,l),
(1612.589,921.099,l)
);
},
{
closed = 1;
nodes = (
(2034.571,500,l),
(2132.092,623.098,o),
(2221,656,o),
(2253.554,662.482,cs),
(2301.83,672.027,o),
(2333.984,644.754,o),
(2333.984,580.564,cs),
(2333.984,515.845,o),
(2271.683,500,o),
(2239.572,500,cs)
);
}
);
width = 2883;
}
);
unicode = (1589,65209);
},
{
glyphname = "sad-arab.fina";
layers = (
{
anchors = (
{
name = "top-arab";
pos = (2228,802);
},
{
name = "bottom-arab";
pos = (801,-551);
}
);
layerId = m004;
shapes = (
{
closed = 1;
nodes = (
(2543.494,152.527,q),
(2594.152,109.349,o),
(2734.966,60,o),
(2841.804,60,qs),
(2952,60,l),
(2952,0,l),
(2841.739,0,l),
(2723.089,0,o),
(2561.44,59.521,o),
(2504.449,110.216,q),
(2462.111,70.47,o),
(2327.842,2.405,o),
(2221.739,0,qs),
(1669.458,0,l),
(1582.586,0,o),
(1436.458,85.988,o),
(1392.922,158.3,q),
(1392.729,44.08,l),
(1393.591,-137.632,o),
(1250.21,-394.341,o),
(1010.727,-530.88,o),
(872.699,-540.923,qs),
(697.928,-550.923,l),
(478.901,-560.923,o),
(260.763,-395.239,o),
(157,-132.923,o),
(157,14.914,qs),
(157,162.077,o),
(235.881,390.922,o),
(266.118,468.188,q),
(322.68,443.188,l),
(295.119,381.742,o),
(216,155.077,o),
(215.562,17.79,qs),
(216,-177.923,o),
(424.855,-509.433,o),
(697.928,-490.923,qs),
(872.699,-480.913,l),
(996.702,-470.913,o),
(1206.114,-352.392,o),
(1332.719,-128.903,o),
(1332.719,47.097,qs),
(1333,632,l),
(1393.719,632.077,l),
(1393.641,327.32,l),
(1393.641,222.096,o),
(1537.961,68.477,o),
(1642.301,62.026,q),
(1701.288,298.31,o),
(1996.394,813.538,o),
(2227.412,821.987,qs),
(2357.875,826.433,o),
(2541.542,711.548,o),
(2633.536,520.09,o),
(2633.536,410.993,qs),
(2631.666,264.179,o)
);
},
{
closed = 1;
nodes = (
(1703,60,l),
(1728.83,139.961,o),
(1912.078,751.882,o),
(2230.137,763.425,cs),
(2461.68,771.902,o),
(2575.111,595.66,o),
(2575.111,410.993,cs),
(2575.111,222.614,o),
(2425.098,60,o),
(2221.876,60,cs)
);
}
);
width = 2952;
},
{
anchors = (
{
name = "top-arab";
pos = (2174,978);
},
{
name = "bottom-arab";
pos = (872,-539);
}
);
associatedMasterId = m004;
attr = {
coordinates = (
800,
1
);
};
layerId = m005;
name = ExtraBold;
shapes = (
{
closed = 1;
nodes = (
(2715.415,361.487,q),
(2756.86,350.281,o),
(2845.143,340,o),
(2851.255,340,qs),
(2914.216,340,l),
(2914.216,0,l),
(2850.294,0,l),
(2792.508,0,o),
(2636.351,56.213,o),
(2542.927,108.846,q),
(2496.265,71.507,o),
(2347.178,0,o),
(2232.804,0,qs),
(1770.588,0,l),
(1696.797,0,o),
(1569.996,47.633,o),
(1530.677,90.117,q),
(1530.633,79.557,l),
(1531.603,-73.214,o),
(1383.609,-345.923,o),
(1104.008,-529.056,o),
(912.414,-539.056,qs),
(773.922,-548.056,l),
(559.625,-558.056,o),
(270.409,-366.083,o),
(110,-64.685,o),
(110,64.493,qs),
(110.905,240.766,o),
(162.094,505.811,o),
(220,667.473,q),
(512.431,549.473,l),
(484.086,462.448,o),
(427.811,234.779,o),
(428.431,107.63,qs),
(429.871,-33.888,o),
(572.732,-218.056,o),
(773.922,-208.056,qs),
(912.412,-199.056,l),
(1012,-195.056,o),
(1136.233,-113.299,o),
(1215.505,16.989,o),
(1215.505,116.437,qs),
(1215.245,815.944,l),
(1533.676,815.944,l),
(1533,450,l),
(1533,405,o),
(1588.235,345.392,o),
(1633.235,340.392,q),
(1702.882,576.931,o),
(1995.047,1009.337,o),
(2233.902,1017.804,qs),
(2411.149,1024.26,o),
(2638.563,867.144,o),
(2739.765,632.419,o),
(2739.765,518.902,qs),
(2739.765,438.602,o)
);
},
{
closed = 1;
nodes = (
(1914,340,l),
(1985.451,447.412,o),
(2108.957,688.345,o),
(2245.039,699.188,cs),
(2359.957,708.345,o),
(2421.667,626.902,o),
(2421.667,518.902,cs),
(2421.667,409.216,o),
(2327.471,340,o),
(2233.137,340,cs)
);
}
);
width = 2914;
},
{
anchors = (
{
name = "top-arab";
pos = (2143,1079);
},
{
name = "bottom-arab";
pos = (913,-532);
}
);
associatedMasterId = m004;
attr = {
coordinates = (
1000,
1
);
};
layerId = m006;
name = ExtraBlack;
shapes = (
{
closed = 1;
nodes = (
(2793.656,500.892,q),
(2820,500,o),
(2838.101,500,o),
(2856.655,500,qs),
(2892.625,500,l),
(2892.625,0,l),
(2855.183,0,l),
(2832.176,0,o),
(2679.157,54.323,o),
(2564.915,108.063,q),
(2515.781,72.1,o),
(2358.228,-1.374,o),
(2239.127,0,qs),
(1828.377,0,l),
(1762.06,0,o),
(1646.304,25.716,o),
(1609.394,51.155,q),
(1609.436,49.83,l),
(1610.467,-36.404,o),
(1459.837,-318.256,o),
(1157.311,-518.014,o),
(935.108,-537.99,qs),
(817.346,-546.419,l),
(605.753,-556.419,o),
(275.922,-349.422,o),
(83.143,-25.692,o),
(83.143,92.823,qs),
(84.565,285.731,o),
(119.93,571.462,o),
(193.647,781.35,q),
(620.861,610.207,l),
(592.068,508.565,o),
(548.846,280.323,o),
(550.071,158.967,qs),
(552.083,48.418,o),
(657.234,-61.555,o),
(817.346,-46.419,qs),
(935.105,-37.996,l),
(1021,-32,o),
(1096.301,23.326,o),
(1148.526,100.356,o),
(1148.526,156.059,qs),
(1147.957,921.054,l),
(1613.652,921.01,l),
(1612.634,520.103,l),
(1612.634,509.517,o),
(1616.963,503.63,o),
(1628.055,499.458,q),
(1703.792,736.144,o),
(1994.278,1121.222,o),
(2237.611,1129.699,qs),
(2441.591,1137.304,o),
(2694.003,956.056,o),
(2800.467,696.607,o),
(2800.467,580.564,q),
(2801.535,538.273,o)
);
},
{
closed = 1;
nodes = (
(2034.571,500,l),
(2132.092,623.098,o),
(2221,656,o),
(2253.554,662.482,cs),
(2301.83,672.027,o),
(2333.984,644.754,o),
(2333.984,580.564,cs),
(2333.984,515.845,o),
(2271.683,500,o),
(2239.572,500,cs)
);
}
);
width = 2892;
}
);
unicode = 65210;
},
{
glyphname = "sad-arab.init";
layers = (
{
anchors = (
{
name = "top-arab";
pos = (1213,802);
},
{
name = "bottom-arab";
pos = (953,0);
}
);
layerId = m004;
shapes = (
{
closed = 1;
nodes = (
(688.405,60,l),
(714.235,139.961,o),
(897.484,751.882,o),
(1215.542,763.425,cs),
(1447.085,771.902,o),
(1560.516,595.66,o),
(1560.516,410.993,cs),
(1560.516,222.614,o),
(1410.503,60,o),
(1207.281,60,cs)
);
},
{
closed = 1;
nodes = (
(0.294,60,l),
(-80.098,54.314,o),
(-80.098,5.621,o),
(0.294,0,c),
(51.863,0,l),
(188.817,0,o),
(303.529,83.712,o),
(349.902,203.098,c),
(396.275,83.712,o),
(510.987,0,o),
(647.941,0,cs),
(1207.281,0,l),
(1445.941,0,o),
(1619.078,190.203,o),
(1619.078,410.993,cs),
(1619.078,620.275,o),
(1486.667,831.314,o),
(1212.954,821.987,cs),
(831.935,808.052,o),
(639.98,100.719,o),
(627.843,62.026,c),
(488.928,70.614,o),
(379.183,186.817,o),
(379.183,327.32,cs),
(379.562,632,l),
(321,632,l),
(320.621,328.758,l),
(320.621,179.967,o),
(200.588,60,o),
(51.863,60,cs)
);
}
);
width = 1776;
},
{
anchors = (
{
name = "top-arab";
pos = (1164,978);
},
{
name = "bottom-arab";
pos = (1051,0);
}
);
associatedMasterId = m004;
attr = {
coordinates = (
800,
1
);
};
layerId = m005;
name = ExtraBold;
shapes = (
{
closed = 1;
nodes = (
(864,340,l),
(935.451,447.412,o),
(1058.957,688.345,o),
(1195.039,699.188,cs),
(1309.957,708.345,o),
(1371.667,626.902,o),
(1371.667,518.902,cs),
(1371.667,409.216,o),
(1277.471,340,o),
(1183.137,340,cs)
);
},
{
closed = 1;
nodes = (
(0.412,340,l),
(-85.471,254.706,o),
(-85.471,84.314,o),
(0.412,0,c),
(53.941,0,l),
(176.255,0,o),
(258.941,51.686,o),
(324.529,134.471,c),
(390.118,51.686,o),
(472.804,0,o),
(615.118,0,cs),
(1183.216,0,l),
(1473.118,0,o),
(1690.176,245.039,o),
(1690.176,518.902,cs),
(1690.176,718.118,o),
(1566,1031.706,o),
(1184.314,1017.804,cs),
(817.02,1004.784,o),
(639.706,530.784,o),
(583.647,340.392,c),
(527,347,o),
(484,393,o),
(483.745,449.804,cs),
(484.216,816,l),
(165.784,816,l),
(165.314,451.373,l),
(165.314,389.51,o),
(114.824,340,o),
(53.941,340,cs)
);
}
);
width = 1800;
},
{
anchors = (
{
name = "top-arab";
pos = (1136,1079);
},
{
name = "bottom-arab";
pos = (1107,0);
}
);
associatedMasterId = m004;
attr = {
coordinates = (
1000,
1
);
};
layerId = m006;
name = ExtraBlack;
shapes = (
{
closed = 1;
nodes = (
(964.34,500,l),
(1061.86,623.098,o),
(1151,656,o),
(1183.322,662.482,cs),
(1231.599,672.027,o),
(1263.753,644.754,o),
(1263.753,580.564,cs),
(1263.753,515.845,o),
(1201.452,500,o),
(1169.341,500,cs)
);
},
{
closed = 1;
nodes = (
(0.479,500,l),
(-88.541,369.216,o),
(-88.541,129.281,o),
(0.479,0,c),
(55.129,0,l),
(169.077,0,o),
(233.462,33.386,o),
(310.031,95.255,c),
(386.599,33.386,o),
(450.985,0,o),
(596.361,0,cs),
(1169.464,0,l),
(1488.647,0,o),
(1730.804,276.374,o),
(1730.804,580.564,cs),
(1730.804,774.028,o),
(1611.333,1146.216,o),
(1167.948,1129.699,cs),
(808.497,1117.203,o),
(639.549,776.536,o),
(558.392,499.458,c),
(548.755,504.935,o),
(543.895,510.819,o),
(543.495,519.795,c),
(544.018,921.143,l),
(77.09,921.143,l),
(76.567,521.438,l),
(76.567,509.248,o),
(65.815,500,o),
(55.129,500,cs)
);
}
);
width = 1814;
}
);
unicode = 65211;
},
{
glyphname = "sad-arab.medi";
layers = (
{
anchors = (
{
name = "top-arab";
pos = (1213,802);
},
{
name = "bottom-arab";
pos = (953,0);
}
);
layerId = m004;
shapes = (
{
closed = 1;
nodes = (
(688.405,60,l),
(714.235,139.961,o),
(897.484,751.882,o),
(1215.542,763.425,cs),
(1447.085,771.902,o),
(1560.516,595.66,o),
(1560.516,410.993,cs),
(1560.516,222.614,o),
(1410.503,60,o),
(1207.281,60,cs)
);
},
{
closed = 1;
nodes = (
(1586.147,224.226,o),
(1619.078,314.701,o),
(1619.078,410.993,cs),
(1619.078,620.275,o),
(1486.667,831.314,o),
(1212.954,821.987,cs),
(831.935,808.052,o),
(639.98,100.719,o),
(627.843,62.026,c),
(488.928,70.614,o),
(379.183,186.817,o),
(379.183,327.32,cs),
(379.562,632,l),
(321,632,l),
(320.621,328.758,l),
(320.621,179.967,o),
(200.588,60,o),
(51.863,60,cs),
(0.294,60,l),
(-80.098,54.314,o),
(-80.098,5.621,o),
(0.294,0,c),
(51.863,0,l),
(188.817,0,o),
(303.529,83.712,o),
(349.902,203.098,c),
(396.275,83.712,o),
(510.987,0,o),
(647.941,0,cs),
(1207.281,0,l),
(1319.986,0,o),
(1418.079,42.417,o),
(1490.215,110.43,c),
(1570.403,39.087,o),
(1688.495,0,o),
(1827.739,0,cs),
(1938,0,l),
(1938,60,l),
(1827.804,60,l),
(1709.892,60,o),
(1604.862,88.383,o),
(1529.199,152.796,c)
);
}
);
width = 1938;
},
{
anchors = (
{
name = "top-arab";
pos = (1164,978);
},
{
name = "bottom-arab";
pos = (1051,0);
}
);
associatedMasterId = m004;
attr = {
coordinates = (
800,
1
);
};
layerId = m005;
name = ExtraBold;
shapes = (
{
closed = 1;
nodes = (
(864,340,l),
(935.451,447.412,o),
(1058.957,688.345,o),
(1195.039,699.188,cs),
(1309.957,708.345,o),
(1371.667,626.902,o),
(1371.667,518.902,cs),
(1371.667,409.216,o),
(1277.471,340,o),
(1183.137,340,cs)
);
},
{
closed = 1;
nodes = (
(1681.639,411.407,o),
(1690.176,464.587,o),
(1690.176,518.902,cs),
(1690.176,718.118,o),
(1566,1031.706,o),
(1184.314,1017.804,cs),
(817.02,1004.784,o),
(639.706,530.784,o),
(583.647,340.392,c),
(527,347,o),
(484,393,o),
(483.745,449.804,cs),
(484.216,816,l),
(165.784,816,l),
(165.314,451.373,l),
(165.314,389.51,o),
(114.824,340,o),
(53.941,340,cs),
(0.412,340,l),
(-85.471,254.706,o),
(-85.471,84.314,o),
(0.412,0,c),
(53.941,0,l),
(176.255,0,o),
(258.941,51.686,o),
(324.529,134.471,c),
(390.118,51.686,o),
(472.804,0,o),
(615.118,0,cs),
(1183.216,0,l),
(1301.953,0,o),
(1408.47,41.106,o),
(1492.849,108.455,c),
(1590.832,53.258,o),
(1694.769,-0.314,o),
(1800.078,-0.314,cs),
(1864,-0.314,l),
(1864,339.686,l),
(1801.039,339.686,l),
(1776.102,339.686,o),
(1733.203,342.827,o),
(1665.686,361.041,c)
);
}
);
width = 1864;
},
{
anchors = (
{
name = "top-arab";
pos = (1136,1079);
},
{
name = "bottom-arab";
pos = (1107,0);
}
);
associatedMasterId = m004;
attr = {
coordinates = (
1000,
1
);
};
layerId = m006;
name = ExtraBlack;
shapes = (
{
closed = 1;
nodes = (
(964.34,500,l),
(1061.86,623.098,o),
(1151,656,o),
(1183.322,662.482,cs),
(1231.599,672.027,o),
(1263.753,644.754,o),
(1263.753,580.564,cs),
(1263.753,515.845,o),
(1201.452,500,o),
(1169.341,500,cs)
);
},
{
closed = 1;
nodes = (
(1726.206,528.367,o),
(1730.804,550.237,o),
(1730.804,580.564,cs),
(1730.804,774.028,o),
(1611.333,1146.216,o),
(1167.948,1129.699,cs),
(808.497,1117.203,o),
(639.549,776.536,o),
(558.392,499.458,c),
(548.755,504.935,o),
(543.895,510.819,o),
(543.495,519.795,c),
(544.018,921.143,l),
(77.09,921.143,l),
(76.567,521.438,l),
(76.567,509.248,o),
(65.815,500,o),
(55.129,500,cs),
(0.479,500,l),
(-88.541,369.216,o),
(-88.541,129.281,o),
(0.479,0,c),
(55.129,0,l),
(169.077,0,o),
(233.462,33.386,o),
(310.031,95.255,c),
(386.599,33.386,o),
(450.985,0,o),
(596.361,0,cs),
(1169.464,0,l),
(1291.648,0,o),
(1402.979,40.357,o),
(1494.355,107.326,c),
(1602.506,61.356,o),
(1698.354,-0.493,o),
(1784.273,-0.493,cs),
(1821.714,-0.493,l),
(1821.714,499.507,l),
(1785.745,499.507,l),
(1763.937,499.507,o),
(1747,500,o),
(1723.679,500.039,c)
);
}
);
width = 1822;
}
);
unicode = 65212;
},
{
glyphname = "tah-arab";
layers = (
{
anchors = (
{
name = "top-arab";
pos = (1043,822);
},
{
name = "bottom-arab";
pos = (753,0);
}
);
layerId = m004;
shapes = (
{
closed = 1;
nodes = (
(421.719,1483,l),
(421.011,249.785,l),
(382.21,149.455,o),
(360.919,72.652,o),
(356.843,60.026,c),
(171,60,l),
(171,0,l),
(937.281,0,l),
(1175.941,0,o),
(1349.078,190.203,o),
(1349.078,410.993,cs),
(1349.078,620.275,o),
(1216.667,831.314,o),
(942.954,821.987,cs),
(729.79,814.191,o),
(575.802,589.367,o),
(479.192,385.656,c),
(479.928,904.771,l),
(480.281,1483,l)
);
},
{
closed = 1;
nodes = (
(937.281,60,cs),
(418.405,60,l),
(444.235,139.961,o),
(627.484,751.882,o),
(945.542,763.425,cs),
(1177.085,771.902,o),
(1290.516,595.66,o),
(1290.516,410.993,cs),
(1290.516,222.614,o),
(1140.503,60,o)
);
}
);
width = 1518;
},
{
anchors = (
{
name = "top-arab";
pos = (507,1504);
},
{
name = "bottom-arab";
pos = (799,0);
}
);
associatedMasterId = m004;
attr = {
coordinates = (
800,
1
);
};
layerId = m005;
name = ExtraBold;
shapes = (
{
closed = 1;
nodes = (
(347.686,1524,l),
(347.49,377.392,l),
(340.941,360.039,o),
(336.647,347.039,o),
(333.667,340,c),
(120,340,l),
(120,0,l),
(963.216,0,l),
(1253.118,0,o),
(1470.176,245.039,o),
(1470.176,518.902,cs),
(1470.176,738.118,o),
(1336,1031.706,o),
(964.314,1017.804,cs),
(853.432,1013.657,o),
(758.054,947.924,o),
(659.963,821.252,c),
(665.922,1041.569,l),
(666.118,1524,l)
);
},
{
closed = 1;
nodes = (
(963.216,340,cs),
(644.078,340,l),
(715.529,447.412,o),
(839.036,688.345,o),
(975.117,699.188,cs),
(1090.036,708.345,o),
(1151.745,626.902,o),
(1151.745,518.902,cs),
(1151.745,409.216,o),
(1057.549,340,o)
);
}
);
width = 1579;
},
{
anchors = (
{
name = "top-arab";
pos = (201,1894);
},
{
name = "bottom-arab";
pos = (825,0);
}
);
associatedMasterId = m004;
attr = {
coordinates = (
1000,
1
);
};
layerId = m006;
name = ExtraBlack;
shapes = (
{
closed = 1;
nodes = (
(305.382,1547.429,l),
(305,500,l),
(305,500,o),
(305,500,o),
(305,500,c),
(90.857,500,l),
(90.857,0,l),
(978.035,0,l),
(1297.218,0,o),
(1539.375,276.374,o),
(1539.375,580.564,cs),
(1539.375,805.457,o),
(1404.19,1146.216,o),
(976.519,1129.699,cs),
(924.084,1127.637,o),
(862.198,1112.814,o),
(763.261,1030.165,c),
(772.204,1079.739,l),
(772.31,1547.429,l)
);
},
{
closed = 1;
nodes = (
(978.035,500,cs),
(773.035,500,l),
(870.555,623.098,o),
(956.923,655.038,o),
(992.017,662.482,cs),
(1040.293,672.027,o),
(1072.447,644.754,o),
(1072.447,580.564,cs),
(1072.447,515.845,o),
(1010.147,500,o)
);
}
);
width = 1614;
}
);
unicode = (1591,65217);
},
{
glyphname = "tah-arab.fina";
layers = (
{
anchors = (
{
name = "top-arab";
pos = (1043,822);
},
{
name = "bottom-arab";
pos = (753,0);
}
);
layerId = m004;
shapes = (
{
closed = 1;
nodes = (
(937.281,60,cs),
(418.405,60,l),
(444.235,139.961,o),
(627.484,751.882,o),
(945.542,763.425,cs),
(1177.085,771.902,o),
(1290.516,595.66,o),
(1290.516,410.993,cs),
(1290.516,222.614,o),
(1140.503,60,o)
);
},
{
closed = 1;
nodes = (
(1315.832,223.365,o),
(1349.078,314.242,o),
(1349.078,410.993,cs),
(1349.078,620.275,o),
(1216.667,831.314,o),
(942.954,821.987,cs),
(729.79,814.191,o),
(575.802,589.367,o),
(479.192,385.656,c),
(479.928,904.771,l),
(480.281,1483,l),
(421.719,1483,l),
(421.011,249.785,l),
(382.21,149.455,o),
(360.919,72.652,o),
(356.843,60.026,c),
(171,60,l),
(171,0,l),
(937.281,0,l),
(1049.473,0,o),
(1147.185,42.032,o),
(1219.244,109.519,c),
(1299.419,38.751,o),
(1416.922,0,o),
(1555.739,0,cs),
(1666,0,l),
(1666,60,l),
(1555.804,60,l),
(1438.3,60,o),
(1333.963,88.086,o),
(1258.391,151.786,c)
);
}
);
width = 1666;
},
{
anchors = (
{
name = "top-arab";
pos = (507,1504);
},
{
name = "bottom-arab";
pos = (799,0);
}
);
associatedMasterId = m004;
attr = {
coordinates = (
800,
1
);
};
layerId = m005;
name = ExtraBold;
shapes = (
{
closed = 1;
nodes = (
(963.216,340,cs),
(644.078,340,l),
(715.529,447.412,o),
(839.036,688.345,o),
(975.117,699.188,cs),
(1090.036,708.345,o),
(1151.745,626.902,o),
(1151.745,518.902,cs),
(1151.745,409.216,o),
(1057.549,340,o)
);
},
{
closed = 1;
nodes = (
(1461.671,411.608,o),
(1470.176,464.69,o),
(1470.176,518.902,cs),
(1470.176,738.118,o),
(1336,1031.706,o),
(964.314,1017.804,cs),
(853.432,1013.657,o),
(758.054,947.924,o),
(659.963,821.252,c),
(665.922,1041.569,l),
(666.118,1524,l),
(347.686,1524,l),
(347.49,377.392,l),
(340.941,360.039,o),
(336.647,347.039,o),
(333.667,340,c),
(120,340,l),
(120,0,l),
(963.216,0,l),
(1082.059,0,o),
(1188.661,41.18,o),
(1273.08,108.639,c),
(1370.997,53.487,o),
(1474.884,0,o),
(1580.078,0,cs),
(1644,0,l),
(1644,340,l),
(1581.039,340,l),
(1536.132,340,o),
(1483.241,353.138,o),
(1425.778,381.33,c)
);
}
);
width = 1644;
},
{
anchors = (
{
name = "top-arab";
pos = (201,1894);
},
{
name = "bottom-arab";
pos = (825,0);
}
);
associatedMasterId = m004;
attr = {
coordinates = (
1000,
1
);
};
layerId = m006;
name = ExtraBlack;
shapes = (
{
closed = 1;
nodes = (
(978.035,500,cs),
(773.035,500,l),
(870.555,623.098,o),
(956.923,655.038,o),
(992.017,662.482,cs),
(1040.293,672.027,o),
(1072.447,644.754,o),
(1072.447,580.564,cs),
(1072.447,515.845,o),
(1010.147,500,o)
);
},
{
closed = 1;
nodes = (
(1535.007,519.175,o),
(1539.375,550.66,o),
(1539.375,580.564,cs),
(1539.375,805.457,o),
(1404.19,1146.216,o),
(976.519,1129.699,cs),
(924.084,1127.637,o),
(862.198,1112.814,o),
(763.261,1030.165,c),
(772.204,1079.739,l),
(772.31,1547.429,l),
(305.382,1547.429,l),
(305.478,500,l),
(305.478,500,o),
(305.478,500,o),
(305.478,500,c),
(90.857,500,l),
(90.857,0,l),
(978.035,0,l),
(1100.679,0,o),
(1212.361,40.692,o),
(1303.843,108.136,c),
(1411.899,61.907,o),
(1508.005,0,o),
(1593.987,0,cs),
(1631.429,0,l),
(1631.429,500,l),
(1595.459,500,l),
(1582.035,500,o),
(1559,500,o),
(1531.428,502.499,c)
);
}
);
width = 1631;
}
);
unicode = 65218;
},
{
glyphname = "tah-arab.init";
layers = (
{
anchors = (
{
name = "top-arab";
pos = (993,822);
},
{
name = "bottom-arab";
pos = (703,0);
}
);
layerId = m004;
shapes = (
{
closed = 1;
nodes = (
(679.79,814.191,o),
(525.802,589.367,o),
(429.192,385.656,c),
(429.928,904.771,l),
(430.281,1483,l),
(371.719,1483,l),
(371.011,249.785,l),
(332.21,149.455,o),
(310.919,72.652,o),
(306.843,60.026,c),
(0,60,l),
(-80,54,o),
(-80,6,o),
(0,0,c),
(887.281,0,l),
(1125.941,0,o),
(1299.078,190.203,o),
(1299.078,410.993,cs),
(1299.078,620.275,o),
(1166.667,831.314,o),
(892.954,821.987,cs)
);
},
{
closed = 1;
nodes = (
(1240.516,222.614,o),
(1090.503,60,o),
(887.281,60,cs),
(368.405,60,l),
(394.235,139.961,o),
(577.484,751.882,o),
(895.542,763.425,cs),
(1127.085,771.902,o),
(1240.516,595.66,o),
(1240.516,410.993,cs)
);
}
);
width = 1468;
},
{
anchors = (
{
name = "top-arab";
pos = (357,1504);
},
{
name = "bottom-arab";
pos = (660,0);
}
);
associatedMasterId = m004;
attr = {
coordinates = (
800,
1
);
};
layerId = m005;
name = ExtraBold;
shapes = (
{
closed = 1;
nodes = (
(704.255,1013.657,o),
(608.878,947.924,o),
(510.787,821.252,c),
(516.745,1041.569,l),
(516.941,1524,l),
(198.51,1524,l),
(198.314,377.392,l),
(191.765,360.039,o),
(187.471,347.039,o),
(184.49,340,c),
(0,340,l),
(-85,255,o),
(-85,84,o),
(0,0,c),
(814.039,0,l),
(1103.941,0,o),
(1321,245.039,o),
(1321,518.902,cs),
(1321,738.118,o),
(1186.824,1031.706,o),
(815.137,1017.804,cs)
);
},
{
closed = 1;
nodes = (
(1002.569,409.216,o),
(908.373,340,o),
(814.039,340,cs),
(494.902,340,l),
(566.353,447.412,o),
(689.859,688.345,o),
(825.941,699.188,cs),
(940.859,708.345,o),
(1002.569,626.902,o),
(1002.569,518.902,cs)
);
}
);
width = 1430;
},
{
anchors = (
{
name = "top-arab";
pos = (-6,1894);
},
{
name = "bottom-arab";
pos = (635,0);
}
);
associatedMasterId = m004;
attr = {
coordinates = (
1000,
1
);
};
layerId = m006;
name = ExtraBlack;
shapes = (
{
closed = 1;
nodes = (
(718.235,1127.637,o),
(656.349,1112.814,o),
(557.412,1030.165,c),
(566.355,1079.739,l),
(566.461,1547.429,l),
(99.533,1547.429,l),
(100,500,l),
(100,500,o),
(100,500,o),
(100,500,c),
(0,500,l),
(-87.857,369.857,o),
(-87.857,128.571,o),
(0,0,c),
(772.187,0,l),
(1091.37,0,o),
(1333.527,276.374,o),
(1333.527,580.564,cs),
(1333.527,805.457,o),
(1198.342,1146.216,o),
(770.67,1129.699,cs)
);
},
{
closed = 1;
nodes = (
(866.413,515.845,o),
(804.112,500,o),
(772.001,500,cs),
(567,500,l),
(664.52,623.098,o),
(750.888,655.038,o),
(785.982,662.482,cs),
(834.259,672.027,o),
(866.413,644.754,o),
(866.413,580.564,cs)
);
}
);
width = 1408;
}
);
unicode = 65219;
},
{
glyphname = "tah-arab.medi";
layers = (
{
anchors = (
{
name = "top-arab";
pos = (993,822);
},
{
name = "bottom-arab";
pos = (703,0);
}
);
layerId = m004;
shapes = (
{
closed = 1;
nodes = (
(1240.516,222.614,o),
(1090.503,60,o),
(887.281,60,cs),
(368.405,60,l),
(394.235,139.961,o),
(577.484,751.882,o),
(895.542,763.425,cs),
(1127.085,771.902,o),
(1240.516,595.66,o),
(1240.516,410.993,cs)
);
},
{
closed = 1;
nodes = (
(1249.419,38.751,o),
(1366.922,0,o),
(1505.739,0,cs),
(1616,0,l),
(1616,60,l),
(1505.804,60,l),
(1388.3,60,o),
(1283.963,88.086,o),
(1208.391,151.786,c),
(1265.832,223.365,o),
(1299.078,314.242,o),
(1299.078,410.993,cs),
(1299.078,620.275,o),
(1166.667,831.314,o),
(892.954,821.987,cs),
(679.79,814.191,o),
(525.802,589.367,o),
(429.192,385.656,c),
(429.928,904.771,l),
(430.281,1483,l),
(371.719,1483,l),
(371.011,249.785,l),
(332.21,149.455,o),
(310.919,72.652,o),
(306.843,60.026,c),
(0,60,l),
(-80,54,o),
(-80,6,o),
(0,0,c),
(887.281,0,l),
(999.473,0,o),
(1097.185,42.032,o),
(1169.244,109.519,c)
);
}
);
width = 1616;
},
{
anchors = (
{
name = "top-arab";
pos = (357,1504);
},
{
name = "bottom-arab";
pos = (660,0);
}
);
associatedMasterId = m004;
attr = {
coordinates = (
800,
1
);
};
layerId = m005;
name = ExtraBold;
shapes = (
{
closed = 1;
nodes = (
(1002.569,409.216,o),
(908.373,340,o),
(814.039,340,cs),
(494.902,340,l),
(566.353,447.412,o),
(689.859,688.345,o),
(825.941,699.188,cs),
(940.859,708.345,o),
(1002.569,626.902,o),
(1002.569,518.902,cs)
);
},
{
closed = 1;
nodes = (
(1221.328,53.317,o),
(1325.115,0,o),
(1430.078,0,cs),
(1494,0,l),
(1494,340,l),
(1431.039,340,l),
(1386.375,340,o),
(1333.563,353.114,o),
(1276.537,381.126,c),
(1312.472,411.47,o),
(1321,464.62,o),
(1321,518.902,cs),
(1321,738.118,o),
(1186.824,1031.706,o),
(815.137,1017.804,cs),
(704.255,1013.657,o),
(608.878,947.924,o),
(510.787,821.252,c),
(516.745,1041.569,l),
(516.941,1524,l),
(198.51,1524,l),
(198.314,377.392,l),
(191.765,360.039,o),
(187.471,347.039,o),
(184.49,340,c),
(0,340,l),
(-85,255,o),
(-85,84,o),
(0,0,c),
(814.039,0,l),
(932.723,0,o),
(1039.198,41.069,o),
(1123.563,108.367,c)
);
}
);
width = 1494;
},
{
anchors = (
{
name = "top-arab";
pos = (-6,1894);
},
{
name = "bottom-arab";
pos = (635,0);
}
);
associatedMasterId = m004;
attr = {
coordinates = (
1000,
1
);
};
layerId = m006;
name = ExtraBlack;
shapes = (
{
closed = 1;
nodes = (
(866.413,515.845,o),
(804.112,500,o),
(772.001,500,cs),
(567,500,l),
(664.52,623.098,o),
(750.888,655.038,o),
(785.982,662.482,cs),
(834.259,672.027,o),
(866.413,644.754,o),
(866.413,580.564,cs)
);
},
{
closed = 1;
nodes = (
(1205.275,61.64,o),
(1301.225,0,o),
(1386.844,0,cs),
(1424.286,0,l),
(1424.286,500,l),
(1388.317,500,l),
(1375.274,500,o),
(1352,500,o),
(1315.477,502.178,c),
(1329.124,518.959,o),
(1333.527,550.55,o),
(1333.527,580.564,cs),
(1333.527,805.457,o),
(1198.342,1146.216,o),
(770.67,1129.699,cs),
(718.235,1127.637,o),
(656.349,1112.814,o),
(557.412,1030.165,c),
(566.355,1079.739,l),
(566.461,1547.429,l),
(99.533,1547.429,l),
(100,500,l),
(100,500,o),
(100,500,o),
(100,500,c),
(0,500,l),
(-87.857,369.857,o),
(-87.857,128.571,o),
(0,0,c),
(772.187,0,l),
(894.58,0,o),
(1006.063,40.519,o),
(1097.459,107.708,c)
);
}
);
width = 1424;
}
);
unicode = 65220;
},
{
glyphname = "ain-arab";
layers = (
{
anchors = (
{
name = "top-arab";
pos = (719,860);
},
{
name = "bottom-arab";
pos = (720,-721);
}
);
layerId = m004;
shapes = (
{
closed = 1;
nodes = (
(1088.451,-721,l),
(1088.451,-661.065,l),
(653.732,-661.065,l),
(452.333,-661.065,o),
(249.562,-549.732,o),
(249.562,-298.333,cs),
(249.562,-96.935,o),
(422.333,65.837,o),
(623.732,65.837,cs),
(1086.359,65.837,l),
(1086.359,125.837,l),
(721.948,125.837,l),
(527,126,o),
(409.301,304.255,o),
(409.301,473.588,cs),
(409.301,676.503,o),
(536.224,839.657,o),
(721.556,840.647,cs),
(831.699,841.235,o),
(936.562,790.719,o),
(1019.157,753.085,c),
(1031.693,816.405,l),
(963.49,843.235,o),
(846.51,901.19,o),
(719.203,900.013,cs),
(502.44,898.01,o),
(350.739,710.765,o),
(350.739,474.523,cs),
(350.739,332.725,o),
(424.32,176.19,o),
(549.072,112.667,c),
(351.405,78.353,o),
(191,-90.706,o),
(191,-298.333,cs),
(191,-581.993,o),
(420.007,-721,o),
(653.732,-721,cs)
);
}
);
width = 1249;
},
{
anchors = (
{
name = "top-arab";
pos = (732,997);
},
{
name = "bottom-arab";
pos = (710,-678);
}
);
associatedMasterId = m004;
attr = {
coordinates = (
800,
1
);
};
layerId = m005;
name = ExtraBold;
shapes = (
{
closed = 1;
nodes = (
(1130,-678,l),
(1130,-338.98,l),
(655.765,-338.98,l),
(546.784,-338.98,o),
(437.431,-270.98,o),
(437.431,-162,cs),
(437.431,-53.02,o),
(527.118,36.549,o),
(636.098,36.549,cs),
(1129.51,36.549,l),
(1129.51,376.549,l),
(723.333,376.549,l),
(633,377,o),
(584,462,o),
(583.627,544.824,cs),
(583.627,640.549,o),
(646,720.427,o),
(737.451,720.706,cs),
(834,721,o),
(942.549,688.784,o),
(1024.471,648.275,c),
(1081.51,959.078,l),
(1018.471,991.529,o),
(888,1037.015,o),
(732.157,1037.196,cs),
(471,1037.499,o),
(265.196,798.471,o),
(265.196,564.843,cs),
(265.196,477.882,o),
(304.922,319.843,o),
(370.196,249,c),
(219.196,154.294,o),
(119,26.412,o),
(119,-162,cs),
(119,-446.902,o),
(369.882,-678,o),
(655.765,-678,cs)
);
}
);
width = 1250;
},
{
anchors = (
{
name = "top-arab";
pos = (739,1075);
},
{
name = "bottom-arab";
pos = (704,-653);
}
);
associatedMasterId = m004;
attr = {
coordinates = (
1000,
1
);
};
layerId = m006;
name = ExtraBlack;
shapes = (
{
closed = 1;
nodes = (
(1153.742,-653.429,l),
(1153.742,-154.932,l),
(656.926,-154.932,l),
(600.756,-154.932,o),
(544.785,-111.694,o),
(544.785,-84.095,cs),
(544.785,-27.925,o),
(586.994,19.813,o),
(643.164,19.813,cs),
(1154.167,19.813,l),
(1154.167,519.813,l),
(724.125,519.813,l),
(693.571,520.429,o),
(683.828,552.14,o),
(683.243,585.529,cs),
(683.243,620.004,o),
(708.729,652.296,o),
(746.534,652.168,cs),
(835.315,652.294,o),
(945.97,630.536,o),
(1027.507,588.383,c),
(1109.977,1040.606,l),
(1049.888,1076.269,o),
(911.709,1114.63,o),
(739.559,1115.586,cs),
(453.034,1117.208,o),
(216.315,848.588,o),
(216.315,616.455,cs),
(216.315,560.829,o),
(236.694,401.931,o),
(267.981,326.905,c),
(143.648,197.689,o),
(77.857,93.336,o),
(77.857,-84.095,cs),
(77.857,-369.707,o),
(341.24,-653.429,o),
(656.926,-653.429,cs)
);
}
);
width = 1251;
}
);
unicode = (1593,65225);
},
{
glyphname = "ain-arab.fina";
layers = (
{
anchors = (
{
name = "top-arab";
pos = (691,785);
},
{
name = "bottom-arab";
pos = (720,0);
}
);
layerId = m004;
shapes = (
{
closed = 1;
nodes = (
(1115,-721,l),
(1115,-661.065,l),
(630.601,-661.065,l),
(418.941,-661.065,o),
(219.562,-558.359,o),
(219.562,-326.608,cs),
(219.562,-166.725,o),
(347.948,-73.601,o),
(571.451,55.843,c),
(601.039,68.647,o),
(621.824,78.516,o),
(649.542,92.516,c),
(738.359,0.987,o),
(786.232,0,o),
(1044.98,0,cs),
(1396.013,0,l),
(1396.013,60,l),
(1043.346,60,l),
(873.127,60,o),
(791.523,61.157,o),
(728.254,95.051,c),
(1109.02,503.601,l),
(1202.033,612.922,o),
(1125.673,785.183,o),
(978.85,785.183,cs),
(243.346,785.183,l),
(218.83,734.118,l),
(617.614,143.654,l),
(303.693,0.83,o),
(161,-146.627,o),
(161,-326.608,cs),
(161,-590.556,o),
(386.68,-721,o),
(630.601,-721,cs)
);
},
{
closed = 1;
nodes = (
(291.046,725.379,l),
(976.235,725.379,l),
(1072.248,725.379,o),
(1126.915,611.458,o),
(1062.725,536.529,c),
(690.255,134.085,l)
);
}
);
width = 1396;
},
{
anchors = (
{
name = "top-arab";
pos = (740,1007);
},
{
name = "bottom-arab";
pos = (710,-678);
}
);
associatedMasterId = m004;
attr = {
coordinates = (
800,
1
);
};
layerId = m005;
name = ExtraBold;
shapes = (
{
closed = 1;
nodes = (
(1151,-678,l),
(1151,-338.98,l),
(681.406,-338.98,l),
(508.504,-338.98,o),
(400.518,-257.675,o),
(417.817,-138.118,cs),
(432.744,-34.959,o),
(547.466,20.758,o),
(623.955,58.647,cs),
(650.348,71.721,o),
(731.543,101.745,o),
(741.327,107.745,c),
(857.582,4.804,o),
(976.386,0,o),
(1098.249,0,cs),
(1410.386,0,l),
(1410.386,340,l),
(1163.739,340,l),
(1092.817,340,o),
(1075.033,340.353,o),
(1054.857,345.482,c),
(1173.484,479.02,l),
(1350.68,690.824,o),
(1199.288,1006.745,o),
(928.935,1006.745,cs),
(292.386,1006.745,l),
(177.12,710.627,l),
(462.406,295.804,l),
(233.582,199.451,o),
(114.221,56.065,o),
(99.386,-138.118,cs),
(76.809,-433.636,o),
(332.582,-678,o),
(681.406,-678,cs)
);
},
{
closed = 1;
nodes = (
(512.539,691.98,l),
(894.214,691.98,l),
(938,692,o),
(960,645,o),
(931.83,610.199,cs),
(740.83,381.98,l)
);
}
);
width = 1410;
},
{
anchors = (
{
name = "top-arab";
pos = (768,1134);
},
{
name = "bottom-arab";
pos = (704,-1065);
}
);
associatedMasterId = m004;
attr = {
coordinates = (
1000,
1
);
};
layerId = m006;
name = ExtraBlack;
shapes = (
{
closed = 1;
nodes = (
(1171.571,-653.429,l),
(1171.571,-154.932,l),
(710.437,-154.932,l),
(559.682,-154.932,o),
(511.921,-90.856,o),
(531.106,-30.409,cs),
(554.562,40.335,o),
(616.967,55.746,o),
(653.957,70.249,cs),
(681.614,81.093,o),
(794.24,115.019,o),
(793.776,116.447,c),
(925.709,6.985,o),
(1085.045,0,o),
(1128.688,0,cs),
(1418.599,0,l),
(1418.599,500,l),
(1256.535,500,l),
(1252.355,500,o),
(1241.039,499.894,o),
(1225.487,488.586,c),
(1243.321,509.973,l),
(1435.622,735.339,o),
(1241.354,1133.352,o),
(900.412,1133.352,cs),
(320.409,1133.352,l),
(153.286,697.203,l),
(373.715,382.747,l),
(193.519,312.949,o),
(87.49,171.89,o),
(64.178,-30.409,cs),
(28.7,-343.968,o),
(301.669,-653.429,o),
(710.437,-653.429,cs)
);
},
{
closed = 1;
nodes = (
(639.106,672.895,l),
(847.345,672.895,l),
(861.287,672.926,o),
(864.62,664.167,o),
(857.033,652.295,cs),
(769.731,523.635,l)
);
}
);
width = 1418;
}
);
unicode = 65226;
},
{
glyphname = "ain-arab.init";
layers = (
{
anchors = (
{
name = "top-arab";
pos = (649,795);
},
{
name = "bottom-arab";
pos = (649,0);
}
);
layerId = m004;
shapes = (
{
closed = 1;
nodes = (
(0.294,60,l),
(-80.098,54.314,o),
(-80.098,5.621,o),
(0.294,0,c),
(652,0,l),
(716,0,o),
(887.573,12.28,o),
(994.157,50,c),
(994.157,110,l),
(894.519,70.969,o),
(723.645,59.643,o),
(651.745,60,cs),
(457.196,59.046,o),
(339.098,239.418,o),
(339.098,409.621,cs),
(339.098,612.601,o),
(466.956,775.696,o),
(651.353,776.68,cs),
(761.562,777.268,o),
(868.516,726.752,o),
(951.634,658.333,c),
(961.49,721.503,l),
(893.288,778.333,o),
(776.307,836.353,o),
(649,835.111,cs),
(432.238,832.997,o),
(280.536,646.797,o),
(280.536,409.621,cs),
(280.536,274.092,o),
(349.288,122.366,o),
(467.098,60,c)
);
}
);
width = 1165;
},
{
anchors = (
{
name = "top-arab";
pos = (583,961);
},
{
name = "bottom-arab";
pos = (555,0);
}
);
associatedMasterId = m004;
attr = {
coordinates = (
800,
1
);
};
layerId = m005;
name = ExtraBold;
shapes = (
{
closed = 1;
nodes = (
(0,340,l),
(-85.882,254.706,o),
(-85.882,84.314,o),
(0,0,c),
(596.454,0,l),
(725.272,1.292,o),
(888.669,19.725,o),
(979.941,60,c),
(979.941,380,l),
(889.191,341.22,o),
(697,340,o),
(574.137,340,cs),
(483.804,340.451,o),
(434.804,425.451,o),
(434.431,508.275,cs),
(434.431,604,o),
(496.804,683.878,o),
(588.255,684.157,cs),
(684.804,684.451,o),
(793.353,652.235,o),
(875.275,611.725,c),
(932.314,922.529,l),
(869.275,954.98,o),
(738.804,1000.466,o),
(582.961,1000.647,cs),
(321.804,1000.95,o),
(116,761.922,o),
(116,528.294,cs),
(116,478.819,o),
(128.859,406.336,o),
(151.963,340,c)
);
}
);
width = 1094;
},
{
anchors = (
{
name = "top-arab";
pos = (545,1056);
},
{
name = "bottom-arab";
pos = (501,0);
}
);
associatedMasterId = m004;
attr = {
coordinates = (
1000,
1
);
};
layerId = m006;
name = ExtraBlack;
shapes = (
{
closed = 1;
nodes = (
(-0.168,500,l),
(-89.188,369.216,o),
(-89.188,129.281,o),
(-0.168,0,c),
(564.713,0,l),
(730.571,2.03,o),
(889.295,23.98,o),
(971.818,65.714,c),
(971.818,534.286,l),
(886.146,495.649,o),
(681.774,500.204,o),
(529.79,500,c),
(499.008,501.254,o),
(489.493,531.755,o),
(488.908,564.648,cs),
(488.908,599.085,o),
(513.86,631.411,o),
(552.199,631.287,cs),
(640.942,631.413,o),
(750.402,609.655,o),
(831.641,585.092,c),
(915.641,1037.401,l),
(855.553,1055.922,o),
(717.374,1094.245,o),
(545.224,1095.239,cs),
(258.699,1096.924,o),
(21.979,827.707,o),
(21.979,596.107,cs),
(21.979,585.806,o),
(22.9,548.604,o),
(41.886,500,c)
);
}
);
width = 1054;
}
);
unicode = 65227;
},
{
glyphname = "ain-arab.medi";
layers = (
{
anchors = (
{
name = "top-arab";
pos = (689,757);
},
{
name = "bottom-arab";
pos = (688,0);
}
);
layerId = m004;
shapes = (
{
closed = 1;
nodes = (
(289.817,706.732,l),
(975.007,706.732,l),
(1071.02,706.732,o),
(1125.752,592.81,o),
(1061.562,517.882,c),
(689.092,135.373,l)
);
},
{
closed = 1;
nodes = (
(0.294,60,l),
(-80.098,54.314,o),
(-80.098,5.621,o),
(0.294,0,c),
(420.137,0,l),
(622.948,0,o),
(656.608,62.157,o),
(688.046,82.941,c),
(719.418,62.157,o),
(753.144,0,o),
(955.954,0,cs),
(1395.131,0,l),
(1395.131,60,l),
(962.529,60,l),
(860.007,60,o),
(768.699,77.804,o),
(750.373,119.281,c),
(1107.856,484.954,l),
(1200.804,594.275,o),
(1124.51,766.536,o),
(977.621,766.536,cs),
(242.118,766.536,l),
(217.601,715.471,l),
(632.174,119.323,l),
(618.946,79.814,o),
(524.203,60,o),
(420.699,60,cs)
);
}
);
width = 1395;
},
{
anchors = (
{
name = "top-arab";
pos = (695,978);
},
{
name = "bottom-arab";
pos = (695,0);
}
);
associatedMasterId = m004;
attr = {
coordinates = (
800,
1
);
};
layerId = m005;
name = ExtraBold;
shapes = (
{
closed = 1;
nodes = (
(467,692,l),
(848.676,692,l),
(892.461,692.02,o),
(914.461,645.02,o),
(886.292,610.218,cs),
(695.292,382,l)
);
},
{
closed = 1;
nodes = (
(0.412,340,l),
(-85.471,254.706,o),
(-85.471,84.314,o),
(0.412,0,c),
(360.059,0,l),
(572.216,0,o),
(657.118,42.353,o),
(678.686,64.118,c),
(699.275,42.353,o),
(785.157,0,o),
(997.314,0,cs),
(1362.961,0,l),
(1362.961,340,l),
(1067.941,340,l),
(1058.098,340,o),
(1032.49,337.059,o),
(1025.588,329.216,c),
(1127.843,450.314,l),
(1304.059,662.118,o),
(1153.647,978.039,o),
(882.314,978.039,cs),
(245.765,978.039,l),
(129.363,684.554,l),
(372.614,329.844,l),
(367.195,337.217,o),
(351.04,340,o),
(340.49,340,cs)
);
}
);
width = 1363;
},
{
anchors = (
{
name = "top-arab";
pos = (698,1104);
},
{
name = "bottom-arab";
pos = (699,0);
}
);
associatedMasterId = m004;
attr = {
coordinates = (
1000,
1
);
};
layerId = m006;
name = ExtraBlack;
shapes = (
{
closed = 1;
nodes = (
(568.247,683.582,l),
(776.486,683.582,l),
(790.428,683.613,o),
(793.724,674.853,o),
(786.137,662.982,cs),
(698.834,522.93,l)
);
},
{
closed = 1;
nodes = (
(0.479,500,l),
(-88.541,369.216,o),
(-88.541,129.281,o),
(0.479,0,c),
(325.728,0,l),
(543.226,0,o),
(657.409,31.036,o),
(673.338,53.361,c),
(687.764,31.036,o),
(803.45,0,o),
(1020.948,0,cs),
(1344.578,0,l),
(1344.578,500,l),
(1205,500,l),
(1201,500,o),
(1187.854,500.178,o),
(1171.854,489.178,c),
(1189.264,509.519,l),
(1363.062,700.885,o),
(1170.297,1098.898,o),
(827.852,1098.898,cs),
(247.849,1098.898,l),
(78.942,666.887,l),
(203.985,489.029,l),
(187.985,500.029,o),
(175,500,o),
(171,500,cs)
);
}
);
width = 1345;
}
);
unicode = 65228;
},
{
glyphname = "dotlessfeh-arab";
layers = (
{
anchors = (
{
name = "top-arab";
pos = (1378,860);
},
{
name = "bottom-arab";
pos = (981,0);
}
);
layerId = m004;
shapes = (
{
closed = 1;
nodes = (
(1551.746,119.131,c),
(1228.511,123.105,o),
(1074.263,361.771,o),
(1073.328,530.059,cs),
(1072.405,696.327,o),
(1215.838,843.837,o),
(1378.106,842.837,cs),
(1525.224,842.837,o),
(1683.818,725.216,o),
(1683.818,511.19,cs),
(1683.818,350.255,o),
(1649.021,179.373,o)
);
},
{
closed = 1;
nodes = (
(508.952,0,l),
(1392.897,0,l),
(1646.302,0,o),
(1742.38,236.739,o),
(1742.38,511.19,cs),
(1742.38,750.758,o),
(1561.335,900.464,o),
(1378.106,900.464,cs),
(1183.642,902.399,o),
(1013.628,728.587,o),
(1014.766,528.993,cs),
(1015.701,365.137,o),
(1133.256,96.124,o),
(1491.433,74,c),
(1435.958,60.133,o),
(1086.481,60.001,o),
(1051.139,60,cs),
(488.952,60,l)
);
},
{
closed = 1;
nodes = (
(329.878,60,o),
(191.845,230.967,o),
(240.845,431.758,cs),
(291.79,624,l),
(234.283,641.765,l),
(183.283,443.948,l),
(122.283,196.614,o),
(297.551,0,o),
(508.603,0,c),
(508.603,60,l)
);
}
);
width = 1903;
},
{
anchors = (
{
name = "top-arab";
pos = (1405,1029);
},
{
name = "bottom-arab";
pos = (975,0);
}
);
associatedMasterId = m004;
attr = {
coordinates = (
800,
1
);
};
layerId = m005;
name = ExtraBold;
shapes = (
{
closed = 1;
nodes = (
(1481.635,364.381,c),
(1311.015,397.673,o),
(1247.501,509.619,o),
(1247.48,594.897,cs),
(1247.46,674.023,o),
(1318.48,747.619,o),
(1399.274,747.619,cs),
(1480.494,747.619,o),
(1551,686.968,o),
(1551,594.973,cs),
(1551,492.978,o),
(1526.644,404.847,o)
);
},
{
closed = 1;
nodes = (
(578,0,l),
(1442,0,l),
(1645,0,o),
(1857,163,o),
(1857,592,cs),
(1857,853,o),
(1661,1049,o),
(1404,1049,cs),
(1161,1050,o),
(951,857,o),
(952,607,cs),
(952,539,o),
(978,392,o),
(1086,340,c),
(1066,340,o),
(1033,340,o),
(1015,340,cs),
(373,340,l)
);
},
{
closed = 1;
nodes = (
(452,340,o),
(426,462,o),
(455,565,cs),
(517,773,l),
(198,861,l),
(141,627,l),
(59,282,o),
(271,0,o),
(579,0,c),
(583,340,l)
);
}
);
width = 1966;
},
{
anchors = (
{
name = "top-arab";
pos = (1420,1126);
},
{
name = "bottom-arab";
pos = (972,0);
}
);
associatedMasterId = m004;
attr = {
coordinates = (
1000,
1
);
};
layerId = m006;
name = ExtraBlack;
shapes = (
{
closed = 1;
nodes = (
(1441.571,504.524,c),
(1358.161,554.57,o),
(1346.495,594.103,o),
(1346.995,631.948,cs),
(1347.491,661.278,o),
(1377.133,692.637,o),
(1411.37,693.209,cs),
(1454.934,693.209,o),
(1475.104,665.112,o),
(1475.104,642.849,cs),
(1475.104,574.534,o),
(1456.715,533.689,o)
);
},
{
closed = 1;
nodes = (
(617.456,0,l),
(1470.059,0,l),
(1644.256,0,o),
(1922.497,120.864,o),
(1922.497,638.177,cs),
(1922.497,911.424,o),
(1717.952,1133.878,o),
(1418.797,1133.878,cs),
(1148.062,1134.344,o),
(915.213,930.379,o),
(916.134,651.575,cs),
(916,638,o),
(919.282,561.072,o),
(954,500,c),
(924.595,499.924,o),
(902.439,499.999,o),
(894.349,500,cs),
(306.742,500,l)
);
},
{
closed = 1;
nodes = (
(522,500,o),
(559.803,594.019,o),
(577.374,641.138,c),
(645.692,858.143,l),
(177.267,986.277,l),
(116.838,731.601,l),
(22.838,330.792,o),
(255.828,0,o),
(619.227,0,c),
(625.512,500,l)
);
}
);
width = 2002;
}
);
unicode = (1697,2235);
},
{
glyphname = "dotlessfeh-arab.fina";
layers = (
{
anchors = (
{
name = "top-arab";
pos = (1392,814);
},
{
name = "bottom-arab";
pos = (935,0);
}
);
layerId = m004;
shapes = (
{
closed = 1;
nodes = (
(1391.458,795.098,cs),
(1559.895,795.098,o),
(1700.02,681.503,o),
(1700.02,496.34,cs),
(1700.02,248.059,o),
(1442.503,88.503,o),
(1391.458,61.869,c),
(1340.412,88.503,o),
(1082.895,248.059,o),
(1082.895,496.34,cs),
(1082.895,681.503,o),
(1222.954,795.098,o)
);
},
{
closed = 1;
nodes = (
(508.952,0,l),
(1323.484,0,l),
(1356.359,0,o),
(1390.02,12.157,o),
(1391.458,22.941,c),
(1392.83,12.157,o),
(1426.556,0,o),
(1459.366,0,cs),
(2003.353,0,l),
(2003.353,60,l),
(1490.307,60,l),
(1586.451,122.346,o),
(1758.582,279.556,o),
(1758.582,496.34,cs),
(1758.582,712.261,o),
(1595.183,853.725,o),
(1391.458,853.725,cs),
(1188.601,853.725,o),
(1024.268,712.261,o),
(1024.268,496.34,cs),
(1024.268,279.556,o),
(1196.399,122.346,o),
(1292.542,60,c),
(508.952,60,l)
);
},
{
closed = 1;
nodes = (
(329.878,60,o),
(191.845,230.967,o),
(240.845,431.758,cs),
(291.79,624,l),
(234.283,641.765,l),
(183.283,443.948,l),
(122.283,196.614,o),
(297.551,0,o),
(508.603,0,c),
(508.603,60,l)
);
}
);
width = 2003;
},
{
anchors = (
{
name = "top-arab";
pos = (1417,1016);
},
{
name = "bottom-arab";
pos = (975,0);
}
);
associatedMasterId = m004;
attr = {
coordinates = (
800,
1
);
};
layerId = m005;
name = ExtraBold;
shapes = (
{
closed = 1;
nodes = (
(1417,733,cs),
(1501.406,733,o),
(1579,676.763,o),
(1579,580.846,cs),
(1579,462.929,o),
(1478.048,378.303,o),
(1417,324,c),
(1354.875,378.303,o),
(1255,462.929,o),
(1255,580.846,cs),
(1255,676.763,o),
(1332.594,733,o)
);
},
{
closed = 1;
nodes = (
(568.476,0,l),
(1097.255,0,l),
(1310.392,0,o),
(1395.294,42.353,o),
(1416.863,64.118,c),
(1437.451,42.353,o),
(1523.333,0,o),
(1735.49,0,cs),
(2015.294,0,l),
(2015.294,340,l),
(1787.608,340,l),
(1829.765,393.196,o),
(1873.725,497.333,o),
(1873.725,585.098,cs),
(1873.725,845.922,o),
(1672.745,1035.882,o),
(1416.863,1035.882,cs),
(1160.02,1035.882,o),
(959.02,845.922,o),
(959.02,585.098,cs),
(959.02,497.333,o),
(1002.98,393.196,o),
(1045.137,340,c),
(573.277,340,l)
);
},
{
closed = 1;
nodes = (
(452.454,340,o),
(425.964,461.51,o),
(454.964,565.373,cs),
(517.179,772.551,l),
(198.208,861.246,l),
(140.731,627.216,l),
(58.731,282.216,o),
(270.751,0,o),
(578.535,0,c),
(583.336,340,l)
);
}
);
width = 2015;
},
{
anchors = (
{
name = "top-arab";
pos = (1431,1131);
},
{
name = "bottom-arab";
pos = (998,0);
}
);
associatedMasterId = m004;
attr = {
coordinates = (
1000,
1
);
};
layerId = m006;
name = ExtraBlack;
shapes = (
{
closed = 1;
nodes = (
(1431.596,697.515,cs),
(1467.983,697.515,o),
(1509.846,674.054,o),
(1509.846,629.135,cs),
(1509.846,585.712,o),
(1498.36,543.902,o),
(1431.596,473.789,c),
(1363.14,543.902,o),
(1353.345,585.712,o),
(1353.345,629.135,cs),
(1353.345,674.054,o),
(1395.246,697.515,o)
);
},
{
closed = 1;
nodes = (
(618.489,0,l),
(967.981,0,l),
(1284.125,0,o),
(1398.308,59.608,o),
(1431.38,87.647,c),
(1462.949,59.608,o),
(1578.635,0,o),
(1893.275,0,cs),
(2022.118,0,l),
(2022.118,500,l),
(1927.494,500,l),
(1938.801,547.967,o),
(1939.522,621.778,o),
(1939.522,635.817,cs),
(1939.522,922.299,o),
(1717.066,1139.972,o),
(1431.38,1139.972,cs),
(1143.687,1139.972,o),
(921.735,922.299,o),
(921.735,635.817,cs),
(921.735,621.778,o),
(922.456,547.967,o),
(933.763,500,c),
(590.034,500,l)
);
},
{
closed = 1;
nodes = (
(522.498,500,o),
(559.746,593.248,o),
(577.317,641.724,c),
(645.972,857.437,l),
(177.593,986.664,l),
(116.416,731.94,l),
(22.416,331.131,o),
(255.437,0,o),
(618.497,0,c),
(626.041,500,l)
);
}
);
width = 2022;
}
);
},
{
glyphname = "dotlessfeh-arab.init";
layers = (
{
anchors = (
{
name = "top-arab";
pos = (587,860);
},
{
name = "bottom-arab";
pos = (588,0);
}
);
layerId = m004;
shapes = (
{
closed = 1;
nodes = (
(760.608,119.131,c),
(437.373,123.105,o),
(283.124,361.771,o),
(282.19,530.059,cs),
(281.266,696.327,o),
(424.699,843.837,o),
(586.967,842.837,cs),
(734.085,842.837,o),
(892.68,725.216,o),
(892.68,511.19,cs),
(892.68,350.255,o),
(857.882,179.373,o)
);
},
{
closed = 1;
nodes = (
(-80.098,54.314,o),
(-80.098,5.621,o),
(0.294,0,c),
(601.758,0,l),
(855.163,0,o),
(951.242,236.739,o),
(951.242,511.19,cs),
(951.242,750.758,o),
(770.196,900.464,o),
(586.967,900.464,cs),
(392.503,902.399,o),
(222.489,728.587,o),
(223.627,528.993,cs),
(224.562,365.137,o),
(342.118,96.124,o),
(700.294,74,c),
(644.82,60.133,o),
(295.343,60.001,o),
(260,60,cs),
(0.294,60,l)
);
}
);
width = 1112;
},
{
anchors = (
{
name = "top-arab";
pos = (582,1029);
},
{
name = "bottom-arab";
pos = (582,0);
}
);
associatedMasterId = m004;
attr = {
coordinates = (
800,
1
);
};
layerId = m005;
name = ExtraBold;
shapes = (
{
closed = 1;
nodes = (
(660.154,364.762,c),
(489.535,398.054,o),
(426.021,510,o),
(425.999,595.278,cs),
(425.979,674.404,o),
(497,748,o),
(577.794,748,cs),
(659.013,748,o),
(729.52,687.349,o),
(729.52,595.354,cs),
(729.52,493.359,o),
(705.164,405.228,o)
);
},
{
closed = 1;
nodes = (
(-85.471,254.706,o),
(-85.471,84.314,o),
(0.412,0,c),
(620.373,0,l),
(823.451,0,o),
(1034.627,163.078,o),
(1034.627,591.843,cs),
(1034.627,853.373,o),
(838.941,1048.961,o),
(582.51,1048.961,cs),
(339.549,1049.98,o),
(129.412,856.824,o),
(130.412,606.902,cs),
(130.431,539.059,o),
(155.765,391.863,o),
(264.137,340,c),
(226.825,340,o),
(150.111,340,o),
(137.039,340,cs),
(0.412,340,l)
);
}
);
width = 1143;
},
{
anchors = (
{
name = "top-arab";
pos = (579,1126);
},
{
name = "bottom-arab";
pos = (578,0);
}
);
associatedMasterId = m004;
attr = {
coordinates = (
1000,
1
);
};
layerId = m006;
name = ExtraBlack;
shapes = (
{
closed = 1;
nodes = (
(602.038,505.123,c),
(518.628,555.168,o),
(506.962,594.702,o),
(507.462,632.547,cs),
(507.958,661.877,o),
(537.6,693.236,o),
(571.837,693.808,cs),
(615.401,693.808,o),
(635.571,665.711,o),
(635.571,643.448,cs),
(635.571,575.133,o),
(617.182,534.288,o)
);
},
{
closed = 1;
nodes = (
(-89.255,369.216,o),
(-89.255,129.281,o),
(-0.235,0,c),
(630.295,0,l),
(804.615,0,o),
(1081.562,120.987,o),
(1081.562,637.931,cs),
(1081.562,912.009,o),
(877.51,1133.816,o),
(579.248,1133.816,cs),
(308.575,1134.313,o),
(75.511,930.101,o),
(76.431,651.421,cs),
(76,628,o),
(78.563,560.856,o),
(114,500,c),
(87.257,499.924,o),
(66.408,499.999,o),
(66.062,500,cs),
(-0.235,500,l)
);
}
);
width = 1161;
}
);
},
{
glyphname = "dotlessfeh-arab.medi";
layers = (
{
anchors = (
{
name = "top-arab";
pos = (592,814);
},
{
name = "bottom-arab";
pos = (592,0);
}
);
layerId = m004;
shapes = (
{
closed = 1;
nodes = (
(592.19,795.098,cs),
(760.627,795.098,o),
(900.752,681.503,o),
(900.752,496.34,cs),
(900.752,248.059,o),
(643.17,88.503,o),
(592.19,61.869,c),
(541.144,88.503,o),
(283.627,248.059,o),
(283.627,496.34,cs),
(283.627,681.503,o),
(423.686,795.098,o)
);
},
{
closed = 1;
nodes = (
(0.294,60,l),
(-80.098,54.314,o),
(-80.098,5.621,o),
(0.294,0,c),
(524.281,0,l),
(557.092,0,o),
(590.752,12.157,o),
(592.19,22.941,c),
(593.627,12.157,o),
(627.288,0,o),
(660.098,0,cs),
(1204.085,0,l),
(1204.085,60,l),
(691.105,60,l),
(787.183,122.346,o),
(959.314,279.556,o),
(959.314,496.34,cs),
(959.314,712.261,o),
(795.915,853.725,o),
(592.19,853.725,cs),
(389.333,853.725,o),
(225.065,712.261,o),
(225.065,496.34,cs),
(225.065,279.556,o),
(397.131,122.346,o),
(493.275,60,c)
);
}
);
width = 1204;
},
{
anchors = (
{
name = "top-arab";
pos = (588,1016);
},
{
name = "bottom-arab";
pos = (588,0);
}
);
associatedMasterId = m004;
attr = {
coordinates = (
800,
1
);
};
layerId = m005;
name = ExtraBold;
shapes = (
{
closed = 1;
nodes = (
(588.431,732.755,cs),
(672.837,732.755,o),
(750.431,676.518,o),
(750.431,580.601,cs),
(750.431,462.684,o),
(649.48,378.058,o),
(588.431,323.755,c),
(526.307,378.058,o),
(426.431,462.684,o),
(426.431,580.601,cs),
(426.431,676.518,o),
(504.026,732.755,o)
);
},
{
closed = 1;
nodes = (
(0,340,l),
(-85.882,254.706,o),
(-85.882,84.314,o),
(0,0,c),
(269.804,0,l),
(481.961,0,o),
(566.863,42.353,o),
(588.431,64.118,c),
(610,42.353,o),
(694.902,0,o),
(907.059,0,cs),
(1186.863,0,l),
(1186.863,340,l),
(960.157,340,l),
(1001.333,393.196,o),
(1045.294,497.333,o),
(1045.294,585.098,cs),
(1045.294,845.922,o),
(844.314,1035.882,o),
(588.431,1035.882,cs),
(331.588,1035.882,o),
(131.569,845.922,o),
(131.569,585.098,cs),
(131.569,497.328,o),
(174.549,393.196,o),
(216.706,340,c)
);
}
);
width = 1187;
},
{
anchors = (
{
name = "top-arab";
pos = (586,1131);
},
{
name = "bottom-arab";
pos = (586,0);
}
);
associatedMasterId = m004;
attr = {
coordinates = (
1000,
1
);
};
layerId = m006;
name = ExtraBlack;
shapes = (
{
closed = 1;
nodes = (
(586.284,697.13,cs),
(622.671,697.13,o),
(664.534,673.669,o),
(664.534,628.75,cs),
(664.534,585.327,o),
(653.085,543.517,o),
(586.284,473.404,c),
(517.828,543.517,o),
(508.034,585.327,o),
(508.034,628.75,cs),
(508.034,673.669,o),
(549.934,697.13,o)
);
},
{
closed = 1;
nodes = (
(-0.168,500,l),
(-89.188,369.216,o),
(-89.188,129.281,o),
(-0.168,0,c),
(124.388,0,l),
(439.029,0,o),
(553.212,59.608,o),
(586.284,87.647,c),
(619.356,59.608,o),
(733.539,0,o),
(1048.179,0,cs),
(1177.021,0,l),
(1177.021,500,l),
(1083.901,500,l),
(1093.705,547.967,o),
(1094.426,621.778,o),
(1094.426,635.817,cs),
(1094.426,922.299,o),
(871.97,1139.972,o),
(586.284,1139.972,cs),
(298.591,1139.972,o),
(78.142,922.299,o),
(78.142,635.817,cs),
(78.142,621.769,o),
(77.359,547.967,o),
(88.667,500,c)
);
}
);
width = 1177;
}
);
},
{
glyphname = "dotlessqaf-arab";
layers = (
{
anchors = (
{
name = "top-arab";
pos = (1122,726);
},
{
name = "bottom-arab";
pos = (782,-551);
}
);
layerId = m004;
shapes = (
{
closed = 1;
nodes = (
(1414.229,373.32,l),
(1414.229,507.163,o),
(1270.767,707.621,o),
(1121.601,707.621,qs),
(989.266,707.621,o),
(828.974,521.641,o),
(828.974,373.32,qs),
(828.974,216.582,o),
(976.021,60,o),
(1121.601,60,qs),
(1414.229,60,l)
);
},
{
closed = 1;
nodes = (
(1412.182,0,q),
(1121.601,0,l),
(951.225,0,o),
(770.412,189.023,o),
(770.412,373.32,qs),
(770.412,496.535,o),
(862.32,668.676,o),
(1017,766,o),
(1121.601,766.183,qs),
(1279.073,766.183,o),
(1472.791,549.434,o),
(1472.791,373.32,qs),
(1472.731,55.812,l),
(1473.556,-125.681,o),
(1330.21,-382.328,o),
(1090.727,-518.867,o),
(952.699,-528.91,qs),
(697.928,-548.91,l),
(478.901,-566.91,o),
(260.763,-393.225,o),
(157,-130.91,o),
(157,16.927,qs),
(157,164.09,o),
(235.881,392.935,o),
(266.118,470.201,q),
(322.68,445.201,l),
(295.119,383.755,o),
(216,157.09,o),
(215.562,19.803,qs),
(216,-175.91,o),
(424.855,-507.42,o),
(697.928,-488.91,qs),
(952.699,-468.9,l),
(1076.702,-458.9,o),
(1286.114,-340.378,o),
(1401.746,-136.26,o)
);
}
);
width = 1644;
},
{
anchors = (
{
name = "top-arab";
pos = (1199,955);
},
{
name = "bottom-arab";
pos = (902,-539);
}
);
associatedMasterId = m004;
attr = {
coordinates = (
800,
1
);
};
layerId = m005;
name = ExtraBold;
shapes = (
{
closed = 1;
nodes = (
(1345.686,472.061,l),
(1345.686,552.158,o),
(1283.528,669.657,o),
(1199.148,669.657,qs),
(1111.435,669.657,o),
(1043.686,544.411,o),
(1043.686,472.061,qs),
(1043.686,397.105,o),
(1104.131,336.657,o),
(1199.148,336.657,qs),
(1345.686,336.657,l)
);
},
{
closed = 1;
nodes = (
(1308.203,0,q),
(1159.196,0,l),
(926.789,0,o),
(737.353,246.743,o),
(737.353,475.804,qs),
(737.353,615.545,o),
(859.152,843.824,o),
(1070.535,974.745,o),
(1199.196,974.745,qs),
(1396.637,974.745,o),
(1641.039,693.898,o),
(1641.039,475.804,qs),
(1641,0,l),
(1641,-113,o),
(1493.609,-365.923,o),
(1214.008,-529.056,o),
(1022.414,-539.056,qs),
(773.922,-548.056,l),
(559.625,-558.056,o),
(270.409,-366.083,o),
(110,-64.685,o),
(110,64.493,qs),
(110.905,240.766,o),
(162.094,505.811,o),
(220,667.473,q),
(512.431,549.473,l),
(484.086,462.448,o),
(427.811,234.779,o),
(428.431,107.63,qs),
(429.871,-33.888,o),
(572.732,-218.056,o),
(773.922,-208.056,qs),
(1022.412,-199.056,l),
(1132,-195.056,o),
(1251.31,-136.889,o),
(1307.76,-40.648,o)
);
}
);
width = 1773;
},
{
anchors = (
{
name = "top-arab";
pos = (1243,1086);
},
{
name = "bottom-arab";
pos = (971,-532);
}
);
associatedMasterId = m004;
attr = {
coordinates = (
1000,
1
);
};
layerId = m006;
name = ExtraBlack;
shapes = (
{
closed = 1;
nodes = (
(1306.519,528.484,l),
(1306.519,577.869,o),
(1290.82,647.963,o),
(1243.46,647.963,qs),
(1181.247,647.963,o),
(1166.379,557.422,o),
(1166.379,528.484,qs),
(1166.379,500.261,o),
(1177.336,494.746,o),
(1243.46,494.746,qs),
(1306.519,494.746,l)
);
},
{
closed = 1;
nodes = (
(1248.786,0,q),
(1180.679,0,l),
(912.825,0,o),
(718.463,279.726,o),
(718.463,534.366,qs),
(718.463,683.551,o),
(857.342,943.909,o),
(1101.126,1094.028,o),
(1243.536,1093.923,qs),
(1463.817,1093.923,o),
(1737.181,776.449,o),
(1737.181,534.366,qs),
(1737.154,-31.893,l),
(1736.682,-105.753,o),
(1586.98,-356.549,o),
(1284.454,-534.879,o),
(1062.251,-544.855,q),
(817.346,-547.569,l),
(605.753,-552.998,o),
(275.922,-350.573,o),
(83.143,-26.842,o),
(83.143,91.673,qs),
(84.565,284.581,o),
(119.93,570.311,o),
(193.647,780.199,q),
(620.861,609.057,l),
(592.068,507.415,o),
(548.846,279.172,o),
(550.071,157.817,qs),
(552.083,47.267,o),
(657.234,-52.706,o),
(817.346,-47.569,qs),
(1062.247,-44.86,l),
(1163.599,-44.289,o),
(1231.422,-20.609,o),
(1254.054,13.987,o)
);
}
);
width = 1847;
}
);
unicode = (1647,2236);
},
{
glyphname = uniE014;
layers = (
{
anchors = (
{
name = "top-arab";
pos = (1122,726);
},
{
name = "bottom-arab";
pos = (783,-551);
}
);
layerId = m004;
shapes = (
{
closed = 1;
nodes = (
(1414.229,373.32,l),
(1414.229,507.163,o),
(1270.767,707.621,o),
(1121.601,707.621,qs),
(989.266,707.621,o),
(828.974,521.641,o),
(828.974,373.32,qs),
(828.974,216.582,o),
(976.021,60,o),
(1121.601,60,qs),
(1414.229,60,l)
);
},
{
closed = 1;
nodes = (
(1472.731,60.035,l),
(1765.473,60.096,l),
(1765.473,0.109,l),
(1471.196,0.019,l),
(1462.252,-145.92,o),
(1330.21,-382.328,o),
(1090.727,-518.867,o),
(952.699,-528.91,qs),
(697.928,-548.91,l),
(478.901,-566.91,o),
(260.763,-393.225,o),
(157,-130.91,o),
(157,16.927,qs),
(157,164.09,o),
(235.881,392.935,o),
(266.118,470.201,q),
(322.68,445.201,l),
(295.119,383.755,o),
(216,157.09,o),
(215.562,19.803,qs),
(216,-175.91,o),
(424.855,-507.42,o),
(697.928,-488.91,qs),
(952.699,-468.9,l),
(1076.702,-458.9,o),
(1286.114,-340.378,o),
(1401.746,-136.26,o),
(1412.182,0,q),
(1121.601,0,l),
(951.225,0,o),
(770.412,189.023,o),
(770.412,373.32,qs),
(770.412,496.535,o),
(862.32,668.676,o),
(1017,766,o),
(1121.601,766.183,qs),
(1279.073,766.183,o),
(1472.791,549.434,o),
(1472.791,373.32,qs)
);
}
);
width = 1765;
},
{
anchors = (
{
name = "top-arab";
pos = (1199,955);
},
{
name = "bottom-arab";
pos = (902,-539);
}
);
associatedMasterId = m004;
attr = {
coordinates = (
800,
1
);
};
layerId = m005;
name = ExtraBold;
shapes = (
{
closed = 1;
nodes = (
(1345.686,472.061,l),
(1345.686,552.158,o),
(1283.528,669.657,o),
(1199.148,669.657,qs),
(1111.435,669.657,o),
(1043.686,544.411,o),
(1043.686,472.061,qs),
(1043.686,397.105,o),
(1104.131,336.657,o),
(1199.148,336.657,qs),
(1345.686,336.657,l)
);
},
{
closed = 1;
nodes = (
(1641.028,340,l),
(1818,340,l),
(1818,0,l),
(1641,0,l),
(1641,-113,o),
(1493.609,-365.923,o),
(1214.008,-529.056,o),
(1022.414,-539.056,qs),
(773.922,-548.056,l),
(559.625,-558.056,o),
(270.409,-366.083,o),
(110,-64.685,o),
(110,64.493,qs),
(110.905,240.766,o),
(162.094,505.811,o),
(220,667.473,q),
(512.431,549.473,l),
(484.086,462.448,o),
(427.811,234.779,o),
(428.431,107.63,qs),
(429.871,-33.888,o),
(572.732,-218.056,o),
(773.922,-208.056,qs),
(1022.412,-199.056,l),
(1132,-195.056,o),
(1251.31,-136.889,o),
(1307.76,-40.648,o),
(1308.203,0,q),
(1159.196,0,l),
(926.789,0,o),
(737.353,246.743,o),
(737.353,475.804,qs),
(737.353,615.545,o),
(859.152,843.824,o),
(1070.535,974.745,o),
(1199.196,974.745,qs),
(1396.637,974.745,o),
(1641.039,693.898,o),
(1641.039,475.804,qs)
);
}
);
width = 1818;
},
{
anchors = (
{
name = "top-arab";
pos = (1243,1086);
},
{
name = "bottom-arab";
pos = (970,-532);
}
);
associatedMasterId = m004;
attr = {
coordinates = (
1000,
1
);
};
layerId = m006;
name = ExtraBlack;
shapes = (
{
closed = 1;
nodes = (
(1306.519,528.484,l),
(1306.519,577.869,o),
(1290.82,647.963,o),
(1243.46,647.963,qs),
(1181.247,647.963,o),
(1166.379,557.422,o),
(1166.379,528.484,qs),
(1166.379,500.261,o),
(1177.336,494.746,o),
(1243.46,494.746,qs),
(1306.519,494.746,l)
);
},
{
closed = 1;
nodes = (
(1737.198,499.98,l),
(1848.015,499.945,l),
(1848.015,-0.062,l),
(1738.031,-0.011,l),
(1743.142,-94.189,o),
(1586.98,-356.549,o),
(1284.454,-534.879,o),
(1062.251,-544.855,q),
(817.346,-547.569,l),
(605.753,-552.998,o),
(275.922,-350.573,o),
(83.143,-26.842,o),
(83.143,91.673,qs),
(84.565,284.581,o),
(119.93,570.311,o),
(193.647,780.199,q),
(620.861,609.057,l),
(592.068,507.415,o),
(548.846,279.172,o),
(550.071,157.817,qs),
(552.083,47.267,o),
(657.234,-52.706,o),
(817.346,-47.569,qs),
(1062.247,-44.86,l),
(1163.599,-44.289,o),
(1231.422,-20.609,o),
(1254.054,13.987,o),
(1248.786,0,q),
(1180.679,0,l),
(912.825,0,o),
(718.463,279.726,o),
(718.463,534.366,qs),
(718.463,683.551,o),
(857.342,943.909,o),
(1101.126,1094.028,o),
(1243.536,1093.923,qs),
(1463.817,1093.923,o),
(1737.181,776.449,o),
(1737.181,534.366,qs)
);
}
);
width = 1849;
}
);
},
{
glyphname = "keheh-arab";
layers = (
{
anchors = (
{
name = "top-arab";
pos = (477,632);
},
{
name = "bottom-arab";
pos = (965,0);
}
);
layerId = m004;
shapes = (
{
closed = 1;
nodes = (
(508.603,60,l),
(329.878,60,o),
(191.845,230.967,o),
(240.845,431.758,cs),
(291.79,624,l),
(234.283,641.765,l),
(183.283,443.948,l),
(122.283,196.614,o),
(297.551,0,o),
(508.952,0,cs),
(1471.346,0,l),
(1707.144,0,o),
(1825.804,284.039,o),
(1665.033,452.072,cs),
(1046.673,1097.712,l),
(1768.915,1392.444,l),
(1748.379,1447.765,l),
(985,1137.065,l),
(985,1077.503,l),
(1621.196,413.699,l),
(1748.529,280.562,o),
(1651.954,60,o),
(1470.039,60,cs)
);
}
);
width = 1920;
},
{
anchors = (
{
name = "top-arab";
pos = (542,796);
},
{
name = "bottom-arab";
pos = (972,0);
}
);
associatedMasterId = m004;
attr = {
coordinates = (
800,
1
);
};
layerId = m005;
name = ExtraBold;
shapes = (
{
closed = 1;
nodes = (
(583.168,340,l),
(452.286,340,o),
(425.796,461.51,o),
(454.796,565.373,cs),
(517.011,772.551,l),
(198.039,861.246,l),
(140.563,627.216,l),
(58.563,282.216,o),
(270.583,0,o),
(578.476,0,cs),
(1460.098,0,l),
(1791.059,0,o),
(1960.961,396.588,o),
(1733.392,635.078,cs),
(1300,1085.686,l),
(1910,1331,l),
(1807.961,1618.804,l),
(962.902,1287.98,l),
(962.902,978.549,l),
(1481.843,437.49,l),
(1515.843,400.431,o),
(1495.216,340,o),
(1440.49,340,cs)
);
}
);
width = 1954;
},
{
anchors = (
{
name = "top-arab";
pos = (579,890);
},
{
name = "bottom-arab";
pos = (976,0);
}
);
associatedMasterId = m004;
attr = {
coordinates = (
1000,
1
);
};
layerId = m006;
name = ExtraBlack;
shapes = (
{
closed = 1;
nodes = (
(625.777,500,l),
(522.233,500,o),
(559.482,593.248,o),
(577.053,641.724,c),
(645.708,857.437,l),
(177.329,986.664,l),
(116.152,731.94,l),
(22.152,331.131,o),
(255.173,0,o),
(618.204,0,cs),
(1453.67,0,l),
(1839.01,0,o),
(2038.193,460.902,o),
(1772.455,739.654,cs),
(1444.758,1078.814,l),
(1990.62,1295.889,l),
(1842.007,1716.541,l),
(950.275,1374.218,l),
(950.275,922.004,l),
(1402.213,451.085,l),
(1382.88,468.928,o),
(1405.651,500,o),
(1423.605,500,c)
);
}
);
width = 1973;
}
);
unicode = (1705,64398);
},
{
glyphname = "keheh-arab.fina";
layers = (
{
anchors = (
{
name = "top-arab";
pos = (477,632);
},
{
name = "bottom-arab";
pos = (965,0);
}
);
layerId = m004;
shapes = (
{
closed = 1;
nodes = (
(508.603,60,l),
(329.878,60,o),
(191.845,230.967,o),
(240.845,431.758,cs),
(291.79,624,l),
(234.283,641.765,l),
(183.283,443.948,l),
(122.283,196.614,o),
(297.551,0,o),
(508.952,0,cs),
(1464.288,0,l),
(1640.268,0,o),
(1749.987,156.183,o),
(1727.131,302.242,c),
(1935.477,83.418,l),
(1986.98,29.85,o),
(2056.941,0,o),
(2130.098,0,cs),
(2179.771,0,l),
(2179.771,60,l),
(2130.098,60,l),
(2072.386,60,o),
(2016.608,83.627,o),
(1977.438,124.667,cs),
(1046.673,1097.712,l),
(1768.915,1392.444,l),
(1748.379,1447.765,l),
(985,1137.065,l),
(985,1077.503,l),
(1629.608,405.288,l),
(1744.791,271.216,o),
(1648.216,60,o),
(1470.039,60,cs)
);
}
);
width = 2180;
},
{
anchors = (
{
name = "top-arab";
pos = (542,796);
},
{
name = "bottom-arab";
pos = (972,0);
}
);
associatedMasterId = m004;
attr = {
coordinates = (
800,
1
);
};
layerId = m005;
name = ExtraBold;
shapes = (
{
closed = 1;
nodes = (
(583.336,340,l),
(452.454,340,o),
(425.964,461.51,o),
(454.964,565.373,cs),
(517.179,772.551,l),
(198.208,861.246,l),
(140.731,627.216,l),
(58.739,282.247,o),
(270.712,0.052,o),
(578.476,0,cs),
(1354.216,0,l),
(1543.922,0,o),
(1663.706,74.745,o),
(1726.863,179.627,c),
(1786.059,117.275,l),
(1858.608,41.745,o),
(1956.02,0,o),
(2059.422,0,cs),
(2059.422,0,l),
(2059.422,340,l),
(2059.422,340,l),
(2033.686,340,o),
(2009.02,344.412,o),
(1995.471,358,cs),
(1300,1085.686,l),
(1910,1331,l),
(1807.961,1618.804,l),
(962.902,1287.98,l),
(962.902,978.549,l),
(1482.02,437.314,l),
(1515.765,400.235,o),
(1495.137,340,o),
(1440.49,340,cs)
);
}
);
width = 2059;
},
{
anchors = (
{
name = "top-arab";
pos = (579,890);
},
{
name = "bottom-arab";
pos = (976,0);
}
);
associatedMasterId = m004;
attr = {
coordinates = (
1000,
1
);
};
layerId = m006;
name = ExtraBlack;
shapes = (
{
closed = 1;
nodes = (
(626.041,500,l),
(522.498,500,o),
(559.746,593.248,o),
(577.317,641.724,c),
(645.972,857.437,l),
(177.593,986.664,l),
(116.416,731.94,l),
(22.428,331.18,o),
(255.376,0.081,o),
(618.204,0,cs),
(1291.317,0,l),
(1488.866,0,o),
(1614.402,28.209,o),
(1726.71,109.562,c),
(1700.677,136.621,l),
(1785.252,48.542,o),
(1898.35,0,o),
(2019.035,0,c),
(1990.65,0,l),
(1990.65,500,l),
(2019.035,500,l),
(2011.572,500,o),
(2004.683,493.431,o),
(2005.775,491.333,c),
(1444.758,1078.814,l),
(1990.62,1295.889,l),
(1842.007,1716.541,l),
(950.275,1374.218,l),
(950.275,922.004,l),
(1397.683,455.614,l),
(1384.893,473.961,o),
(1407.664,500,o),
(1423.605,500,c)
);
}
);
width = 1990;
}
);
unicode = 64399;
},
{
glyphname = "keheh-arab.init";
layers = (
{
anchors = (
{
name = "top-arab";
pos = (200,1301);
},
{
name = "bottom-arab";
pos = (320,0);
}
);
layerId = m004;
shapes = (
{
closed = 1;
nodes = (
(0.294,60,l),
(-80.098,54.314,o),
(-80.098,5.621,o),
(0.294,0,c),
(529.582,0,l),
(765.379,0,o),
(884.039,284.039,o),
(723.268,452.072,cs),
(104.908,1097.712,l),
(827.15,1392.444,l),
(806.614,1447.765,l),
(43.235,1137.065,l),
(43.235,1077.503,l),
(679.431,413.699,l),
(806.765,280.562,o),
(710.19,60,o),
(528.275,60,cs)
);
}
);
width = 978;
},
{
anchors = (
{
name = "top-arab";
pos = (270,1335);
},
{
name = "bottom-arab";
pos = (490,0);
}
);
associatedMasterId = m004;
attr = {
coordinates = (
800,
1
);
};
layerId = m005;
name = ExtraBold;
shapes = (
{
closed = 1;
nodes = (
(0.412,340,l),
(-85.471,254.706,o),
(-85.471,84.314,o),
(0.412,0,c),
(561.725,0,l),
(892.686,0,o),
(1062.588,396.588,o),
(835.02,635.078,cs),
(401.627,1085.686,l),
(1011,1331,l),
(908.961,1618.804,l),
(64.529,1287.98,l),
(64.529,978.549,l),
(583.471,437.49,l),
(617.471,400.431,o),
(596.843,340,o),
(542.118,340,cs)
);
}
);
width = 1055;
},
{
anchors = (
{
name = "top-arab";
pos = (310,1354);
},
{
name = "bottom-arab";
pos = (587,0);
}
);
associatedMasterId = m004;
attr = {
coordinates = (
1000,
1
);
};
layerId = m006;
name = ExtraBlack;
shapes = (
{
closed = 1;
nodes = (
(0.479,500,l),
(-88.541,369.216,o),
(-88.541,129.281,o),
(0.479,0,c),
(580.093,0,l),
(965.433,0,o),
(1164.616,460.902,o),
(898.878,739.654,cs),
(571.181,1078.814,l),
(1116.057,1295.889,l),
(967.444,1716.541,l),
(76.697,1374.218,l),
(76.697,922.004,l),
(528.636,451.085,l),
(509.303,468.928,o),
(532.074,500,o),
(550.028,500,c)
);
}
);
width = 1099;
}
);
unicode = 64400;
},
{
glyphname = "keheh-arab.medi";
layers = (
{
anchors = (
{
name = "top-arab";
pos = (200,1301);
},
{
name = "bottom-arab";
pos = (320,0);
}
);
layerId = m004;
shapes = (
{
closed = 1;
nodes = (
(0.294,60,l),
(-80.098,54.314,o),
(-80.098,5.621,o),
(0.294,0,c),
(522.523,0,l),
(698.503,0,o),
(808.222,156.183,o),
(785.366,302.242,c),
(993.712,83.418,l),
(1045.216,29.85,o),
(1115.176,0,o),
(1188.333,0,cs),
(1247.353,0,l),
(1247.353,60,l),
(1188.333,60,l),
(1130.621,60,o),
(1074.843,83.627,o),
(1035.673,124.667,cs),
(104.908,1097.712,l),
(827.15,1392.444,l),
(806.614,1447.765,l),
(43.235,1137.065,l),
(43.235,1077.503,l),
(687.843,405.288,l),
(803.026,271.216,o),
(706.451,60,o),
(528.275,60,cs)
);
}
);
width = 1247;
},
{
anchors = (
{
name = "top-arab";
pos = (270,1335);
},
{
name = "bottom-arab";
pos = (490,0);
}
);
associatedMasterId = m004;
attr = {
coordinates = (
800,
1
);
};
layerId = m005;
name = ExtraBold;
shapes = (
{
closed = 1;
nodes = (
(0.412,340,l),
(-85.471,254.706,o),
(-85.471,84.314,o),
(0.412,0,c),
(455.843,0,l),
(645.549,0,o),
(765.333,74.745,o),
(828.49,179.627,c),
(887.686,117.275,l),
(960.235,41.745,o),
(1057.647,0,o),
(1161,0,cs),
(1161,0,l),
(1161,340,l),
(1161,340,l),
(1135.314,340,o),
(1110.647,344.412,o),
(1097.098,358,cs),
(401.627,1085.686,l),
(1011,1331,l),
(908.961,1618.804,l),
(64.529,1287.98,l),
(64.529,978.549,l),
(583.647,437.314,l),
(617.392,400.235,o),
(596.765,340,o),
(542.118,340,cs)
);
}
);
width = 1161;
},
{
anchors = (
{
name = "top-arab";
pos = (310,1354);
},
{
name = "bottom-arab";
pos = (587,0);
}
);
associatedMasterId = m004;
attr = {
coordinates = (
1000,
1
);
};
layerId = m006;
name = ExtraBlack;
shapes = (
{
closed = 1;
nodes = (
(0.479,500,l),
(-88.541,369.216,o),
(-88.541,129.281,o),
(0.479,0,c),
(417.74,0,l),
(615.289,0,o),
(740.825,28.209,o),
(853.133,109.562,c),
(827.1,136.621,l),
(911.675,48.542,o),
(1024.773,0,o),
(1145.381,0,c),
(1111.655,0,l),
(1111.655,500,l),
(1145.381,500,l),
(1137.995,500,o),
(1131.106,493.431,o),
(1132.198,491.333,c),
(571.181,1078.814,l),
(1116.057,1295.889,l),
(967.444,1716.541,l),
(76.697,1374.218,l),
(76.697,922.004,l),
(524.106,455.614,l),
(511.316,473.961,o),
(534.087,500,o),
(550.028,500,c)
);
}
);
width = 1112;
}
);
unicode = 64401;
},
{
glyphname = uniE021;
layers = (
{
layerId = m004;
shapes = (
{
closed = 1;
nodes = (
(508.603,60,l),
(329.878,60,o),
(191.845,230.967,o),
(240.845,431.758,cs),
(291.79,624,l),
(234.283,641.765,l),
(183.283,443.948,l),
(122.283,196.614,o),
(297.551,0,o),
(508.603,0,cs),
(1416,0,l),
(1596.987,0,o),
(1743.32,145.614,o),
(1743.32,325.948,cs),
(1742.987,1513,l),
(1684.425,1513,l),
(1684.758,328.758,l),
(1684.758,179.967,o),
(1564.725,60,o),
(1416,60,cs)
);
}
);
width = 1964;
},
{
associatedMasterId = m004;
attr = {
coordinates = (
800,
1
);
};
layerId = m005;
name = ExtraBold;
shapes = (
{
closed = 1;
nodes = (
(583.336,340,l),
(452.454,340,o),
(425.964,461.51,o),
(454.964,565.373,cs),
(517.179,772.551,l),
(198.208,861.246,l),
(140.731,627.216,l),
(58.739,282.247,o),
(270.712,0.052,o),
(578.476,0,cs),
(1299.51,0,l),
(1536.314,0,o),
(1729.314,182.216,o),
(1729.314,409.216,cs),
(1729.216,1504,l),
(1410.784,1504,l),
(1410.882,451.373,l),
(1410.882,389.51,o),
(1360.392,340,o),
(1299.51,340,cs)
);
}
);
width = 1865;
},
{
associatedMasterId = m004;
attr = {
coordinates = (
1000,
1
);
};
layerId = m006;
name = ExtraBlack;
shapes = (
{
closed = 1;
nodes = (
(626.041,500,l),
(522.498,500,o),
(559.746,593.248,o),
(577.317,641.724,c),
(645.972,857.437,l),
(177.593,986.664,l),
(116.416,731.94,l),
(22.428,331.18,o),
(255.376,0.081,o),
(618.403,0,cs),
(1232.944,0,l),
(1501.643,0,o),
(1721.31,203.131,o),
(1721.31,456.797,cs),
(1721.346,1498.857,l),
(1254.418,1498.857,l),
(1254.382,521.438,l),
(1254.382,509.248,o),
(1243.63,500,o),
(1232.944,500,cs)
);
}
);
width = 1809;
}
);
unicode = 57377;
},
{
glyphname = uniE022;
layers = (
{
layerId = m004;
shapes = (
{
closed = 1;
nodes = (
(508.603,60,l),
(329.878,60,o),
(191.845,230.967,o),
(240.845,431.758,cs),
(291.79,624,l),
(234.283,641.765,l),
(183.283,443.948,l),
(122.283,196.614,o),
(297.551,0,o),
(508.603,0,cs),
(1416.294,0,l),
(1553.248,0,o),
(1667.961,83.712,o),
(1714.333,203.098,c),
(1760.706,83.712,o),
(1875.418,0,o),
(2012.373,0,cs),
(2084,0,l),
(2084,60,l),
(2012.373,60,l),
(1863.582,60,o),
(1743.614,179.967,o),
(1743.614,328.758,cs),
(1743.614,1512.941,l),
(1685.052,1512.941,l),
(1685.052,328.758,l),
(1685.052,179.967,o),
(1565.02,60,o),
(1416.294,60,cs)
);
}
);
width = 2084;
},
{
associatedMasterId = m004;
attr = {
coordinates = (
800,
1
);
};
layerId = m005;
name = ExtraBold;
shapes = (
{
closed = 1;
nodes = (
(583.336,340,l),
(452.454,340,o),
(425.964,461.51,o),
(454.964,565.373,cs),
(517.179,772.551,l),
(198.208,861.246,l),
(140.731,627.216,l),
(58.739,282.247,o),
(270.712,0.052,o),
(578.476,0,cs),
(1299.51,0,l),
(1421.824,0,o),
(1504.51,51.686,o),
(1570.098,134.471,c),
(1635.686,51.686,o),
(1718.373,0,o),
(1840.686,0,cs),
(1915.588,0,l),
(1915.588,340,l),
(1840.686,340,l),
(1778.824,340,o),
(1729.314,389.51,o),
(1729.314,451.373,cs),
(1729.216,1504,l),
(1410.784,1504,l),
(1410.882,451.373,l),
(1410.882,389.51,o),
(1360.392,340,o),
(1299.51,340,cs)
);
}
);
width = 1916;
},
{
associatedMasterId = m004;
attr = {
coordinates = (
1000,
1
);
};
layerId = m006;
name = ExtraBlack;
shapes = (
{
closed = 1;
nodes = (
(626.041,500,l),
(522.498,500,o),
(559.746,593.248,o),
(577.317,641.724,c),
(645.972,857.437,l),
(177.593,986.664,l),
(116.416,731.94,l),
(22.428,331.18,o),
(255.376,0.081,o),
(618.403,0,cs),
(1232.776,0,l),
(1346.724,0,o),
(1411.109,33.386,o),
(1487.678,95.255,c),
(1564.246,33.386,o),
(1628.632,0,o),
(1742.58,0,cs),
(1819.353,0,l),
(1819.353,500,l),
(1742.58,500,l),
(1730.39,500,o),
(1721.142,509.248,o),
(1721.142,521.438,cs),
(1720.988,1498.891,l),
(1254.06,1498.891,l),
(1254.214,521.438,l),
(1254.214,509.248,o),
(1243.462,500,o),
(1232.776,500,cs)
);
}
);
width = 1820;
}
);
unicode = 57378;
},
{
glyphname = "lam-arab";
layers = (
{
anchors = (
{
name = "top-arab";
pos = (600,468);
},
{
name = "bottom-arab";
pos = (714,-551);
}
);
layerId = m004;
shapes = (
{
closed = 1;
nodes = (
(1315,1483,l),
(1373.562,1483,l),
(1372.729,44.08,l),
(1373.591,-137.632,o),
(1230.21,-394.341,o),
(990.727,-530.88,o),
(852.699,-540.923,qs),
(697.928,-550.923,l),
(478.901,-560.923,o),
(260.763,-395.239,o),
(157,-132.923,o),
(157,14.914,qs),
(157,162.077,o),
(235.881,390.922,o),
(266.118,468.188,q),
(322.68,443.188,l),
(295.119,381.742,o),
(216,155.077,o),
(215.562,17.79,qs),
(216,-177.923,o),
(424.855,-509.433,o),
(697.928,-490.923,qs),
(852.699,-480.913,l),
(976.702,-470.913,o),
(1186.114,-352.392,o),
(1312.719,-128.903,o),
(1312.719,47.097,qs)
);
}
);
width = 1591;
},
{
anchors = (
{
name = "top-arab";
pos = (470,567);
},
{
name = "bottom-arab";
pos = (817,-539);
}
);
associatedMasterId = m004;
attr = {
coordinates = (
800,
1
);
};
layerId = m005;
name = ExtraBold;
shapes = (
{
closed = 1;
nodes = (
(1195,1523,l),
(1512.755,1523.056,l),
(1513,80,l),
(1511.603,-73.214,o),
(1363.609,-345.923,o),
(1084.008,-529.056,o),
(892.414,-539.056,qs),
(773.922,-548.056,l),
(559.625,-558.056,o),
(270.409,-366.083,o),
(110,-64.685,o),
(110,64.493,qs),
(110.905,240.766,o),
(162.094,505.811,o),
(220,667.473,q),
(512.431,549.473,l),
(484.086,462.448,o),
(427.811,234.779,o),
(428.431,107.63,qs),
(429.871,-33.888,o),
(572.732,-225.056,o),
(773.922,-208.056,qs),
(892.412,-199.056,l),
(992,-192.056,o),
(1116.233,-113.299,o),
(1195.505,16.989,o),
(1195.505,116.437,qs)
);
}
);
width = 1670;
},
{
anchors = (
{
name = "top-arab";
pos = (396,624);
},
{
name = "bottom-arab";
pos = (876,-532);
}
);
associatedMasterId = m004;
attr = {
coordinates = (
1000,
1
);
};
layerId = m006;
name = ExtraBlack;
shapes = (
{
closed = 1;
nodes = (
(1126.429,1545.857,l),
(1592.294,1545.946,l),
(1593.155,100.526,l),
(1590.467,-36.404,o),
(1439.837,-318.256,o),
(1137.311,-518.014,o),
(915.108,-537.99,qs),
(817.346,-546.419,l),
(605.753,-566.419,o),
(275.922,-349.422,o),
(83.143,-25.692,o),
(83.143,92.823,qs),
(84.565,285.731,o),
(119.93,571.462,o),
(193.647,781.35,q),
(620.861,610.207,l),
(592.068,508.565,o),
(548.846,280.323,o),
(550.071,158.967,qs),
(552.083,48.418,o),
(657.234,-62.555,o),
(817.346,-46.419,qs),
(915.105,-37.996,l),
(1000.742,-32.71,o),
(1076.301,23.326,o),
(1128.526,100.356,o),
(1128.526,156.059,qs)
);
}
);
width = 1715;
}
);
unicode = (1604,65245);
},
{
glyphname = "lam-arab.fina";
layers = (
{
anchors = (
{
name = "top-arab";
pos = (600,468);
},
{
name = "bottom-arab";
pos = (714,-551);
}
);
layerId = m004;
shapes = (
{
closed = 1;
nodes = (
(1372.885,313.014,l),
(1377.966,210.8,o),
(1529.726,59.065,o),
(1641.281,59.065,qs),
(1713.569,59.065,l),
(1713.569,-0.935,l),
(1641.281,-0.935,l),
(1556.272,-0.935,o),
(1414.032,84.512,o),
(1372.794,155.836,q),
(1372.729,44.08,l),
(1373.591,-137.632,o),
(1230.21,-394.341,o),
(990.727,-530.88,o),
(852.699,-540.923,qs),
(697.928,-550.923,l),
(478.901,-560.923,o),
(260.763,-395.239,o),
(157,-132.923,o),
(157,14.914,qs),
(157,162.077,o),
(235.881,390.922,o),
(266.118,468.188,q),
(322.68,443.188,l),
(295.119,381.742,o),
(216,155.077,o),
(215.562,17.79,qs),
(216,-177.923,o),
(424.855,-509.433,o),
(697.928,-490.923,qs),
(852.699,-480.913,l),
(976.702,-470.913,o),
(1186.114,-352.392,o),
(1312.719,-128.903,o),
(1312.719,47.097,qs),
(1315,1483,l),
(1373.562,1483,l)
);
}
);
width = 1714;
},
{
anchors = (
{
name = "top-arab";
pos = (470,567);
},
{
name = "bottom-arab";
pos = (817,-539);
}
);
associatedMasterId = m004;
attr = {
coordinates = (
800,
1
);
};
layerId = m005;
name = ExtraBold;
shapes = (
{
closed = 1;
nodes = (
(1514.07,450.373,l),
(1514.07,404.144,o),
(1579.611,339,o),
(1625.442,339,qs),
(1699.756,339,l),
(1699.756,-1,l),
(1625.442,-1,l),
(1597.055,-1,o),
(1529.209,31.225,o),
(1512.033,50.204,q),
(1511.954,48.825,l),
(1504.004,-87.217,o),
(1363.609,-345.923,o),
(1084.008,-529.056,o),
(892.414,-539.056,qs),
(773.922,-548.056,l),
(559.625,-558.056,o),
(270.409,-366.083,o),
(110,-64.685,o),
(110,64.493,qs),
(110.905,240.766,o),
(162.094,505.811,o),
(220,667.473,q),
(512.431,549.473,l),
(484.086,462.448,o),
(427.811,234.779,o),
(428.431,107.63,qs),
(429.871,-33.888,o),
(572.732,-225.056,o),
(773.922,-208.056,qs),
(892.412,-199.056,l),
(992,-192.056,o),
(1116.233,-113.299,o),
(1195.505,16.989,o),
(1195.505,116.437,qs),
(1195,1523,l),
(1512.755,1523.056,l)
);
}
);
width = 1700;
},
{
anchors = (
{
name = "top-arab";
pos = (396,624);
},
{
name = "bottom-arab";
pos = (876,-532);
}
);
associatedMasterId = m004;
attr = {
coordinates = (
1000,
1
);
};
layerId = m006;
name = ExtraBlack;
shapes = (
{
closed = 1;
nodes = (
(1594.747,528.863,l),
(1591.844,514.627,o),
(1608.117,498.963,o),
(1616.392,498.963,qs),
(1691.863,498.963,l),
(1691.863,-1.037,l),
(1616.392,-1.037,l),
(1620.359,-1.037,o),
(1595.024,0.775,o),
(1591.598,-10.157,q),
(1591.511,51.536,l),
(1578.526,-58.408,o),
(1439.837,-318.256,o),
(1137.311,-518.014,o),
(915.108,-537.99,qs),
(817.346,-546.419,l),
(605.753,-566.419,o),
(275.922,-349.422,o),
(83.143,-25.692,o),
(83.143,92.823,qs),
(84.565,285.731,o),
(119.93,571.462,o),
(193.647,781.35,q),
(620.861,610.207,l),
(592.068,508.565,o),
(548.846,280.323,o),
(550.071,158.967,qs),
(552.083,48.418,o),
(657.234,-62.555,o),
(817.346,-46.419,qs),
(915.105,-37.996,l),
(1000.742,-32.71,o),
(1076.301,23.326,o),
(1128.526,100.356,o),
(1128.526,156.059,qs),
(1126.429,1545.857,l),
(1592.294,1545.946,l)
);
}
);
width = 1692;
}
);
unicode = 65246;
},
{
glyphname = "lam-arab.init";
layers = (
{
anchors = (
{
name = "top-arab";
pos = (401,1482);
},
{
name = "bottom-arab";
pos = (307,50);
}
);
layerId = m004;
shapes = (
{
closed = 1;
nodes = (
(0.294,60,l),
(-80.098,54.314,o),
(-80.098,5.621,o),
(0.294,0,c),
(102.843,0,l),
(283.895,0,o),
(430.163,146.268,o),
(430.163,327.32,cs),
(430.281,1483,l),
(371.719,1483,l),
(371.601,328.758,l),
(371.601,179.967,o),
(251.569,60,o),
(102.843,60,cs)
);
}
);
width = 651;
},
{
anchors = (
{
name = "top-arab";
pos = (389,1504);
},
{
name = "bottom-arab";
pos = (387,92);
}
);
associatedMasterId = m004;
attr = {
coordinates = (
800,
1
);
};
layerId = m005;
name = ExtraBold;
shapes = (
{
closed = 1;
nodes = (
(0,340,l),
(-85.882,254.706,o),
(-85.882,84.314,o),
(0,0,c),
(118.235,0,l),
(356.02,0,o),
(548.039,192.02,o),
(548.039,429.804,cs),
(548.216,1524,l),
(229.784,1524,l),
(229.608,451.373,l),
(229.608,389.51,o),
(179.118,340,o),
(118.235,340,cs)
);
}
);
width = 704;
},
{
anchors = (
{
name = "top-arab";
pos = (382,1517);
},
{
name = "bottom-arab";
pos = (433,116);
}
);
associatedMasterId = m004;
attr = {
coordinates = (
1000,
1
);
};
layerId = m006;
name = ExtraBlack;
shapes = (
{
closed = 1;
nodes = (
(-0.168,500,l),
(-89.188,369.216,o),
(-89.188,129.281,o),
(-0.168,0,c),
(127.031,0,l),
(397.233,0,o),
(615.397,218.163,o),
(615.397,488.366,cs),
(615.607,1547.429,l),
(148.679,1547.429,l),
(148.469,521.438,l),
(148.469,509.248,o),
(137.717,500,o),
(127.031,500,cs)
);
}
);
width = 735;
}
);
unicode = 65247;
},
